{
.appVersion = "1286";
copyright = "Valery Marier, 2020";
customParameters = (
{
name = "Variable Font Origin";
value = "66D417ED-19C2-41B2-B946-B4104EEC6A8E";
},
{
name = Axes;
value = (
{
Name = Weight;
Tag = wght;
}
);
},
{
name = "Enforce Compatibility Check";
value = 1;
},
{
name = "Axis Mappings";
value = {
wght = {
100 = 100;
300 = 300;
400 = 400;
600 = 600;
700 = 750;
900 = 900;
};
};
},
{
name = unicodeRanges;
value = (
0
);
},
{
name = license;
value = "This Font Software is licensed under the SIL Open Font License, Version 1.1.";
},
{
name = licenseURL;
value = "http://scripts.sil.org/OFL";
}
);
date = "2020-06-18 23:14:28 +0000";
designer = "Valery Marier";
designerURL = "https://marier.design";
disablesAutomaticAlignment = 1;
familyName = "Space Cowgirl";
featurePrefixes = (
{
automatic = 1;
code = "languagesystem DFLT dflt;\012";
name = Languagesystems;
}
);
features = (
{
automatic = 1;
code = "feature salt;\012feature ss01;\012feature ss02;\012";
name = aalt;
},
{
automatic = 1;

glyphs = (
{
glyphname = A;
lastChange = "2020-06-18 01:04:10 +0000";
layers = (
{
background = {
components = (
{
name = R;
transform = "{1, 0, 0, 1, 25, 0}";
}
);
paths = (
{
closed = 1;
nodes = (
"692 506 OFFCURVE",
"613 700 OFFCURVE",
"373 700 CURVE SMOOTH",
"133 700 OFFCURVE",
"54 506 OFFCURVE",
"54 366 CURVE SMOOTH",
"54 334 LINE SMOOTH",
"54 194 OFFCURVE",
"133 0 OFFCURVE",
"373 0 CURVE SMOOTH",
"613 0 OFFCURVE",
"692 194 OFFCURVE",
"692 334 CURVE SMOOTH",
"692 366 LINE SMOOTH"
);
},
{
closed = 1;
nodes = (
"146 177 OFFCURVE",
"79 264 OFFCURVE",
"79 349 CURVE SMOOTH",
"79 434 OFFCURVE",
"146 527 OFFCURVE",
"373 527 CURVE SMOOTH",
"600 527 OFFCURVE",
"667 434 OFFCURVE",
"667 349 CURVE SMOOTH",
"667 264 OFFCURVE",
"600 177 OFFCURVE",
"373 177 CURVE SMOOTH"
);
}
);
};
guideLines = (
{
position = "{-163, 528}";
},
{
angle = 90;
position = "{764, 666}";
},
{
angle = 65.8642;
position = "{99, 148}";
},
{
angle = 65.8642;
position = "{205, 316}";
},
{
angle = 102.8307;
position = "{377, 528}";
}
);
layerId = "66D417ED-19C2-41B2-B946-B4104EEC6A8E";
paths = (
{
closed = 1;
nodes = (
"704 177 LINE",
"324 177 LINE",
"324 0 LINE",
"704 0 LINE"
);
},
{
closed = 1;
nodes = (
"257 177 LINE",
"40 177 LINE",
"40 0 LINE",
"257 0 LINE"
);
},
{
closed = 1;
nodes = (
"129 147 LINE",
"129 410 LINE",
"129 492 OFFCURVE",
"181 528 OFFCURVE",
"283 528 CURVE",
"377 528 LINE",
"466 138 LINE",
"614 138 LINE",
"486 700 LINE",
"352 700 LINE",
"196 700 OFFCURVE",
"99 617 OFFCURVE",
"99 478 CURVE SMOOTH",
"99 148 LINE"
);
},
{
closed = 1;
nodes = (
"530 430 LINE",
"109 430 LINE",
"109 400 LINE",
"530 400 LINE"
);
}
);
width = 744;
},
{
associatedMasterId = "66D417ED-19C2-41B2-B946-B4104EEC6A8E";
background = {
components = (
{
name = S;
}
);
};
guideLines = (
{
angle = 90;
position = "{15, 321}";
},
{
angle = 90;
position = "{739, 666}";
},
{
angle = 65.8642;
position = "{74, 148}";
},
{
angle = 117.7753;
position = "{489, 138}";
},
{
angle = 65.8642;
position = "{180, 316}";
}
);
layerId = "02AC1735-A3ED-488A-A1F4-3F4100445793";
name = "Feb 26 20, 09:26";
paths = (
{
closed = 1;
nodes = (
"739 179 LINE",
"382 179 LINE",
"382 2 LINE",
"739 2 LINE"
);
},
{
closed = 1;
nodes = (
"211 179 LINE",
"15 179 LINE",
"15 2 LINE",
"211 2 LINE"
);
},
{
closed = 1;
nodes = (
"104 147 LINE",
"255 484 LINE",
"279 537 LINE",
"307 484 LINE",
"489 138 LINE",
"659 138 LINE",
"363 700 LINE",
"321 700 LINE",
"74 148 LINE"
);
},
{
closed = 1;
nodes = (
"445 430 LINE",
"214 430 LINE",
"214 400 LINE",
"445 400 LINE"
);
},
{
closed = 1;
nodes = (
"256 519 LINE",
"298 519 LINE",
"278 559 LINE"
);
}
);
width = 754;
},
{
associatedMasterId = "66D417ED-19C2-41B2-B946-B4104EEC6A8E";
background = {
components = (
{
name = R;
transform = "{1, 0, 0, 1, 25, 0}";
}
);
};
guideLines = (
{
position = "{-163, 528}";
},
{
angle = 90;
position = "{764, 666}";
},
{
angle = 65.8642;
position = "{99, 148}";
},
{
angle = 65.8642;
position = "{205, 316}";
},
{
angle = 102.8307;
position = "{377, 528}";
}
);
layerId = "6FDC8642-F08E-40D9-BF17-526A0A70FD26";
name = "Feb 29 20, 10:18";
paths = (
{
closed = 1;
nodes = (
"704 177 LINE",
"347 177 LINE",
"347 0 LINE",
"704 0 LINE"
);
},
{
closed = 1;
nodes = (
"236 177 LINE",
"40 177 LINE",
"40 0 LINE",
"236 0 LINE"
);
},
{
closed = 1;
nodes = (
"129 147 LINE",
"129 265 OFFCURVE",
"129 362 OFFCURVE",
"129 410 CURVE SMOOTH",
"129 492 OFFCURVE",
"181 528 OFFCURVE",
"283 528 CURVE SMOOTH",
"298 528 OFFCURVE",
"292 528 OFFCURVE",
"377 528 CURVE",
"466 138 LINE",
"614 138 LINE",
"486 700 LINE",
"338 700 OFFCURVE",
"473 700 OFFCURVE",
"352 700 CURVE SMOOTH",
"196 700 OFFCURVE",
"99 617 OFFCURVE",
"99 478 CURVE SMOOTH",
"99 472 OFFCURVE",
"99 315 OFFCURVE",
"99 148 CURVE"
);
},
{
closed = 1;
nodes = (
"530 430 LINE",
"109 430 LINE",
"109 400 LINE",
"530 400 LINE"
);
},
{
closed = 1;
nodes = (
"324 0 LINE",
"324 700 LINE",
"257 700 LINE",
"257 0 LINE"
);
}
);
width = 744;
},
{
background = {
paths = (
{
closed = 1;
nodes = (
"745 177 LINE",
"365 177 LINE",
"365 0 LINE",
"745 0 LINE"
);
},
{
closed = 1;
nodes = (
"298 177 LINE",
"81 177 LINE",
"81 0 LINE",
"298 0 LINE"
);
},
{
closed = 1;
nodes = (
"170 147 LINE",
"170 265 OFFCURVE",
"170 362 OFFCURVE",
"170 410 CURVE SMOOTH",
"170 492 OFFCURVE",
"222 528 OFFCURVE",
"324 528 CURVE SMOOTH",
"339 528 OFFCURVE",
"333 528 OFFCURVE",
"418 528 CURVE",
"507 138 LINE",
"655 138 LINE",
"527 700 LINE",
"379 700 OFFCURVE",
"514 700 OFFCURVE",
"393 700 CURVE SMOOTH",
"237 700 OFFCURVE",
"140 617 OFFCURVE",
"140 478 CURVE SMOOTH",
"140 472 OFFCURVE",
"140 315 OFFCURVE",
"140 148 CURVE"
);
},
{
closed = 1;
nodes = (
"571 430 LINE",
"150 430 LINE",
"150 400 LINE",
"571 400 LINE"
);
}
);
};
guideLines = (
{
position = "{-122, 528}";
},
{
angle = 90;
position = "{805, 666}";
},
{
angle = 65.8642;
position = "{140, 148}";
},
{
angle = 65.8642;
position = "{246, 316}";
},
{
angle = 102.8307;
position = "{418, 528}";
},
{
angle = 102.7952;
position = "{604, 429}";
},
{
angle = 180;
position = "{459, 715}";
}
);
layerId = "A4F58C8D-8D17-43C2-93E4-A012F059F067";
paths = (
{
closed = 1;
nodes = (
"780 30 LINE",
"539 30 LINE",
"539 0 LINE",
"780 0 LINE"
);
},
{
closed = 1;
nodes = (
"280 30 LINE",
"40 30 LINE",
"40 0 LINE",
"280 0 LINE"
);
},
{
closed = 1;
nodes = (
"170 13 LINE",
"170 463 LINE",
"170 602 OFFCURVE",
"249 670 OFFCURVE",
"408 670 CURVE",
"503 670 LINE",
"654 10 LINE",
"683 17 LINE",
"527 700 LINE",
"408 700 LINE",
"233 700 OFFCURVE",
"140 619 OFFCURVE",
"140 463 CURVE",
"140 13 LINE"
);
},
{
closed = 1;
nodes = (
"574 430 LINE",
"150 430 LINE",
"150 400 LINE",
"574 400 LINE"
);
}
);
width = 820;
},
{
associatedMasterId = "A4F58C8D-8D17-43C2-93E4-A012F059F067";
background = {
components = (
{
name = S;
}
);
};
guideLines = (
{
angle = 90;
position = "{15, 321}";
},
{
angle = 90;
position = "{739, 666}";
},
{
angle = 65.8642;
position = "{74, 148}";
},
{
angle = 117.7753;
position = "{489, 138}";
},
{
angle = 65.8642;
position = "{180, 316}";
}
);
layerId = "F55FC0D9-A010-4A0D-BF9A-909EBAA46673";
name = "Feb 26 20, 09:26";
paths = (
{
closed = 1;
nodes = (
"739 179 LINE",
"382 179 LINE",
"382 2 LINE",
"739 2 LINE"
);
},
{
closed = 1;
nodes = (
"211 179 LINE",
"15 179 LINE",
"15 2 LINE",
"211 2 LINE"
);
},
{
closed = 1;
nodes = (
"104 147 LINE",
"255 484 LINE",
"279 537 LINE",
"307 484 LINE",
"489 138 LINE",
"659 138 LINE",
"363 700 LINE",
"321 700 LINE",
"74 148 LINE"
);
},
{
closed = 1;
nodes = (
"445 430 LINE",
"214 430 LINE",
"214 400 LINE",
"445 400 LINE"
);
},
{
closed = 1;
nodes = (
"256 519 LINE",
"298 519 LINE",
"278 559 LINE"
);
}
);
width = 754;
},
{
associatedMasterId = "A4F58C8D-8D17-43C2-93E4-A012F059F067";
background = {
components = (
{
name = R;
transform = "{1, 0, 0, 1, 25, 0}";
}
);
};
guideLines = (
{
position = "{-163, 528}";
},
{
angle = 90;
position = "{764, 666}";
},
{
angle = 65.8642;
position = "{99, 148}";
},
{
angle = 65.8642;
position = "{205, 316}";
},
{
angle = 102.8307;
position = "{377, 528}";
}
);
layerId = "DB761220-026A-4864-8D9B-E35DD17EBF18";
name = "Feb 29 20, 10:18";
paths = (
{
closed = 1;
nodes = (
"704 177 LINE",
"347 177 LINE",
"347 0 LINE",
"704 0 LINE"
);
},
{
closed = 1;
nodes = (
"236 177 LINE",
"40 177 LINE",
"40 0 LINE",
"236 0 LINE"
);
},
{
closed = 1;
nodes = (
"129 147 LINE",
"129 265 OFFCURVE",
"129 362 OFFCURVE",
"129 410 CURVE SMOOTH",
"129 492 OFFCURVE",
"181 528 OFFCURVE",
"283 528 CURVE SMOOTH",
"298 528 OFFCURVE",
"292 528 OFFCURVE",
"377 528 CURVE",
"466 138 LINE",
"614 138 LINE",
"486 700 LINE",
"338 700 OFFCURVE",
"473 700 OFFCURVE",
"352 700 CURVE SMOOTH",
"196 700 OFFCURVE",
"99 617 OFFCURVE",
"99 478 CURVE SMOOTH",
"99 472 OFFCURVE",
"99 315 OFFCURVE",
"99 148 CURVE"
);
},
{
closed = 1;
nodes = (
"530 430 LINE",
"109 430 LINE",
"109 400 LINE",
"530 400 LINE"
);
},
{
closed = 1;
nodes = (
"324 0 LINE",
"324 700 LINE",
"257 700 LINE",
"257 0 LINE"
);
}
);
width = 744;
},
{
associatedMasterId = "A4F58C8D-8D17-43C2-93E4-A012F059F067";
background = {
components = (
{
name = R;
transform = "{1, 0, 0, 1, 25, 0}";
}
);
};
guideLines = (
{
position = "{-163, 528}";
},
{
angle = 90;
position = "{764, 666}";
},
{
angle = 65.8642;
position = "{99, 148}";
},
{
angle = 65.8642;
position = "{205, 316}";
},
{
angle = 102.8307;
position = "{377, 528}";
}
);
layerId = "32257A86-C806-4003-98BC-EC05F5F81164";
name = "Jun 15 20, 23:24";
paths = (
{
closed = 1;
nodes = (
"704 177 LINE",
"324 177 LINE",
"324 0 LINE",
"704 0 LINE"
);
},
{
closed = 1;
nodes = (
"257 177 LINE",
"40 177 LINE",
"40 0 LINE",
"257 0 LINE"
);
},
{
closed = 1;
nodes = (
"129 147 LINE",
"129 265 OFFCURVE",
"129 362 OFFCURVE",
"129 410 CURVE SMOOTH",
"129 491 OFFCURVE",
"181 528 OFFCURVE",
"283 528 CURVE SMOOTH",
"298 528 OFFCURVE",
"292 528 OFFCURVE",
"377 528 CURVE",
"466 138 LINE",
"614 138 LINE",
"486 700 LINE",
"338 700 OFFCURVE",
"473 700 OFFCURVE",
"352 700 CURVE SMOOTH",
"196 700 OFFCURVE",
"99 617 OFFCURVE",
"99 478 CURVE SMOOTH",
"99 472 OFFCURVE",
"99 315 OFFCURVE",
"99 148 CURVE"
);
},
{
closed = 1;
nodes = (
"530 430 LINE",
"109 430 LINE",
"109 400 LINE",
"530 400 LINE"
);
}
);
width = 744;
}
);
leftKerningGroup = A;
rightKerningGroup = A;
unicode = "0041,0061";
},
{
glyphname = B;
lastChange = "2020-06-17 23:22:56 +0000";
layers = (
{
layerId = "66D417ED-19C2-41B2-B946-B4104EEC6A8E";
paths = (
{
closed = 1;
nodes = (
"234 166 LINE",
"234 588 LINE",
"204 588 LINE",
"204 166 LINE"
);
},
{
closed = 1;
nodes = (
"70 700 LINE",
"70 530 LINE",
"471 530 LINE SMOOTH",
"537 530 OFFCURVE",
"579 509 OFFCURVE",
"579 478 CURVE SMOOTH",
"579 461 OFFCURVE",
"570 430 OFFCURVE",
"500 430 CURVE SMOOTH",
"220 430 LINE",
"220 400 LINE",
"489 400 LINE SMOOTH",
"610 400 OFFCURVE",
"619 470 OFFCURVE",
"619 506 CURVE SMOOTH",
"619 619 OFFCURVE",
"534 700 OFFCURVE",
"358 700 CURVE SMOOTH"
);
},
{
closed = 1;
nodes = (
"566 1 OFFCURVE",
"671 98 OFFCURVE",
"671 261 CURVE SMOOTH",
"671 407 OFFCURVE",
"561 430 OFFCURVE",
"443 430 CURVE SMOOTH",
"222 430 LINE",
"222 400 LINE",
"442 400 LINE SMOOTH",
"575 400 OFFCURVE",
"637 356 OFFCURVE",
"637 296 CURVE SMOOTH",
"637 210 OFFCURVE",
"583 178 OFFCURVE",
"492 178 CURVE SMOOTH",
"70 178 LINE",
"70 1 LINE",
"390 1 LINE SMOOTH"
);
}
);
width = 731;
},
{
background = {
components = (
{
name = b;
transform = "{1, 0, 0, 1, 30, 0}";
}
);
};
layerId = "A4F58C8D-8D17-43C2-93E4-A012F059F067";
paths = (
{
closed = 1;
nodes = (
"234 16 LINE",
"234 678 LINE",
"204 678 LINE",
"204 16 LINE"
);
},
{
closed = 1;
nodes = (
"70 700 LINE",
"70 670 LINE",
"398 670 LINE SMOOTH",
"554 670 OFFCURVE",
"590 621 OFFCURVE",
"590 538 CURVE SMOOTH",
"590 465 OFFCURVE",
"507 430 OFFCURVE",
"429 430 CURVE SMOOTH",
"220 430 LINE",
"220 400 LINE",
"429 400 LINE SMOOTH",
"523 400 OFFCURVE",
"620 448 OFFCURVE",
"620 538 CURVE SMOOTH",
"620 639 OFFCURVE",
"570 700 OFFCURVE",
"398 700 CURVE SMOOTH"
);
},
{
closed = 1;
nodes = (
"585 0 OFFCURVE",
"673 74 OFFCURVE",
"672 216 CURVE SMOOTH",
"671 354 OFFCURVE",
"541 430 OFFCURVE",
"421 430 CURVE SMOOTH",
"220 430 LINE",
"220 400 LINE",
"421 400 LINE SMOOTH",
"572 400 OFFCURVE",
"641 306 OFFCURVE",
"642 216 CURVE SMOOTH",
"643 90 OFFCURVE",
"569 30 OFFCURVE",
"391 30 CURVE SMOOTH",
"70 30 LINE",
"70 0 LINE",
"391 0 LINE SMOOTH"
);
}
);
width = 732;
}
);
unicode = "0042,0062";
},
{
glyphname = C;
lastChange = "2020-06-18 00:42:52 +0000";
layers = (
{
guideLines = (
{
angle = 90;
position = "{661, 451}";
},
{
position = "{-1291, 338}";
},
{
position = "{-1444, 451}";
},
{
angle = 90;
position = "{351, 698}";
},
{
angle = 90;
position = "{630, 560}";
}
);
layerId = "66D417ED-19C2-41B2-B946-B4104EEC6A8E";
paths = (
{
closed = 1;
nodes = (
"480 530 OFFCURVE",
"561 455 OFFCURVE",
"580 400 CURVE",
"796 400 LINE",
"796 700 LINE",
"559 700 LINE",
"623 632 OFFCURVE",
"650 518 OFFCURVE",
"657 451 CURVE",
"641 451 LINE",
"607 556 OFFCURVE",
"543 703 OFFCURVE",
"346 703 CURVE SMOOTH",
"179 703 OFFCURVE",
"60 558 OFFCURVE",
"60 374 CURVE SMOOTH",
"60 335 LINE SMOOTH",
"60 239 OFFCURVE",
"128 2 OFFCURVE",
"386 2 CURVE SMOOTH",
"591 2 OFFCURVE",
"712 191 OFFCURVE",
"730 338 CURVE",
"668 338 LINE",
"649 283 OFFCURVE",
"528 179 OFFCURVE",
"367 179 CURVE SMOOTH",
"246 179 OFFCURVE",
"90 202 OFFCURVE",
"90 348 CURVE SMOOTH",
"90 368 LINE SMOOTH",
"90 479 OFFCURVE",
"210 530 OFFCURVE",
"327 530 CURVE SMOOTH"
);
}
);
width = 866;
},
{
associatedMasterId = "66D417ED-19C2-41B2-B946-B4104EEC6A8E";
guideLines = (
{
angle = 90;
position = "{616, 451}";
},
{
position = "{-1336, 338}";
},
{
position = "{-1489, 451}";
},
{
angle = 90;
position = "{306, 698}";
},
{
angle = 90;
position = "{585, 560}";
}
);
layerId = "10EDC7E7-C3C4-4D41-ABD6-56166AF4F567";
name = "Feb 26 20, 09:56";
paths = (
{
closed = 1;
nodes = (
"435 530 OFFCURVE",
"516 455 OFFCURVE",
"535 400 CURVE",
"751 400 LINE",
"751 700 LINE",
"514 700 LINE",
"578 632 OFFCURVE",
"605 518 OFFCURVE",
"612 451 CURVE",
"596 451 LINE",
"562 556 OFFCURVE",
"498 703 OFFCURVE",
"301 703 CURVE SMOOTH",
"134 703 OFFCURVE",
"15 558 OFFCURVE",
"15 374 CURVE SMOOTH",
"15 335 LINE SMOOTH",
"15 239 OFFCURVE",
"83 2 OFFCURVE",
"341 2 CURVE SMOOTH",
"586 2 OFFCURVE",
"667 191 OFFCURVE",
"685 338 CURVE",
"623 338 LINE",
"604 283 OFFCURVE",
"523 179 OFFCURVE",
"322 179 CURVE SMOOTH",
"201 179 OFFCURVE",
"45 202 OFFCURVE",
"45 348 CURVE SMOOTH",
"45 368 LINE SMOOTH",
"45 479 OFFCURVE",
"165 530 OFFCURVE",
"282 530 CURVE SMOOTH"
);
}
);
width = 766;
},
{
guideLines = (
{
angle = 90;
position = "{661, 451}";
},
{
position = "{-1291, 338}";
},
{
position = "{-1444, 451}";
},
{
angle = 90;
position = "{351, 698}";
},
{
angle = 90;
position = "{630, 560}";
}
);
layerId = "A4F58C8D-8D17-43C2-93E4-A012F059F067";
paths = (
{
closed = 1;
nodes = (
"468 670 OFFCURVE",
"578 585 OFFCURVE",
"620 418 CURVE",
"672 418 LINE",
"672 700 LINE",
"642 700 LINE",
"642 605 OFFCURVE",
"642 515 OFFCURVE",
"642 448 CURVE",
"641 448 LINE",
"607 553 OFFCURVE",
"543 700 OFFCURVE",
"346 700 CURVE SMOOTH",
"179 700 OFFCURVE",
"60 555 OFFCURVE",
"60 371 CURVE SMOOTH",
"60 332 LINE SMOOTH",
"60 236 OFFCURVE",
"107 0 OFFCURVE",
"366 0 CURVE SMOOTH",
"524 0 OFFCURVE",
"665 121 OFFCURVE",
"665 288 CURVE",
"635 288 LINE",
"635 88 OFFCURVE",
"441 30 OFFCURVE",
"366 30 CURVE SMOOTH",
"194 30 OFFCURVE",
"90 164 OFFCURVE",
"90 345 CURVE SMOOTH",
"90 365 LINE SMOOTH",
"90 517 OFFCURVE",
"179 670 OFFCURVE",
"346 670 CURVE SMOOTH"
);
}
);
width = 742;
},
{
associatedMasterId = "A4F58C8D-8D17-43C2-93E4-A012F059F067";
guideLines = (
{
angle = 90;
position = "{616, 451}";
},
{
position = "{-1336, 338}";
},
{
position = "{-1489, 451}";
},
{
angle = 90;
position = "{306, 698}";
},
{
angle = 90;
position = "{585, 560}";
}
);
layerId = "9DABC421-2229-4160-A5B2-E70BBEF69513";
name = "Feb 26 20, 09:56";
paths = (
{
closed = 1;
nodes = (
"435 530 OFFCURVE",
"516 455 OFFCURVE",
"535 400 CURVE",
"751 400 LINE",
"751 700 LINE",
"514 700 LINE",
"578 632 OFFCURVE",
"605 518 OFFCURVE",
"612 451 CURVE",
"596 451 LINE",
"562 556 OFFCURVE",
"498 703 OFFCURVE",
"301 703 CURVE SMOOTH",
"134 703 OFFCURVE",
"15 558 OFFCURVE",
"15 374 CURVE SMOOTH",
"15 335 LINE SMOOTH",
"15 239 OFFCURVE",
"83 2 OFFCURVE",
"341 2 CURVE SMOOTH",
"586 2 OFFCURVE",
"667 191 OFFCURVE",
"685 338 CURVE",
"623 338 LINE",
"604 283 OFFCURVE",
"523 179 OFFCURVE",
"322 179 CURVE SMOOTH",
"201 179 OFFCURVE",
"45 202 OFFCURVE",
"45 348 CURVE SMOOTH",
"45 368 LINE SMOOTH",
"45 479 OFFCURVE",
"165 530 OFFCURVE",
"282 530 CURVE SMOOTH"
);
}
);
width = 766;
}
);
leftKerningGroup = C;
unicode = "0043,0063";
},
{
glyphname = D;
lastChange = "2020-06-17 23:22:56 +0000";
layers = (
{
background = {
components = (
{
name = E;
transform = "{1, 0, 0, 1, 40, 0}";
}
);
};
layerId = "66D417ED-19C2-41B2-B946-B4104EEC6A8E";
paths = (
{
closed = 1;
nodes = (
"300 146 LINE",
"300 548 LINE",
"270 548 LINE",
"270 146 LINE"
);
},
{
closed = 1;
nodes = (
"70 703 LINE",
"70 530 LINE",
"340 530 LINE SMOOTH",
"546 530 OFFCURVE",
"663 479 OFFCURVE",
"663 369 CURVE SMOOTH",
"663 352 LINE SMOOTH",
"663 202 OFFCURVE",
"506 180 OFFCURVE",
"340 180 CURVE SMOOTH",
"70 180 LINE",
"70 3 LINE",
"344 2 LINE SMOOTH",
"677 1 OFFCURVE",
"693 269 OFFCURVE",
"693 346 CURVE SMOOTH",
"693 375 LINE SMOOTH",
"693 529 OFFCURVE",
"573 703 OFFCURVE",
"340 703 CURVE SMOOTH"
);
}
);
width = 743;
},
{
background = {
components = (
{
name = E;
transform = "{1, 0, 0, 1, 40, 0}";
}
);
};
layerId = "A4F58C8D-8D17-43C2-93E4-A012F059F067";
paths = (
{
closed = 1;
nodes = (
"250 26 LINE",
"250 688 LINE",
"220 688 LINE",
"220 26 LINE"
);
},
{
closed = 1;
nodes = (
"70 703 LINE",
"70 673 LINE",
"370 673 LINE SMOOTH",
"514 673 OFFCURVE",
"663 553 OFFCURVE",
"663 369 CURVE SMOOTH",
"663 352 LINE SMOOTH",
"663 112 OFFCURVE",
"520 33 OFFCURVE",
"370 33 CURVE SMOOTH",
"70 33 LINE",
"70 3 LINE",
"374 2 LINE SMOOTH",
"607 1 OFFCURVE",
"693 162 OFFCURVE",
"693 346 CURVE SMOOTH",
"693 375 LINE SMOOTH",
"693 529 OFFCURVE",
"573 703 OFFCURVE",
"370 703 CURVE SMOOTH"
);
}
);
width = 743;
},
{
associatedMasterId = "A4F58C8D-8D17-43C2-93E4-A012F059F067";
background = {
components = (
{
name = E;
transform = "{1, 0, 0, 1, 10, 0}";
}
);
};
layerId = "AEA156BE-42DC-48F5-8F9B-37A96AA286CE";
name = "Jun 16 20, 02:00";
paths = (
{
closed = 1;
nodes = (
"270 26 LINE",
"270 688 LINE",
"240 688 LINE",
"240 26 LINE"
);
},
{
closed = 1;
nodes = (
"40 703 LINE",
"40 673 LINE",
"310 673 LINE SMOOTH",
"484 673 OFFCURVE",
"633 553 OFFCURVE",
"633 369 CURVE SMOOTH",
"633 352 LINE SMOOTH",
"633 112 OFFCURVE",
"490 33 OFFCURVE",
"310 33 CURVE SMOOTH",
"40 33 LINE",
"40 3 LINE",
"314 2 LINE SMOOTH",
"577 1 OFFCURVE",
"663 162 OFFCURVE",
"663 346 CURVE SMOOTH",
"663 375 LINE SMOOTH",
"663 529 OFFCURVE",
"543 703 OFFCURVE",
"310 703 CURVE SMOOTH"
);
}
);
width = 703;
}
);
unicode = "0044,0064";
},
{
glyphname = E;
lastChange = "2020-06-18 00:43:05 +0000";
layers = (
{
guideLines = (
{
position = "{-314, 329}";
}
);
layerId = "66D417ED-19C2-41B2-B946-B4104EEC6A8E";
paths = (
{
closed = 1;
nodes = (
"480 530 OFFCURVE",
"561 455 OFFCURVE",
"580 400 CURVE",
"796 400 LINE",
"796 700 LINE",
"559 700 LINE",
"623 632 OFFCURVE",
"650 518 OFFCURVE",
"657 451 CURVE",
"641 451 LINE",
"607 556 OFFCURVE",
"543 703 OFFCURVE",
"346 703 CURVE SMOOTH",
"179 703 OFFCURVE",
"60 558 OFFCURVE",
"60 374 CURVE SMOOTH",
"60 335 LINE SMOOTH",
"60 239 OFFCURVE",
"129 2 OFFCURVE",
"386 2 CURVE SMOOTH",
"591 2 OFFCURVE",
"712 191 OFFCURVE",
"730 338 CURVE",
"668 338 LINE",
"649 283 OFFCURVE",
"528 179 OFFCURVE",
"367 179 CURVE SMOOTH",
"246 179 OFFCURVE",
"90 202 OFFCURVE",
"90 348 CURVE SMOOTH",
"90 368 LINE SMOOTH",
"90 479 OFFCURVE",
"210 530 OFFCURVE",
"327 530 CURVE SMOOTH"
);
},
{
closed = 1;
nodes = (
"310 430 LINE",
"79 430 LINE",
"79 400 LINE",
"310 400 LINE"
);
}
);
width = 866;
},
{
associatedMasterId = "66D417ED-19C2-41B2-B946-B4104EEC6A8E";
guideLines = (
{
angle = 90;
position = "{623, 544}";
},
{
position = "{-38, 399}";
}
);
layerId = "218F4310-5911-476C-832C-2BBF8DD3813E";
name = "Feb 25 20, 20:24";
paths = (
{
closed = 1;
nodes = (
"623 0 LINE",
"623 338 LINE",
"411 338 LINE",
"411 211 LINE",
"506 201 OFFCURVE",
"547 163 OFFCURVE",
"572 116 CURVE",
"572 99 LINE",
"534 143 OFFCURVE",
"427 177 OFFCURVE",
"327 177 CURVE",
"170 177 LINE",
"20 177 LINE",
"20 0 LINE"
);
},
{
closed = 1;
nodes = (
"170 145 LINE",
"170 547 LINE",
"140 547 LINE",
"140 145 LINE"
);
},
{
closed = 1;
nodes = (
"20 527 LINE",
"170 527 LINE",
"317 527 LINE",
"413 527 OFFCURVE",
"534 561 OFFCURVE",
"572 605 CURVE",
"572 588 LINE",
"547 543 OFFCURVE",
"475 504 OFFCURVE",
"410 493 CURVE",
"410 399 LINE",
"623 399 LINE",
"623 700 LINE",
"20 700 LINE"
);
},
{
closed = 1;
nodes = (
"296 413 LINE",
"149 413 LINE",
"149 383 LINE",
"296 383 LINE"
);
}
);
width = 643;
},
{
associatedMasterId = "66D417ED-19C2-41B2-B946-B4104EEC6A8E";
backgroundImage = {
crop = "{{0, 0}, {205, 249}}";
imagePath = "/var/folders/tm/rkrnlk4d1clcd784ky_5jzgw0000gn/T/TemporaryItems/(A Document Being Saved By screencaptureui 11)/Screen Shot 2020-02-25 at 8.11.20 PM.png";
locked = "1";
transform = "{3.49057, 0, 0, 3.49057, -50.534, -101}";
};
layerId = "188163EF-5F4E-4D97-BBB3-49B8797FD5C3";
name = "Feb 25 20, 20:29";
paths = (
{
closed = 1;
nodes = (
"30 527 LINE",
"180 527 LINE",
"377 527 LINE",
"483 527 OFFCURVE",
"520 529 OFFCURVE",
"558 563 CURVE",
"558 548 LINE",
"533 515 OFFCURVE",
"502 504 OFFCURVE",
"457 503 CURVE",
"456 366 LINE",
"595 366 LINE",
"595 704 LINE",
"30 702 LINE"
);
},
{
closed = 1;
nodes = (
"150 157 LINE",
"180 157 LINE",
"180 559 LINE",
"150 559 LINE"
);
},
{
closed = 1;
nodes = (
"619 0 LINE",
"619 321 LINE",
"456 321 LINE",
"457 201 LINE",
"502 200 OFFCURVE",
"557 189 OFFCURVE",
"582 156 CURVE",
"582 141 LINE",
"544 175 OFFCURVE",
"483 177 OFFCURVE",
"377 177 CURVE",
"180 177 LINE",
"30 177 LINE",
"30 2 LINE"
);
},
{
closed = 1;
nodes = (
"269 417 LINE",
"291 383 OFFCURVE",
"343 382 OFFCURVE",
"357 403 CURVE",
"357 386 LINE",
"336 365 OFFCURVE",
"309 362 OFFCURVE",
"254 362 CURVE",
"162 362 LINE",
"162 343 LINE",
"254 343 LINE",
"309 343 OFFCURVE",
"336 340 OFFCURVE",
"357 319 CURVE",
"357 302 LINE",
"343 323 OFFCURVE",
"291 322 OFFCURVE",
"269 288 CURVE",
"269 240 LINE",
"377 240 LINE",
"377 465 LINE",
"269 465 LINE"
);
}
);
width = 600;
},
{
associatedMasterId = "66D417ED-19C2-41B2-B946-B4104EEC6A8E";
layerId = "360F59AD-EB5B-4E48-A369-3AC124BE6E06";
name = "Feb 25 20, 21:02";
paths = (
{
closed = 1;
nodes = (
"20 527 LINE",
"170 527 LINE",
"367 527 LINE",
"473 527 OFFCURVE",
"510 529 OFFCURVE",
"548 563 CURVE",
"548 548 LINE",
"523 515 OFFCURVE",
"492 504 OFFCURVE",
"447 503 CURVE",
"446 366 LINE",
"599 366 LINE",
"599 704 LINE",
"20 702 LINE"
);
},
{
closed = 1;
nodes = (
"140 157 LINE",
"170 157 LINE",
"170 559 LINE",
"140 559 LINE"
);
},
{
closed = 1;
nodes = (
"623 0 LINE",
"623 321 LINE",
"446 321 LINE",
"447 201 LINE",
"492 200 OFFCURVE",
"547 189 OFFCURVE",
"572 156 CURVE",
"572 141 LINE",
"534 175 OFFCURVE",
"473 177 OFFCURVE",
"367 177 CURVE",
"170 177 LINE",
"20 177 LINE",
"20 2 LINE"
);
},
{
closed = 1;
nodes = (
"367 280 LINE",
"367 422 LINE",
"307 422 LINE",
"307 395 LINE",
"286 374 OFFCURVE",
"259 371 OFFCURVE",
"204 371 CURVE",
"152 371 LINE",
"152 331 LINE",
"204 331 LINE",
"259 331 OFFCURVE",
"286 328 OFFCURVE",
"307 307 CURVE",
"307 280 LINE"
);
}
);
width = 643;
},
{
associatedMasterId = "66D417ED-19C2-41B2-B946-B4104EEC6A8E";
layerId = "AB48C94F-2BFC-4919-B578-6EBFC270C587";
name = "Feb 25 20, 21:15";
paths = (
{
closed = 1;
nodes = (
"599 0 LINE",
"599 338 LINE",
"416 338 LINE",
"417 201 LINE",
"482 195 OFFCURVE",
"523 173 OFFCURVE",
"548 136 CURVE",
"548 121 LINE",
"510 155 OFFCURVE",
"433 177 OFFCURVE",
"267 177 CURVE",
"170 177 LINE",
"20 177 LINE",
"20 2 LINE"
);
},
{
closed = 1;
nodes = (
"170 145 LINE",
"170 547 LINE",
"140 547 LINE",
"140 145 LINE"
);
},
{
closed = 1;
nodes = (
"344 587 LINE",
"351 587 LINE",
"386 562 OFFCURVE",
"409 497 OFFCURVE",
"416 462 CURVE",
"536 461 LINE",
"536 638 LINE",
"345 638 LINE"
);
},
{
closed = 1;
nodes = (
"286 376 OFFCURVE",
"259 373 OFFCURVE",
"204 373 CURVE",
"152 373 LINE",
"152 333 LINE",
"204 333 LINE",
"259 333 OFFCURVE",
"286 330 OFFCURVE",
"307 309 CURVE",
"337 309 LINE",
"337 397 LINE",
"307 397 LINE"
);
},
{
closed = 1;
nodes = (
"443 703 LINE",
"20 702 LINE",
"20 527 LINE",
"170 527 LINE",
"267 527 LINE",
"443 527 LINE"
);
}
);
width = 643;
},
{
associatedMasterId = "66D417ED-19C2-41B2-B946-B4104EEC6A8E";
backgroundImage = {
crop = "{{0, 0}, {205, 249}}";
imagePath = "/var/folders/tm/rkrnlk4d1clcd784ky_5jzgw0000gn/T/TemporaryItems/(A Document Being Saved By screencaptureui 11)/Screen Shot 2020-02-25 at 8.11.20 PM.png";
locked = "1";
transform = "{3.49057, 0, 0, 3.49057, -50.534, -101}";
};
layerId = "A762D8FB-F317-481A-8688-88EC0D9DD92A";
name = "Feb 25 20, 21:48";
paths = (
{
closed = 1;
nodes = (
"30 527 LINE",
"180 527 LINE",
"377 527 LINE",
"483 527 OFFCURVE",
"520 529 OFFCURVE",
"558 563 CURVE",
"558 548 LINE",
"533 515 OFFCURVE",
"502 504 OFFCURVE",
"457 503 CURVE",
"456 367 LINE",
"595 367 LINE",
"595 704 LINE",
"30 702 LINE"
);
},
{
closed = 1;
nodes = (
"150 157 LINE",
"180 157 LINE",
"180 559 LINE",
"150 559 LINE"
);
},
{
closed = 1;
nodes = (
"619 0 LINE",
"619 322 LINE",
"456 322 LINE",
"457 201 LINE",
"502 200 OFFCURVE",
"557 189 OFFCURVE",
"582 156 CURVE",
"582 141 LINE",
"544 175 OFFCURVE",
"483 177 OFFCURVE",
"377 177 CURVE",
"180 177 LINE",
"30 177 LINE",
"30 2 LINE"
);
},
{
closed = 1;
nodes = (
"168 365 LINE",
"168 345 LINE",
"362 345 LINE",
"362 328 LINE",
"347 285 OFFCURVE",
"299 266 OFFCURVE",
"251 258 CURVE",
"251 238 LINE",
"378 238 LINE",
"378 365 LINE"
);
},
{
closed = 1;
nodes = (
"378 472 LINE",
"251 472 LINE",
"251 452 LINE",
"299 444 OFFCURVE",
"347 425 OFFCURVE",
"362 382 CURVE",
"362 365 LINE",
"168 365 LINE",
"168 345 LINE",
"378 345 LINE"
);
}
);
width = 600;
},
{
associatedMasterId = "66D417ED-19C2-41B2-B946-B4104EEC6A8E";
layerId = "09029408-7B1F-4E59-ADC3-BB046216A2CC";
name = "Feb 25 20, 22:25";
paths = (
{
closed = 1;
nodes = (
"623 0 LINE",
"623 338 LINE",
"411 338 LINE",
"411 211 LINE",
"506 201 OFFCURVE",
"547 163 OFFCURVE",
"572 116 CURVE",
"572 99 LINE",
"534 143 OFFCURVE",
"427 177 OFFCURVE",
"327 177 CURVE",
"170 177 LINE",
"20 177 LINE",
"20 0 LINE"
);
},
{
closed = 1;
nodes = (
"170 145 LINE",
"170 547 LINE",
"140 547 LINE",
"140 145 LINE"
);
},
{
closed = 1;
nodes = (
"20 527 LINE",
"170 527 LINE",
"317 527 LINE",
"413 527 OFFCURVE",
"534 561 OFFCURVE",
"572 605 CURVE",
"572 588 LINE",
"547 543 OFFCURVE",
"475 504 OFFCURVE",
"410 493 CURVE",
"410 399 LINE",
"623 399 LINE",
"623 700 LINE",
"20 700 LINE"
);
},
{
closed = 1;
nodes = (
"296 413 LINE",
"149 413 LINE",
"149 383 LINE",
"296 383 LINE"
);
}
);
width = 643;
},
{
associatedMasterId = "66D417ED-19C2-41B2-B946-B4104EEC6A8E";
guideLines = (
{
position = "{-359, 329}";
}
);
layerId = "1D96FB74-C467-48B9-AD1A-ED31BE414ED8";
name = "Feb 25 20, 22:50";
paths = (
{
closed = 1;
nodes = (
"265 430 LINE",
"34 430 LINE",
"34 400 LINE",
"265 400 LINE"
);
},
{
closed = 1;
nodes = (
"435 530 OFFCURVE",
"516 455 OFFCURVE",
"535 400 CURVE",
"751 400 LINE",
"751 700 LINE",
"514 700 LINE",
"578 632 OFFCURVE",
"605 518 OFFCURVE",
"612 451 CURVE",
"596 451 LINE",
"562 556 OFFCURVE",
"498 703 OFFCURVE",
"301 703 CURVE SMOOTH",
"134 703 OFFCURVE",
"15 558 OFFCURVE",
"15 374 CURVE SMOOTH",
"15 335 LINE SMOOTH",
"15 239 OFFCURVE",
"83 2 OFFCURVE",
"341 2 CURVE SMOOTH",
"586 2 OFFCURVE",
"667 191 OFFCURVE",
"685 338 CURVE",
"623 338 LINE",
"604 283 OFFCURVE",
"523 180 OFFCURVE",
"322 180 CURVE SMOOTH",
"201 180 OFFCURVE",
"45 202 OFFCURVE",
"45 348 CURVE SMOOTH",
"45 368 LINE SMOOTH",
"45 479 OFFCURVE",
"165 530 OFFCURVE",
"282 530 CURVE SMOOTH"
);
}
);
width = 766;
},
{
associatedMasterId = "66D417ED-19C2-41B2-B946-B4104EEC6A8E";
guideLines = (
{
position = "{-359, 329}";
}
);
layerId = "47C14DCD-479F-444A-9387-57397ACABC1A";
name = "Feb 25 20, 22:50";
paths = (
{
closed = 1;
nodes = (
"265 359 LINE",
"34 359 LINE",
"34 329 LINE",
"265 329 LINE"
);
},
{
closed = 1;
nodes = (
"435 530 OFFCURVE",
"516 455 OFFCURVE",
"535 400 CURVE",
"751 400 LINE",
"751 700 LINE",
"514 700 LINE",
"578 632 OFFCURVE",
"605 518 OFFCURVE",
"612 451 CURVE",
"596 451 LINE",
"562 556 OFFCURVE",
"498 703 OFFCURVE",
"301 703 CURVE SMOOTH",
"134 703 OFFCURVE",
"15 558 OFFCURVE",
"15 374 CURVE SMOOTH",
"15 335 LINE SMOOTH",
"15 239 OFFCURVE",
"83 2 OFFCURVE",
"341 2 CURVE SMOOTH",
"586 2 OFFCURVE",
"667 191 OFFCURVE",
"685 338 CURVE",
"623 338 LINE",
"604 283 OFFCURVE",
"523 180 OFFCURVE",
"322 180 CURVE SMOOTH",
"201 180 OFFCURVE",
"45 202 OFFCURVE",
"45 348 CURVE SMOOTH",
"45 368 LINE SMOOTH",
"45 479 OFFCURVE",
"165 530 OFFCURVE",
"282 530 CURVE SMOOTH"
);
}
);
width = 766;
},
{
guideLines = (
{
position = "{-314, 329}";
}
);
layerId = "A4F58C8D-8D17-43C2-93E4-A012F059F067";
paths = (
{
closed = 1;
nodes = (
"468 670 OFFCURVE",
"578 585 OFFCURVE",
"620 418 CURVE",
"672 418 LINE",
"672 700 LINE",
"642 700 LINE",
"642 605 OFFCURVE",
"642 515 OFFCURVE",
"642 448 CURVE",
"641 448 LINE",
"607 553 OFFCURVE",
"543 700 OFFCURVE",
"346 700 CURVE SMOOTH",
"179 700 OFFCURVE",
"60 555 OFFCURVE",
"60 371 CURVE SMOOTH",
"60 332 LINE SMOOTH",
"60 236 OFFCURVE",
"107 0 OFFCURVE",
"366 0 CURVE SMOOTH",
"524 0 OFFCURVE",
"665 121 OFFCURVE",
"665 288 CURVE",
"635 288 LINE",
"635 88 OFFCURVE",
"441 30 OFFCURVE",
"366 30 CURVE SMOOTH",
"194 30 OFFCURVE",
"90 164 OFFCURVE",
"90 345 CURVE SMOOTH",
"90 365 LINE SMOOTH",
"90 517 OFFCURVE",
"179 670 OFFCURVE",
"346 670 CURVE SMOOTH"
);
},
{
closed = 1;
nodes = (
"310 430 LINE",
"79 430 LINE",
"79 400 LINE",
"310 400 LINE"
);
}
);
width = 742;
},
{
associatedMasterId = "A4F58C8D-8D17-43C2-93E4-A012F059F067";
guideLines = (
{
angle = 90;
position = "{623, 544}";
},
{
position = "{-38, 399}";
}
);
layerId = "E18A3902-D187-494B-975F-ECF4EBD0D966";
name = "Feb 25 20, 20:24";
paths = (
{
closed = 1;
nodes = (
"623 0 LINE",
"623 338 LINE",
"411 338 LINE",
"411 211 LINE",
"506 201 OFFCURVE",
"547 163 OFFCURVE",
"572 116 CURVE",
"572 99 LINE",
"534 143 OFFCURVE",
"427 177 OFFCURVE",
"327 177 CURVE",
"170 177 LINE",
"20 177 LINE",
"20 0 LINE"
);
},
{
closed = 1;
nodes = (
"170 145 LINE",
"170 547 LINE",
"140 547 LINE",
"140 145 LINE"
);
},
{
closed = 1;
nodes = (
"20 527 LINE",
"170 527 LINE",
"317 527 LINE",
"413 527 OFFCURVE",
"534 561 OFFCURVE",
"572 605 CURVE",
"572 588 LINE",
"547 543 OFFCURVE",
"475 504 OFFCURVE",
"410 493 CURVE",
"410 399 LINE",
"623 399 LINE",
"623 700 LINE",
"20 700 LINE"
);
},
{
closed = 1;
nodes = (
"296 413 LINE",
"149 413 LINE",
"149 383 LINE",
"296 383 LINE"
);
}
);
width = 643;
},
{
associatedMasterId = "A4F58C8D-8D17-43C2-93E4-A012F059F067";
backgroundImage = {
crop = "{{0, 0}, {205, 249}}";
imagePath = "/var/folders/tm/rkrnlk4d1clcd784ky_5jzgw0000gn/T/TemporaryItems/(A Document Being Saved By screencaptureui 11)/Screen Shot 2020-02-25 at 8.11.20 PM.png";
locked = "1";
transform = "{3.49057, 0, 0, 3.49057, -50.534, -101}";
};
layerId = "DF94ECC2-1444-4C17-B94A-B9A691919CDB";
name = "Feb 25 20, 20:29";
paths = (
{
closed = 1;
nodes = (
"30 527 LINE",
"180 527 LINE",
"377 527 LINE",
"483 527 OFFCURVE",
"520 529 OFFCURVE",
"558 563 CURVE",
"558 548 LINE",
"533 515 OFFCURVE",
"502 504 OFFCURVE",
"457 503 CURVE",
"456 366 LINE",
"595 366 LINE",
"595 704 LINE",
"30 702 LINE"
);
},
{
closed = 1;
nodes = (
"150 157 LINE",
"180 157 LINE",
"180 559 LINE",
"150 559 LINE"
);
},
{
closed = 1;
nodes = (
"619 0 LINE",
"619 321 LINE",
"456 321 LINE",
"457 201 LINE",
"502 200 OFFCURVE",
"557 189 OFFCURVE",
"582 156 CURVE",
"582 141 LINE",
"544 175 OFFCURVE",
"483 177 OFFCURVE",
"377 177 CURVE",
"180 177 LINE",
"30 177 LINE",
"30 2 LINE"
);
},
{
closed = 1;
nodes = (
"269 417 LINE",
"291 383 OFFCURVE",
"343 382 OFFCURVE",
"357 403 CURVE",
"357 386 LINE",
"336 365 OFFCURVE",
"309 362 OFFCURVE",
"254 362 CURVE",
"162 362 LINE",
"162 343 LINE",
"254 343 LINE",
"309 343 OFFCURVE",
"336 340 OFFCURVE",
"357 319 CURVE",
"357 302 LINE",
"343 323 OFFCURVE",
"291 322 OFFCURVE",
"269 288 CURVE",
"269 240 LINE",
"377 240 LINE",
"377 465 LINE",
"269 465 LINE"
);
}
);
width = 600;
},
{
associatedMasterId = "A4F58C8D-8D17-43C2-93E4-A012F059F067";
layerId = "0DD5D717-3CDF-4AF7-AC33-EE23887DFD9F";
name = "Feb 25 20, 21:02";
paths = (
{
closed = 1;
nodes = (
"20 527 LINE",
"170 527 LINE",
"367 527 LINE",
"473 527 OFFCURVE",
"510 529 OFFCURVE",
"548 563 CURVE",
"548 548 LINE",
"523 515 OFFCURVE",
"492 504 OFFCURVE",
"447 503 CURVE",
"446 366 LINE",
"599 366 LINE",
"599 704 LINE",
"20 702 LINE"
);
},
{
closed = 1;
nodes = (
"140 157 LINE",
"170 157 LINE",
"170 559 LINE",
"140 559 LINE"
);
},
{
closed = 1;
nodes = (
"623 0 LINE",
"623 321 LINE",
"446 321 LINE",
"447 201 LINE",
"492 200 OFFCURVE",
"547 189 OFFCURVE",
"572 156 CURVE",
"572 141 LINE",
"534 175 OFFCURVE",
"473 177 OFFCURVE",
"367 177 CURVE",
"170 177 LINE",
"20 177 LINE",
"20 2 LINE"
);
},
{
closed = 1;
nodes = (
"367 280 LINE",
"367 422 LINE",
"307 422 LINE",
"307 395 LINE",
"286 374 OFFCURVE",
"259 371 OFFCURVE",
"204 371 CURVE",
"152 371 LINE",
"152 331 LINE",
"204 331 LINE",
"259 331 OFFCURVE",
"286 328 OFFCURVE",
"307 307 CURVE",
"307 280 LINE"
);
}
);
width = 643;
},
{
associatedMasterId = "A4F58C8D-8D17-43C2-93E4-A012F059F067";
layerId = "89B8F44A-7FAC-4B3F-8EF2-BD65AFE8072D";
name = "Feb 25 20, 21:15";
paths = (
{
closed = 1;
nodes = (
"599 0 LINE",
"599 338 LINE",
"416 338 LINE",
"417 201 LINE",
"482 195 OFFCURVE",
"523 173 OFFCURVE",
"548 136 CURVE",
"548 121 LINE",
"510 155 OFFCURVE",
"433 177 OFFCURVE",
"267 177 CURVE",
"170 177 LINE",
"20 177 LINE",
"20 2 LINE"
);
},
{
closed = 1;
nodes = (
"170 145 LINE",
"170 547 LINE",
"140 547 LINE",
"140 145 LINE"
);
},
{
closed = 1;
nodes = (
"344 587 LINE",
"351 587 LINE",
"386 562 OFFCURVE",
"409 497 OFFCURVE",
"416 462 CURVE",
"536 461 LINE",
"536 638 LINE",
"345 638 LINE"
);
},
{
closed = 1;
nodes = (
"286 376 OFFCURVE",
"259 373 OFFCURVE",
"204 373 CURVE",
"152 373 LINE",
"152 333 LINE",
"204 333 LINE",
"259 333 OFFCURVE",
"286 330 OFFCURVE",
"307 309 CURVE",
"337 309 LINE",
"337 397 LINE",
"307 397 LINE"
);
},
{
closed = 1;
nodes = (
"443 703 LINE",
"20 702 LINE",
"20 527 LINE",
"170 527 LINE",
"267 527 LINE",
"443 527 LINE"
);
}
);
width = 643;
},
{
associatedMasterId = "A4F58C8D-8D17-43C2-93E4-A012F059F067";
backgroundImage = {
crop = "{{0, 0}, {205, 249}}";
imagePath = "/var/folders/tm/rkrnlk4d1clcd784ky_5jzgw0000gn/T/TemporaryItems/(A Document Being Saved By screencaptureui 11)/Screen Shot 2020-02-25 at 8.11.20 PM.png";
locked = "1";
transform = "{3.49057, 0, 0, 3.49057, -50.534, -101}";
};
layerId = "97DB529A-4241-46C5-BB8B-8D8EFAEF19EB";
name = "Feb 25 20, 21:48";
paths = (
{
closed = 1;
nodes = (
"30 527 LINE",
"180 527 LINE",
"377 527 LINE",
"483 527 OFFCURVE",
"520 529 OFFCURVE",
"558 563 CURVE",
"558 548 LINE",
"533 515 OFFCURVE",
"502 504 OFFCURVE",
"457 503 CURVE",
"456 367 LINE",
"595 367 LINE",
"595 704 LINE",
"30 702 LINE"
);
},
{
closed = 1;
nodes = (
"150 157 LINE",
"180 157 LINE",
"180 559 LINE",
"150 559 LINE"
);
},
{
closed = 1;
nodes = (
"619 0 LINE",
"619 322 LINE",
"456 322 LINE",
"457 201 LINE",
"502 200 OFFCURVE",
"557 189 OFFCURVE",
"582 156 CURVE",
"582 141 LINE",
"544 175 OFFCURVE",
"483 177 OFFCURVE",
"377 177 CURVE",
"180 177 LINE",
"30 177 LINE",
"30 2 LINE"
);
},
{
closed = 1;
nodes = (
"168 365 LINE",
"168 345 LINE",
"362 345 LINE",
"362 328 LINE",
"347 285 OFFCURVE",
"299 266 OFFCURVE",
"251 258 CURVE",
"251 238 LINE",
"378 238 LINE",
"378 365 LINE"
);
},
{
closed = 1;
nodes = (
"378 472 LINE",
"251 472 LINE",
"251 452 LINE",
"299 444 OFFCURVE",
"347 425 OFFCURVE",
"362 382 CURVE",
"362 365 LINE",
"168 365 LINE",
"168 345 LINE",
"378 345 LINE"
);
}
);
width = 600;
},
{
associatedMasterId = "A4F58C8D-8D17-43C2-93E4-A012F059F067";
layerId = "2CF6ABE2-B9E5-476E-B59C-FD07B93A22A4";
name = "Feb 25 20, 22:25";
paths = (
{
closed = 1;
nodes = (
"623 0 LINE",
"623 338 LINE",
"411 338 LINE",
"411 211 LINE",
"506 201 OFFCURVE",
"547 163 OFFCURVE",
"572 116 CURVE",
"572 99 LINE",
"534 143 OFFCURVE",
"427 177 OFFCURVE",
"327 177 CURVE",
"170 177 LINE",
"20 177 LINE",
"20 0 LINE"
);
},
{
closed = 1;
nodes = (
"170 145 LINE",
"170 547 LINE",
"140 547 LINE",
"140 145 LINE"
);
},
{
closed = 1;
nodes = (
"20 527 LINE",
"170 527 LINE",
"317 527 LINE",
"413 527 OFFCURVE",
"534 561 OFFCURVE",
"572 605 CURVE",
"572 588 LINE",
"547 543 OFFCURVE",
"475 504 OFFCURVE",
"410 493 CURVE",
"410 399 LINE",
"623 399 LINE",
"623 700 LINE",
"20 700 LINE"
);
},
{
closed = 1;
nodes = (
"296 413 LINE",
"149 413 LINE",
"149 383 LINE",
"296 383 LINE"
);
}
);
width = 643;
},
{
associatedMasterId = "A4F58C8D-8D17-43C2-93E4-A012F059F067";
guideLines = (
{
position = "{-359, 329}";
}
);
layerId = "D83A821F-FE64-4AD2-A048-2A34FAACB3AD";
name = "Feb 25 20, 22:50";
paths = (
{
closed = 1;
nodes = (
"265 430 LINE",
"34 430 LINE",
"34 400 LINE",
"265 400 LINE"
);
},
{
closed = 1;
nodes = (
"435 530 OFFCURVE",
"516 455 OFFCURVE",
"535 400 CURVE",
"751 400 LINE",
"751 700 LINE",
"514 700 LINE",
"578 632 OFFCURVE",
"605 518 OFFCURVE",
"612 451 CURVE",
"596 451 LINE",
"562 556 OFFCURVE",
"498 703 OFFCURVE",
"301 703 CURVE SMOOTH",
"134 703 OFFCURVE",
"15 558 OFFCURVE",
"15 374 CURVE SMOOTH",
"15 335 LINE SMOOTH",
"15 239 OFFCURVE",
"83 2 OFFCURVE",
"341 2 CURVE SMOOTH",
"586 2 OFFCURVE",
"667 191 OFFCURVE",
"685 338 CURVE",
"623 338 LINE",
"604 283 OFFCURVE",
"523 180 OFFCURVE",
"322 180 CURVE SMOOTH",
"201 180 OFFCURVE",
"45 202 OFFCURVE",
"45 348 CURVE SMOOTH",
"45 368 LINE SMOOTH",
"45 479 OFFCURVE",
"165 530 OFFCURVE",
"282 530 CURVE SMOOTH"
);
}
);
width = 766;
},
{
associatedMasterId = "A4F58C8D-8D17-43C2-93E4-A012F059F067";
guideLines = (
{
position = "{-359, 329}";
}
);
layerId = "4733241E-A9E7-4C18-A621-42FDE792BB9D";
name = "Feb 25 20, 22:50";
paths = (
{
closed = 1;
nodes = (
"265 359 LINE",
"34 359 LINE",
"34 329 LINE",
"265 329 LINE"
);
},
{
closed = 1;
nodes = (
"435 530 OFFCURVE",
"516 455 OFFCURVE",
"535 400 CURVE",
"751 400 LINE",
"751 700 LINE",
"514 700 LINE",
"578 632 OFFCURVE",
"605 518 OFFCURVE",
"612 451 CURVE",
"596 451 LINE",
"562 556 OFFCURVE",
"498 703 OFFCURVE",
"301 703 CURVE SMOOTH",
"134 703 OFFCURVE",
"15 558 OFFCURVE",
"15 374 CURVE SMOOTH",
"15 335 LINE SMOOTH",
"15 239 OFFCURVE",
"83 2 OFFCURVE",
"341 2 CURVE SMOOTH",
"586 2 OFFCURVE",
"667 191 OFFCURVE",
"685 338 CURVE",
"623 338 LINE",
"604 283 OFFCURVE",
"523 180 OFFCURVE",
"322 180 CURVE SMOOTH",
"201 180 OFFCURVE",
"45 202 OFFCURVE",
"45 348 CURVE SMOOTH",
"45 368 LINE SMOOTH",
"45 479 OFFCURVE",
"165 530 OFFCURVE",
"282 530 CURVE SMOOTH"
);
}
);
width = 766;
}
);
leftKerningGroup = E;
unicode = "0045,0065";
},
{
glyphname = F;
lastChange = "2020-06-17 23:22:56 +0000";
layers = (
{
guideLines = (
{
angle = 270;
position = "{-210, 89}";
},
{
angle = 270;
position = "{50, 89}";
}
);
layerId = "66D417ED-19C2-41B2-B946-B4104EEC6A8E";
paths = (
{
closed = 1;
nodes = (
"50 414 OFFCURVE",
"84 400 OFFCURVE",
"160 400 CURVE",
"160 430 LINE",
"88 430 OFFCURVE",
"83 448 OFFCURVE",
"83 464 CURVE SMOOTH",
"83 497 OFFCURVE",
"164 506 OFFCURVE",
"236 506 CURVE SMOOTH",
"326 506 OFFCURVE",
"385 477 OFFCURVE",
"445 400 CURVE",
"624 400 LINE",
"624 700 LINE",
"387 700 LINE",
"451 630 OFFCURVE",
"485 539 OFFCURVE",
"495 451 CURVE",
"479 451 LINE",
"397 631 OFFCURVE",
"329 700 OFFCURVE",
"226 700 CURVE SMOOTH",
"83 700 OFFCURVE",
"50 549 OFFCURVE",
"50 482 CURVE SMOOTH"
);
},
{
closed = 1;
nodes = (
"50 0 LINE",
"467 0 LINE",
"467 177 LINE",
"50 177 LINE"
);
},
{
closed = 1;
nodes = (
"190 146 LINE",
"190 430 LINE",
"160 430 LINE",
"160 146 LINE"
);
},
{
closed = 1;
nodes = (
"355 430 LINE",
"167 430 LINE",
"167 400 LINE",
"355 400 LINE"
);
}
);
width = 664;
},
{
associatedMasterId = "66D417ED-19C2-41B2-B946-B4104EEC6A8E";
guideLines = (
{
angle = 270;
position = "{185, 89}";
}
);
layerId = "A33A3D4F-323E-4ED3-B669-3128A5E49BF8";
name = "Feb 26 20, 00:13";
paths = (
{
closed = 1;
nodes = (
"185 0 LINE",
"582 0 LINE",
"582 177 LINE",
"185 177 LINE"
);
},
{
closed = 1;
nodes = (
"407 146 LINE",
"407 661 LINE",
"377 661 LINE",
"377 146 LINE"
);
},
{
closed = 1;
nodes = (
"568 648 LINE",
"845 648 LINE",
"845 540 OFFCURVE",
"755 455 OFFCURVE",
"667 401 CURVE",
"973 401 LINE",
"973 699 LINE",
"568 699 LINE"
);
},
{
closed = 1;
nodes = (
"185 700 LINE",
"185 527 LINE",
"929 527 LINE",
"929 700 LINE"
);
},
{
closed = 1;
nodes = (
"581 430 LINE",
"384 430 LINE",
"384 400 LINE",
"581 400 LINE"
);
}
);
width = 1245;
},
{
guideLines = (
{
angle = 270;
position = "{-210, 89}";
},
{
angle = 270;
position = "{50, 89}";
}
);
layerId = "A4F58C8D-8D17-43C2-93E4-A012F059F067";
paths = (
{
closed = 1;
nodes = (
"50 414 OFFCURVE",
"84 400 OFFCURVE",
"160 400 CURVE",
"160 430 LINE",
"88 430 OFFCURVE",
"80 446 OFFCURVE",
"80 482 CURVE SMOOTH",
"80 596 OFFCURVE",
"142 670 OFFCURVE",
"246 670 CURVE SMOOTH",
"346 670 OFFCURVE",
"408 569 OFFCURVE",
"458 400 CURVE",
"508 400 LINE",
"508 700 LINE",
"478 700 LINE",
"478 630 OFFCURVE",
"478 518 OFFCURVE",
"478 430 CURVE",
"479 430 LINE",
"407 630 OFFCURVE",
"359 700 OFFCURVE",
"246 700 CURVE SMOOTH",
"83 700 OFFCURVE",
"50 549 OFFCURVE",
"50 482 CURVE SMOOTH"
);
},
{
closed = 1;
nodes = (
"50 0 LINE",
"467 0 LINE",
"467 30 LINE",
"50 30 LINE"
);
},
{
closed = 1;
nodes = (
"190 16 LINE",
"190 430 LINE",
"160 430 LINE",
"160 16 LINE"
);
},
{
closed = 1;
nodes = (
"355 430 LINE",
"167 430 LINE",
"167 400 LINE",
"355 400 LINE"
);
}
);
width = 548;
},
{
associatedMasterId = "A4F58C8D-8D17-43C2-93E4-A012F059F067";
guideLines = (
{
angle = 270;
position = "{185, 89}";
}
);
layerId = "49856EF5-E468-4317-9A5B-705968134CBE";
name = "Feb 26 20, 00:13";
paths = (
{
closed = 1;
nodes = (
"185 0 LINE",
"582 0 LINE",
"582 177 LINE",
"185 177 LINE"
);
},
{
closed = 1;
nodes = (
"407 146 LINE",
"407 661 LINE",
"377 661 LINE",
"377 146 LINE"
);
},
{
closed = 1;
nodes = (
"568 648 LINE",
"845 648 LINE",
"845 540 OFFCURVE",
"755 455 OFFCURVE",
"667 401 CURVE",
"973 401 LINE",
"973 699 LINE",
"568 699 LINE"
);
},
{
closed = 1;
nodes = (
"185 700 LINE",
"185 527 LINE",
"929 527 LINE",
"929 700 LINE"
);
},
{
closed = 1;
nodes = (
"581 430 LINE",
"384 430 LINE",
"384 400 LINE",
"581 400 LINE"
);
}
);
width = 1245;
}
);
unicode = "0046,0066";
},
{
glyphname = G;
lastChange = "2020-06-18 00:43:11 +0000";
layers = (
{
layerId = "66D417ED-19C2-41B2-B946-B4104EEC6A8E";
paths = (
{
closed = 1;
nodes = (
"480 530 OFFCURVE",
"561 455 OFFCURVE",
"580 400 CURVE",
"796 400 LINE",
"796 700 LINE",
"559 700 LINE",
"623 632 OFFCURVE",
"650 518 OFFCURVE",
"657 451 CURVE",
"641 451 LINE",
"607 556 OFFCURVE",
"543 703 OFFCURVE",
"346 703 CURVE SMOOTH",
"179 703 OFFCURVE",
"60 558 OFFCURVE",
"60 374 CURVE SMOOTH",
"60 335 LINE SMOOTH",
"60 239 OFFCURVE",
"128 2 OFFCURVE",
"388 2 CURVE SMOOTH",
"548 2 OFFCURVE",
"691 121 OFFCURVE",
"691 244 CURVE SMOOTH",
"691 305 OFFCURVE",
"658 358 OFFCURVE",
"550 358 CURVE SMOOTH",
"326 358 LINE",
"326 328 LINE",
"500 328 LINE SMOOTH",
"583 328 OFFCURVE",
"632 321 OFFCURVE",
"632 284 CURVE SMOOTH",
"632 194 OFFCURVE",
"456 179 OFFCURVE",
"367 179 CURVE SMOOTH",
"246 179 OFFCURVE",
"90 202 OFFCURVE",
"90 348 CURVE SMOOTH",
"90 368 LINE SMOOTH",
"90 479 OFFCURVE",
"210 530 OFFCURVE",
"327 530 CURVE SMOOTH"
);
}
);
width = 866;
},
{
associatedMasterId = "66D417ED-19C2-41B2-B946-B4104EEC6A8E";
layerId = "76967291-C13A-4A7F-9B04-D666BA2AAD8D";
name = "Feb 28 20, 22:14";
paths = (
{
closed = 1;
nodes = (
"460 530 OFFCURVE",
"541 455 OFFCURVE",
"560 400 CURVE",
"776 400 LINE",
"776 700 LINE",
"539 700 LINE",
"603 632 OFFCURVE",
"630 518 OFFCURVE",
"637 451 CURVE",
"621 451 LINE",
"587 556 OFFCURVE",
"523 703 OFFCURVE",
"326 703 CURVE SMOOTH",
"159 703 OFFCURVE",
"40 558 OFFCURVE",
"40 374 CURVE SMOOTH",
"40 335 LINE SMOOTH",
"40 239 OFFCURVE",
"108 2 OFFCURVE",
"386 2 CURVE SMOOTH",
"518 2 OFFCURVE",
"671 81 OFFCURVE",
"671 214 CURVE SMOOTH",
"671 265 OFFCURVE",
"648 338 OFFCURVE",
"530 338 CURVE SMOOTH",
"306 338 LINE",
"306 308 LINE",
"480 308 LINE SMOOTH",
"563 308 OFFCURVE",
"612 301 OFFCURVE",
"612 274 CURVE SMOOTH",
"612 204 OFFCURVE",
"416 179 OFFCURVE",
"347 179 CURVE SMOOTH",
"226 179 OFFCURVE",
"70 202 OFFCURVE",
"70 348 CURVE SMOOTH",
"70 368 LINE SMOOTH",
"70 479 OFFCURVE",
"190 530 OFFCURVE",
"307 530 CURVE SMOOTH"
);
}
);
width = 816;
},
{
layerId = "A4F58C8D-8D17-43C2-93E4-A012F059F067";
paths = (
{
closed = 1;
nodes = (
"467 670 OFFCURVE",
"577 585 OFFCURVE",
"619 418 CURVE",
"671 418 LINE",
"671 700 LINE",
"641 700 LINE",
"641 632 OFFCURVE",
"641 515 OFFCURVE",
"641 448 CURVE",
"640 448 LINE",
"606 553 OFFCURVE",
"542 700 OFFCURVE",
"345 700 CURVE SMOOTH",
"178 700 OFFCURVE",
"60 555 OFFCURVE",
"60 371 CURVE SMOOTH",
"60 332 LINE SMOOTH",
"60 236 OFFCURVE",
"106 2 OFFCURVE",
"395 2 CURVE SMOOTH",
"539 2 OFFCURVE",
"664 93 OFFCURVE",
"664 224 CURVE SMOOTH",
"664 305 OFFCURVE",
"630 358 OFFCURVE",
"489 358 CURVE SMOOTH",
"325 358 LINE",
"325 328 LINE",
"479 328 LINE SMOOTH",
"602 328 OFFCURVE",
"634 301 OFFCURVE",
"634 224 CURVE SMOOTH",
"634 100 OFFCURVE",
"498 30 OFFCURVE",
"395 30 CURVE SMOOTH",
"193 30 OFFCURVE",
"89 164 OFFCURVE",
"89 345 CURVE SMOOTH",
"89 365 LINE SMOOTH",
"89 517 OFFCURVE",
"178 670 OFFCURVE",
"345 670 CURVE SMOOTH"
);
}
);
width = 741;
},
{
associatedMasterId = "A4F58C8D-8D17-43C2-93E4-A012F059F067";
layerId = "1ED045E0-4751-46FB-B426-56A1A94A91E0";
name = "Feb 28 20, 22:14";
paths = (
{
closed = 1;
nodes = (
"460 530 OFFCURVE",
"541 455 OFFCURVE",
"560 400 CURVE",
"776 400 LINE",
"776 700 LINE",
"539 700 LINE",
"603 632 OFFCURVE",
"630 518 OFFCURVE",
"637 451 CURVE",
"621 451 LINE",
"587 556 OFFCURVE",
"523 703 OFFCURVE",
"326 703 CURVE SMOOTH",
"159 703 OFFCURVE",
"40 558 OFFCURVE",
"40 374 CURVE SMOOTH",
"40 335 LINE SMOOTH",
"40 239 OFFCURVE",
"108 2 OFFCURVE",
"386 2 CURVE SMOOTH",
"518 2 OFFCURVE",
"671 81 OFFCURVE",
"671 214 CURVE SMOOTH",
"671 265 OFFCURVE",
"648 338 OFFCURVE",
"530 338 CURVE SMOOTH",
"306 338 LINE",
"306 308 LINE",
"480 308 LINE SMOOTH",
"563 308 OFFCURVE",
"612 301 OFFCURVE",
"612 274 CURVE SMOOTH",
"612 204 OFFCURVE",
"416 179 OFFCURVE",
"347 179 CURVE SMOOTH",
"226 179 OFFCURVE",
"70 202 OFFCURVE",
"70 348 CURVE SMOOTH",
"70 368 LINE SMOOTH",
"70 479 OFFCURVE",
"190 530 OFFCURVE",
"307 530 CURVE SMOOTH"
);
}
);
width = 816;
}
);
leftKerningGroup = G;
unicode = "0047,0067";
},
{
glyphname = H;
lastChange = "2020-06-17 23:22:56 +0000";
layers = (
{
background = {
components = (
{
name = U;
transform = "{1, 0, 0, 1, 129, 0}";
}
);
};
layerId = "66D417ED-19C2-41B2-B946-B4104EEC6A8E";
paths = (
{
closed = 1;
nodes = (
"636 430 LINE",
"208 430 LINE",
"208 400 LINE",
"636 400 LINE"
);
},
{
closed = 1;
nodes = (
"227 146 LINE",
"227 588 LINE",
"197 588 LINE",
"197 146 LINE"
);
},
{
closed = 1;
nodes = (
"70 0 LINE",
"350 0 LINE",
"350 177 LINE",
"70 177 LINE"
);
},
{
closed = 1;
nodes = (
"70 527 LINE",
"350 527 LINE",
"350 700 LINE",
"70 700 LINE"
);
},
{
closed = 1;
nodes = (
"724 146 LINE",
"724 588 LINE",
"564 588 LINE",
"564 146 LINE"
);
},
{
closed = 1;
nodes = (
"417 0 LINE",
"849 0 LINE",
"849 177 LINE",
"417 177 LINE"
);
},
{
closed = 1;
nodes = (
"417 527 LINE",
"849 527 LINE",
"849 700 LINE",
"417 700 LINE"
);
}
);
width = 919;
},
{
associatedMasterId = "66D417ED-19C2-41B2-B946-B4104EEC6A8E";
background = {
components = (
{
name = U;
transform = "{1, 0, 0, 1, 74, 0}";
}
);
};
layerId = "6357EA2C-2A45-43C4-B00F-AF89C94A45D8";
name = "Feb 26 20, 07:55";
paths = (
{
closed = 1;
nodes = (
"581 430 LINE",
"153 430 LINE",
"153 400 LINE",
"581 400 LINE"
);
},
{
closed = 1;
nodes = (
"172 146 LINE",
"172 588 LINE",
"142 588 LINE",
"142 146 LINE"
);
},
{
closed = 1;
nodes = (
"15 0 LINE",
"297 0 LINE",
"297 177 LINE",
"15 177 LINE"
);
},
{
closed = 1;
nodes = (
"15 527 LINE",
"297 527 LINE",
"297 700 LINE",
"15 700 LINE"
);
},
{
closed = 1;
nodes = (
"669 146 LINE",
"669 588 LINE",
"509 588 LINE",
"509 146 LINE"
);
},
{
closed = 1;
nodes = (
"359 0 LINE",
"794 0 LINE",
"794 177 LINE",
"359 177 LINE"
);
},
{
closed = 1;
nodes = (
"359 527 LINE",
"794 527 LINE",
"794 700 LINE",
"359 700 LINE"
);
}
);
width = 849;
},
{
associatedMasterId = "66D417ED-19C2-41B2-B946-B4104EEC6A8E";
background = {
components = (
{
name = U;
transform = "{1, 0, 0, 1, 74, 0}";
}
);
};
layerId = "FD0219FF-4839-40FC-A6F9-7CF8B2B93DDE";
name = "Feb 26 20, 09:56";
paths = (
{
closed = 1;
nodes = (
"179 166 LINE",
"179 588 LINE",
"149 588 LINE",
"149 166 LINE"
);
},
{
closed = 1;
nodes = (
"157 400 LINE",
"229 400 LINE",
"375 400 OFFCURVE",
"444 348 OFFCURVE",
"444 253 CURVE SMOOTH",
"444 210 OFFCURVE",
"445 179 OFFCURVE",
"445 147 CURVE SMOOTH",
"445 64 OFFCURVE",
"486 0 OFFCURVE",
"563 0 CURVE SMOOTH",
"669 0 OFFCURVE",
"707 100 OFFCURVE",
"714 171 CURVE",
"578 241 LINE",
"571 226 OFFCURVE",
"553 189 OFFCURVE",
"516 189 CURVE SMOOTH",
"494 189 OFFCURVE",
"473 198 OFFCURVE",
"473 233 CURVE SMOOTH",
"473 394 OFFCURVE",
"364 430 OFFCURVE",
"237 430 CURVE",
"157 430 LINE"
);
},
{
closed = 1;
nodes = (
"15 0 LINE",
"322 0 LINE",
"322 177 LINE",
"15 177 LINE"
);
},
{
closed = 1;
nodes = (
"15 527 LINE",
"322 527 LINE",
"322 700 LINE",
"15 700 LINE"
);
}
);
width = 679;
},
{
background = {
components = (
{
name = U;
transform = "{1, 0, 0, 1, 136, 0}";
}
);
};
layerId = "A4F58C8D-8D17-43C2-93E4-A012F059F067";
paths = (
{
closed = 1;
nodes = (
"713 430 LINE",
"215 430 LINE",
"215 400 LINE",
"713 400 LINE"
);
},
{
closed = 1;
nodes = (
"234 6 LINE",
"234 688 LINE",
"204 688 LINE",
"204 6 LINE"
);
},
{
closed = 1;
nodes = (
"70 0 LINE",
"368 0 LINE",
"368 30 LINE",
"70 30 LINE"
);
},
{
closed = 1;
nodes = (
"70 670 LINE",
"368 670 LINE",
"368 700 LINE",
"70 700 LINE"
);
},
{
closed = 1;
nodes = (
"731 6 LINE",
"731 688 LINE",
"701 688 LINE",
"701 6 LINE"
);
},
{
closed = 1;
nodes = (
"567 0 LINE",
"865 0 LINE",
"865 30 LINE",
"567 30 LINE"
);
},
{
closed = 1;
nodes = (
"567 670 LINE",
"865 670 LINE",
"865 700 LINE",
"567 700 LINE"
);
}
);
width = 935;
},
{
associatedMasterId = "A4F58C8D-8D17-43C2-93E4-A012F059F067";
background = {
components = (
{
name = U;
transform = "{1, 0, 0, 1, 74, 0}";
}
);
};
layerId = "6F930FE6-EE93-4F6A-B155-651A6BEB324E";
name = "Feb 26 20, 07:55";
paths = (
{
closed = 1;
nodes = (
"581 430 LINE",
"153 430 LINE",
"153 400 LINE",
"581 400 LINE"
);
},
{
closed = 1;
nodes = (
"172 146 LINE",
"172 588 LINE",
"142 588 LINE",
"142 146 LINE"
);
},
{
closed = 1;
nodes = (
"15 0 LINE",
"297 0 LINE",
"297 177 LINE",
"15 177 LINE"
);
},
{
closed = 1;
nodes = (
"15 527 LINE",
"297 527 LINE",
"297 700 LINE",
"15 700 LINE"
);
},
{
closed = 1;
nodes = (
"669 146 LINE",
"669 588 LINE",
"509 588 LINE",
"509 146 LINE"
);
},
{
closed = 1;
nodes = (
"359 0 LINE",
"794 0 LINE",
"794 177 LINE",
"359 177 LINE"
);
},
{
closed = 1;
nodes = (
"359 527 LINE",
"794 527 LINE",
"794 700 LINE",
"359 700 LINE"
);
}
);
width = 849;
},
{
associatedMasterId = "A4F58C8D-8D17-43C2-93E4-A012F059F067";
background = {
components = (
{
name = U;
transform = "{1, 0, 0, 1, 74, 0}";
}
);
};
layerId = "462E272E-1590-46AA-BC72-7848C238A59C";
name = "Feb 26 20, 09:56";
paths = (
{
closed = 1;
nodes = (
"179 166 LINE",
"179 588 LINE",
"149 588 LINE",
"149 166 LINE"
);
},
{
closed = 1;
nodes = (
"157 400 LINE",
"229 400 LINE",
"375 400 OFFCURVE",
"444 348 OFFCURVE",
"444 253 CURVE SMOOTH",
"444 210 OFFCURVE",
"445 179 OFFCURVE",
"445 147 CURVE SMOOTH",
"445 64 OFFCURVE",
"486 0 OFFCURVE",
"563 0 CURVE SMOOTH",
"669 0 OFFCURVE",
"707 100 OFFCURVE",
"714 171 CURVE",
"578 241 LINE",
"571 226 OFFCURVE",
"553 189 OFFCURVE",
"516 189 CURVE SMOOTH",
"494 189 OFFCURVE",
"473 198 OFFCURVE",
"473 233 CURVE SMOOTH",
"473 394 OFFCURVE",
"364 430 OFFCURVE",
"237 430 CURVE",
"157 430 LINE"
);
},
{
closed = 1;
nodes = (
"15 0 LINE",
"322 0 LINE",
"322 177 LINE",
"15 177 LINE"
);
},
{
closed = 1;
nodes = (
"15 527 LINE",
"322 527 LINE",
"322 700 LINE",
"15 700 LINE"
);
}
);
width = 679;
}
);
unicode = "0048,0068";
},
{
glyphname = I;
lastChange = "2020-06-17 23:22:56 +0000";
layers = (
{
layerId = "66D417ED-19C2-41B2-B946-B4104EEC6A8E";
paths = (
{
closed = 1;
nodes = (
"292 146 LINE",
"292 588 LINE",
"262 588 LINE",
"262 146 LINE"
);
},
{
closed = 1;
nodes = (
"70 0 LINE",
"467 0 LINE",
"467 177 LINE",
"70 177 LINE"
);
},
{
closed = 1;
nodes = (
"70 527 LINE",
"467 527 LINE",
"467 700 LINE",
"70 700 LINE"
);
}
);
width = 537;
},
{
associatedMasterId = "66D417ED-19C2-41B2-B946-B4104EEC6A8E";
guideLines = (
{
position = "{-496, 401}";
}
);
layerId = "244CB704-30FE-473F-BFEE-ABD54DB187AB";
name = "Feb 25 20, 22:20";
paths = (
{
closed = 1;
nodes = (
"0 0 LINE",
"397 0 LINE",
"397 177 LINE",
"0 177 LINE"
);
},
{
closed = 1;
nodes = (
"222 527 LINE",
"222 700 LINE",
"162 700 LINE",
"162 527 LINE"
);
},
{
closed = 1;
nodes = (
"212 146 LINE",
"212 401 LINE",
"182 401 LINE",
"182 146 LINE"
);
},
{
closed = 1;
nodes = (
"212 430 LINE",
"34 430 LINE",
"34 400 LINE",
"212 400 LINE"
);
}
);
width = 337;
},
{
associatedMasterId = "66D417ED-19C2-41B2-B946-B4104EEC6A8E";
layerId = "B90F0C46-F844-4E62-B368-E344F95AFB57";
name = "Feb 25 20, 23:15";
paths = (
{
closed = 1;
nodes = (
"242 146 LINE",
"242 588 LINE",
"212 588 LINE",
"212 146 LINE"
);
},
{
closed = 1;
nodes = (
"20 0 LINE",
"417 0 LINE",
"417 177 LINE",
"20 177 LINE"
);
},
{
closed = 1;
nodes = (
"20 527 LINE",
"417 527 LINE",
"417 700 LINE",
"20 700 LINE"
);
}
);
width = 437;
},
{
associatedMasterId = "66D417ED-19C2-41B2-B946-B4104EEC6A8E";
layerId = "06C4D500-609D-4068-914C-C33FF775A9BA";
name = "Feb 26 20, 10:27";
paths = (
{
closed = 1;
nodes = (
"40 0 LINE",
"437 0 LINE",
"437 177 LINE",
"40 177 LINE"
);
},
{
closed = 1;
nodes = (
"40 403 LINE",
"254 403 LINE",
"254 526 LINE",
"40 526 LINE"
);
},
{
closed = 1;
nodes = (
"254 146 LINE",
"254 521 LINE",
"224 521 LINE",
"224 146 LINE"
);
},
{
closed = 1;
nodes = (
"261 608 LINE",
"261 700 LINE",
"217 700 LINE",
"217 608 LINE"
);
}
);
width = 477;
},
{
layerId = "A4F58C8D-8D17-43C2-93E4-A012F059F067";
paths = (
{
closed = 1;
nodes = (
"234 6 LINE",
"234 688 LINE",
"204 688 LINE",
"204 6 LINE"
);
},
{
closed = 1;
nodes = (
"70 0 LINE",
"368 0 LINE",
"368 30 LINE",
"70 30 LINE"
);
},
{
closed = 1;
nodes = (
"70 670 LINE",
"368 670 LINE",
"368 700 LINE",
"70 700 LINE"
);
}
);
width = 438;
},
{
associatedMasterId = "A4F58C8D-8D17-43C2-93E4-A012F059F067";
guideLines = (
{
position = "{-496, 401}";
}
);
layerId = "10749FD9-07B5-48F9-8468-A1A0DB3AADFA";
name = "Feb 25 20, 22:20";
paths = (
{
closed = 1;
nodes = (
"0 0 LINE",
"397 0 LINE",
"397 177 LINE",
"0 177 LINE"
);
},
{
closed = 1;
nodes = (
"222 527 LINE",
"222 700 LINE",
"162 700 LINE",
"162 527 LINE"
);
},
{
closed = 1;
nodes = (
"212 146 LINE",
"212 401 LINE",
"182 401 LINE",
"182 146 LINE"
);
},
{
closed = 1;
nodes = (
"212 430 LINE",
"34 430 LINE",
"34 400 LINE",
"212 400 LINE"
);
}
);
width = 337;
},
{
associatedMasterId = "A4F58C8D-8D17-43C2-93E4-A012F059F067";
layerId = "6AEB915F-E964-4EBA-A621-7CB7C57B00D3";
name = "Feb 25 20, 23:15";
paths = (
{
closed = 1;
nodes = (
"242 146 LINE",
"242 588 LINE",
"212 588 LINE",
"212 146 LINE"
);
},
{
closed = 1;
nodes = (
"20 0 LINE",
"417 0 LINE",
"417 177 LINE",
"20 177 LINE"
);
},
{
closed = 1;
nodes = (
"20 527 LINE",
"417 527 LINE",
"417 700 LINE",
"20 700 LINE"
);
}
);
width = 437;
},
{
associatedMasterId = "A4F58C8D-8D17-43C2-93E4-A012F059F067";
layerId = "66529724-0C42-4E94-8E65-D72A7ECF995D";
name = "Feb 26 20, 10:27";
paths = (
{
closed = 1;
nodes = (
"40 0 LINE",
"437 0 LINE",
"437 177 LINE",
"40 177 LINE"
);
},
{
closed = 1;
nodes = (
"40 403 LINE",
"254 403 LINE",
"254 526 LINE",
"40 526 LINE"
);
},
{
closed = 1;
nodes = (
"254 146 LINE",
"254 521 LINE",
"224 521 LINE",
"224 146 LINE"
);
},
{
closed = 1;
nodes = (
"261 608 LINE",
"261 700 LINE",
"217 700 LINE",
"217 608 LINE"
);
}
);
width = 477;
}
);
unicode = "0049,0069";
},
{
glyphname = J;
lastChange = "2020-06-17 23:22:56 +0000";
layers = (
{
guideLines = (
{
angle = 90;
position = "{197, 257}";
}
);
layerId = "66D417ED-19C2-41B2-B946-B4104EEC6A8E";
paths = (
{
closed = 1;
nodes = (
"197 527 LINE",
"711 527 LINE",
"711 700 LINE",
"197 700 LINE"
);
},
{
closed = 1;
nodes = (
"586 558 LINE",
"616 448 OFFCURVE",
"646 355 OFFCURVE",
"645 307 CURVE SMOOTH",
"644 192 OFFCURVE",
"561 175 OFFCURVE",
"481 175 CURVE SMOOTH",
"376 175 OFFCURVE",
"295 250 OFFCURVE",
"276 305 CURVE",
"60 305 LINE",
"60 5 LINE",
"297 5 LINE",
"233 73 OFFCURVE",
"206 187 OFFCURVE",
"199 254 CURVE",
"215 254 LINE",
"249 149 OFFCURVE",
"313 2 OFFCURVE",
"462 2 CURVE SMOOTH",
"604 2 OFFCURVE",
"676 129 OFFCURVE",
"676 247 CURVE SMOOTH",
"676 377 OFFCURVE",
"646 452 OFFCURVE",
"616 558 CURVE"
);
}
);
width = 781;
},
{
guideLines = (
{
angle = 90;
position = "{63, 257}";
}
);
layerId = "A4F58C8D-8D17-43C2-93E4-A012F059F067";
paths = (
{
closed = 1;
nodes = (
"103 670 LINE",
"577 670 LINE",
"577 700 LINE",
"103 700 LINE"
);
},
{
closed = 1;
nodes = (
"452 678 LINE",
"482 568 OFFCURVE",
"513 355 OFFCURVE",
"512 247 CURVE SMOOTH",
"511 162 OFFCURVE",
"476 32 OFFCURVE",
"350 32 CURVE SMOOTH",
"223 32 OFFCURVE",
"158 147 OFFCURVE",
"103 305 CURVE",
"50 305 LINE",
"50 5 LINE",
"80 5 LINE",
"80 73 OFFCURVE",
"80 208 OFFCURVE",
"80 275 CURVE",
"81 275 LINE",
"136 120 OFFCURVE",
"203 2 OFFCURVE",
"350 2 CURVE SMOOTH",
"479 2 OFFCURVE",
"542 129 OFFCURVE",
"542 247 CURVE SMOOTH",
"542 377 OFFCURVE",
"512 572 OFFCURVE",
"482 678 CURVE"
);
}
);
width = 647;
}
);
leftKerningGroup = J;
unicode = "004A,006A";
},
{
glyphname = K;
lastChange = "2020-06-18 00:42:57 +0000";
layers = (
{
guideLines = (
{
position = "{-111, 400}";
},
{
angle = -39.4198;
position = "{381, 334}";
},
{
angle = 90;
position = "{697, 89}";
},
{
angle = 41.5083;
position = "{256, 400}";
},
{
angle = 129.1535;
position = "{496, 302}";
},
{
position = "{499, 85}";
}
);
layerId = "66D417ED-19C2-41B2-B946-B4104EEC6A8E";
paths = (
{
closed = 1;
nodes = (
"242 146 LINE",
"242 588 LINE",
"212 588 LINE",
"212 146 LINE"
);
},
{
closed = 1;
nodes = (
"70 0 LINE",
"278 0 LINE",
"278 173 LINE",
"70 173 LINE"
);
},
{
closed = 1;
nodes = (
"70 523 LINE",
"316 523 LINE",
"316 700 LINE",
"70 700 LINE"
);
},
{
closed = 1;
nodes = (
"345 0 LINE",
"689 0 LINE",
"689 173 LINE",
"345 173 LINE"
);
},
{
closed = 1;
nodes = (
"673 85 LINE",
"393 428 LINE",
"631 664 LINE",
"589 664 LINE",
"309 386 LINE",
"252 386 LINE",
"497 86 LINE"
);
},
{
closed = 1;
nodes = (
"383 700 LINE",
"383 523 LINE",
"687 523 LINE",
"687 700 LINE"
);
},
{
closed = 1;
nodes = (
"354 417 LINE",
"222 417 LINE",
"222 387 LINE",
"334 387 LINE"
);
},
{
closed = 1;
nodes = (
"222 415 LINE",
"222 385 LINE",
"354 385 LINE",
"334 415 LINE"
);
}
);
width = 767;
},
{
associatedMasterId = "66D417ED-19C2-41B2-B946-B4104EEC6A8E";
backgroundImage = {
crop = "{{0, 0}, {235, 298}}";
imagePath = "/Users/valerymarier/Downloads/Screen Shot 2020-02-26 at 11.31.38 AM.png";
locked = "1";
transform = "{3.05, 0, 0, 3.05, -53.834, -123.375}";
};
guideLines = (
{
position = "{-202, 400}";
},
{
angle = -39.4198;
position = "{290, 334}";
},
{
angle = 90;
position = "{606, 89}";
}
);
hints = (
{
place = "{165, 382}";
type = Stem;
}
);
layerId = "F802FE62-55C0-4564-B132-7101343975FD";
name = "Feb 27 20, 23:23";
paths = (
{
closed = 1;
nodes = (
"212 146 LINE",
"212 588 LINE",
"182 588 LINE",
"182 146 LINE"
);
},
{
closed = 1;
nodes = (
"40 0 LINE",
"317 0 LINE",
"317 177 LINE",
"40 177 LINE"
);
},
{
closed = 1;
nodes = (
"40 527 LINE",
"257 527 LINE",
"257 700 LINE",
"40 700 LINE"
);
},
{
closed = 1;
nodes = (
"470 0 LINE",
"745 0 LINE",
"745 177 LINE",
"470 177 LINE"
);
},
{
closed = 1;
nodes = (
"689 122 LINE",
"431 348 LINE",
"667 547 LINE",
"683 700 LINE",
"660 700 LINE",
"306 414 LINE",
"688 86 LINE"
);
},
{
closed = 1;
nodes = (
"313 700 LINE",
"313 527 LINE",
"701 527 LINE",
"701 700 LINE"
);
},
{
closed = 1;
nodes = (
"485 430 LINE",
"185 430 LINE",
"185 400 LINE",
"485 400 LINE"
);
}
);
width = 785;
},
{
associatedMasterId = "66D417ED-19C2-41B2-B946-B4104EEC6A8E";
guideLines = (
{
position = "{-141, 400}";
},
{
angle = -39.4198;
position = "{351, 334}";
},
{
angle = 90;
position = "{667, 89}";
},
{
angle = 41.5083;
position = "{226, 400}";
}
);
layerId = "5E6191B0-D8E4-4B08-93B7-AA66037C3198";
name = "Mar 12 20, 01:31";
paths = (
{
closed = 1;
nodes = (
"667 527 LINE",
"667 700 LINE",
"320 700 LINE",
"320 527 LINE",
"370 527 LINE",
"245 417 LINE",
"212 417 LINE",
"212 527 LINE",
"253 527 LINE",
"253 700 LINE",
"40 700 LINE",
"40 527 LINE",
"182 527 LINE",
"182 177 LINE",
"40 177 LINE",
"40 0 LINE",
"320 0 LINE",
"320 177 LINE",
"212 177 LINE",
"212 385 LINE",
"244 385 LINE",
"497 177 LINE",
"387 177 LINE",
"387 0 LINE",
"665 0 LINE",
"665 177 LINE",
"542 177 LINE",
"351 334 LINE",
"569 527 LINE"
);
}
);
width = 707;
},
{
guideLines = (
{
position = "{-119, 400}";
},
{
angle = -39.4198;
position = "{285, 264}";
},
{
angle = 90;
position = "{689, 89}";
},
{
angle = 41.5083;
position = "{409, 500}";
},
{
angle = 140.5618;
position = "{485, 243}";
},
{
position = "{260, 410}";
},
{
angle = -49.5802;
position = "{420, 209}";
}
);
layerId = "A4F58C8D-8D17-43C2-93E4-A012F059F067";
paths = (
{
closed = 1;
nodes = (
"234 1 LINE",
"234 688 LINE",
"204 688 LINE",
"204 1 LINE"
);
},
{
closed = 1;
nodes = (
"70 0 LINE",
"344 0 LINE",
"344 30 LINE",
"70 30 LINE"
);
},
{
closed = 1;
nodes = (
"70 670 LINE",
"344 670 LINE",
"344 700 LINE",
"70 700 LINE"
);
},
{
closed = 1;
nodes = (
"462 0 LINE",
"708 0 LINE",
"708 30 LINE",
"462 30 LINE"
);
},
{
closed = 1;
nodes = (
"615 22 LINE",
"292 402 LINE",
"610 683 LINE",
"587 700 LINE",
"260 410 LINE",
"248 410 LINE",
"586 13 LINE"
);
},
{
closed = 1;
nodes = (
"443 700 LINE",
"443 670 LINE",
"695 670 LINE",
"695 700 LINE"
);
},
{
closed = 1;
nodes = (
"284 417 LINE",
"222 417 LINE",
"222 387 LINE",
"264 387 LINE"
);
},
{
closed = 1;
nodes = (
"222 415 LINE",
"222 385 LINE",
"284 385 LINE",
"264 415 LINE"
);
}
);
width = 778;
},
{
associatedMasterId = "A4F58C8D-8D17-43C2-93E4-A012F059F067";
backgroundImage = {
crop = "{{0, 0}, {235, 298}}";
imagePath = "/Users/valerymarier/Downloads/Screen Shot 2020-02-26 at 11.31.38 AM.png";
locked = "1";
transform = "{3.05, 0, 0, 3.05, -53.834, -123.375}";
};
guideLines = (
{
position = "{-202, 400}";
},
{
angle = -39.4198;
position = "{290, 334}";
},
{
angle = 90;
position = "{606, 89}";
}
);
hints = (
{
place = "{165, 382}";
type = Stem;
}
);
layerId = "2D04AF98-1F07-45BA-B5A0-38E8FCDD1873";
name = "Feb 27 20, 23:23";
paths = (
{
closed = 1;
nodes = (
"212 146 LINE",
"212 588 LINE",
"182 588 LINE",
"182 146 LINE"
);
},
{
closed = 1;
nodes = (
"40 0 LINE",
"317 0 LINE",
"317 177 LINE",
"40 177 LINE"
);
},
{
closed = 1;
nodes = (
"40 527 LINE",
"257 527 LINE",
"257 700 LINE",
"40 700 LINE"
);
},
{
closed = 1;
nodes = (
"470 0 LINE",
"745 0 LINE",
"745 177 LINE",
"470 177 LINE"
);
},
{
closed = 1;
nodes = (
"689 122 LINE",
"431 348 LINE",
"667 547 LINE",
"683 700 LINE",
"660 700 LINE",
"306 414 LINE",
"688 86 LINE"
);
},
{
closed = 1;
nodes = (
"313 700 LINE",
"313 527 LINE",
"701 527 LINE",
"701 700 LINE"
);
},
{
closed = 1;
nodes = (
"485 430 LINE",
"185 430 LINE",
"185 400 LINE",
"485 400 LINE"
);
}
);
width = 785;
},
{
associatedMasterId = "A4F58C8D-8D17-43C2-93E4-A012F059F067";
guideLines = (
{
position = "{-141, 400}";
},
{
angle = -39.4198;
position = "{351, 334}";
},
{
angle = 90;
position = "{667, 89}";
},
{
angle = 41.5083;
position = "{226, 400}";
}
);
layerId = "E1665FD3-36CF-4F16-900F-D95E71CFB953";
name = "Mar 12 20, 01:31";
paths = (
{
closed = 1;
nodes = (
"667 527 LINE",
"667 700 LINE",
"320 700 LINE",
"320 527 LINE",
"370 527 LINE",
"245 417 LINE",
"212 417 LINE",
"212 527 LINE",
"253 527 LINE",
"253 700 LINE",
"40 700 LINE",
"40 527 LINE",
"182 527 LINE",
"182 177 LINE",
"40 177 LINE",
"40 0 LINE",
"320 0 LINE",
"320 177 LINE",
"212 177 LINE",
"212 385 LINE",
"244 385 LINE",
"497 177 LINE",
"387 177 LINE",
"387 0 LINE",
"665 0 LINE",
"665 177 LINE",
"542 177 LINE",
"351 334 LINE",
"569 527 LINE"
);
}
);
width = 707;
}
);
rightKerningGroup = K;
unicode = "004B,006B";
},
{
glyphname = L;
lastChange = "2020-06-17 23:22:56 +0000";
layers = (
{
background = {
components = (
{
name = R;
transform = "{1, 0, 0, 1, 30, 0}";
}
);
};
guideLines = (
{
angle = 90;
position = "{376, 95}";
},
{
angle = 95.1599;
position = "{595, 299}";
}
);
layerId = "66D417ED-19C2-41B2-B946-B4104EEC6A8E";
paths = (
{
closed = 1;
nodes = (
"234 146 LINE",
"234 588 LINE",
"204 588 LINE",
"204 146 LINE"
);
},
{
closed = 1;
nodes = (
"70 527 LINE",
"376 527 LINE",
"376 700 LINE",
"70 700 LINE"
);
},
{
closed = 1;
nodes = (
"646 6 LINE",
"646 304 LINE",
"468 304 LINE",
"556 250 OFFCURVE",
"646 165 OFFCURVE",
"646 57 CURVE",
"369 57 LINE",
"369 6 LINE"
);
},
{
closed = 1;
nodes = (
"646 0 LINE",
"646 177 LINE",
"70 177 LINE",
"70 0 LINE"
);
}
);
width = 716;
},
{
associatedMasterId = "66D417ED-19C2-41B2-B946-B4104EEC6A8E";
background = {
components = (
{
name = R;
}
);
};
guideLines = (
{
angle = 90;
position = "{346, 95}";
},
{
angle = 95.1599;
position = "{565, 299}";
}
);
layerId = "098970A0-96AB-4286-A195-D58542910729";
name = "Feb 27 20, 12:58";
paths = (
{
closed = 1;
nodes = (
"204 146 LINE",
"204 588 LINE",
"174 588 LINE",
"174 146 LINE"
);
},
{
closed = 1;
nodes = (
"40 527 LINE",
"346 527 LINE",
"346 700 LINE",
"40 700 LINE"
);
},
{
closed = 1;
nodes = (
"595 299 LINE",
"565 299 LINE",
"569 256 LINE SMOOTH",
"575 191 OFFCURVE",
"536 177 OFFCURVE",
"485 177 CURVE",
"40 177 LINE",
"40 0 LINE",
"622 0 LINE"
);
}
);
width = 646;
},
{
associatedMasterId = "66D417ED-19C2-41B2-B946-B4104EEC6A8E";
background = {
components = (
{
name = R;
}
);
};
guideLines = (
{
angle = 90;
position = "{346, 95}";
},
{
angle = 95.1599;
position = "{565, 299}";
}
);
layerId = "F17FC679-7861-4E61-BE68-B40AFF0E67E8";
name = "Feb 27 20, 13:09";
paths = (
{
closed = 1;
nodes = (
"204 146 LINE",
"204 588 LINE",
"174 588 LINE",
"174 146 LINE"
);
},
{
closed = 1;
nodes = (
"40 527 LINE",
"346 527 LINE",
"346 700 LINE",
"40 700 LINE"
);
},
{
closed = 1;
nodes = (
"40 177 LINE",
"40 0 LINE",
"588 0 LINE",
"648 273 LINE",
"585 214 OFFCURVE",
"494 177 OFFCURVE",
"396 177 CURVE"
);
}
);
width = 688;
},
{
background = {
components = (
{
name = R;
transform = "{1, 0, 0, 1, 30, 0}";
}
);
};
guideLines = (
{
angle = 90;
position = "{376, 75}";
},
{
angle = 95.1599;
position = "{595, 299}";
}
);
layerId = "A4F58C8D-8D17-43C2-93E4-A012F059F067";
paths = (
{
closed = 1;
nodes = (
"234 16 LINE",
"234 688 LINE",
"204 688 LINE",
"204 16 LINE"
);
},
{
closed = 1;
nodes = (
"70 670 LINE",
"368 670 LINE",
"368 700 LINE",
"70 700 LINE"
);
},
{
closed = 1;
nodes = (
"646 6 LINE",
"646 304 LINE",
"616 304 LINE",
"616 238 OFFCURVE",
"616 135 OFFCURVE",
"616 27 CURVE",
"369 27 LINE",
"369 6 LINE"
);
},
{
closed = 1;
nodes = (
"646 0 LINE",
"646 30 LINE",
"70 30 LINE",
"70 0 LINE"
);
}
);
width = 716;
},
{
associatedMasterId = "A4F58C8D-8D17-43C2-93E4-A012F059F067";
background = {
components = (
{
name = R;
}
);
};
guideLines = (
{
angle = 90;
position = "{346, 95}";
},
{
angle = 95.1599;
position = "{565, 299}";
}
);
layerId = "5224A9E3-FB9E-4162-A70A-B6C162E07D2F";
name = "Feb 27 20, 12:58";
paths = (
{
closed = 1;
nodes = (
"204 146 LINE",
"204 588 LINE",
"174 588 LINE",
"174 146 LINE"
);
},
{
closed = 1;
nodes = (
"40 527 LINE",
"346 527 LINE",
"346 700 LINE",
"40 700 LINE"
);
},
{
closed = 1;
nodes = (
"595 299 LINE",
"565 299 LINE",
"569 256 LINE SMOOTH",
"575 191 OFFCURVE",
"536 177 OFFCURVE",
"485 177 CURVE",
"40 177 LINE",
"40 0 LINE",
"622 0 LINE"
);
}
);
width = 646;
},
{
associatedMasterId = "A4F58C8D-8D17-43C2-93E4-A012F059F067";
background = {
components = (
{
name = R;
}
);
};
guideLines = (
{
angle = 90;
position = "{346, 95}";
},
{
angle = 95.1599;
position = "{565, 299}";
}
);
layerId = "290D594B-BA96-41A0-A1CD-DAF1D7519834";
name = "Feb 27 20, 13:09";
paths = (
{
closed = 1;
nodes = (
"204 146 LINE",
"204 588 LINE",
"174 588 LINE",
"174 146 LINE"
);
},
{
closed = 1;
nodes = (
"40 527 LINE",
"346 527 LINE",
"346 700 LINE",
"40 700 LINE"
);
},
{
closed = 1;
nodes = (
"40 177 LINE",
"40 0 LINE",
"588 0 LINE",
"648 273 LINE",
"585 214 OFFCURVE",
"494 177 OFFCURVE",
"396 177 CURVE"
);
}
);
width = 688;
}
);
rightKerningGroup = L;
unicode = "004C,006C";
},
{
glyphname = M;
lastChange = "2020-06-18 00:41:15 +0000";
layers = (
{
guideLines = (
{
angle = -69.3159;
position = "{524, 226}";
},
{
angle = 99.983;
position = "{647, 411}";
},
{
angle = 84.1274;
position = "{186, 350}";
}
);
layerId = "66D417ED-19C2-41B2-B946-B4104EEC6A8E";
paths = (
{
closed = 1;
nodes = (
"788 538 LINE",
"624 538 LINE",
"693 146 LINE",
"857 146 LINE"
);
},
{
closed = 1;
nodes = (
"597 177 LINE",
"597 0 LINE",
"939 0 LINE",
"939 177 LINE"
);
},
{
closed = 1;
nodes = (
"490 260 LINE",
"496 230 LINE",
"536 230 LINE",
"540 260 LINE"
);
},
{
closed = 1;
nodes = (
"638 700 LINE",
"598 527 LINE",
"856 527 LINE",
"856 700 LINE"
);
},
{
closed = 1;
nodes = (
"387 588 LINE",
"213 588 LINE",
"435 0 LINE",
"476 0 LINE",
"524 226 LINE"
);
},
{
closed = 1;
nodes = (
"490 0 LINE",
"651 700 LINE",
"622 700 LINE",
"460 0 LINE"
);
},
{
closed = 1;
nodes = (
"144 700 LINE",
"144 527 LINE",
"410 527 LINE",
"345 700 LINE"
);
},
{
closed = 1;
nodes = (
"41 177 LINE",
"40 0 LINE",
"294 0 LINE",
"294 177 LINE"
);
},
{
closed = 1;
nodes = (
"174 0 LINE",
"246 700 LINE",
"217 700 LINE",
"144 0 LINE"
);
}
);
width = 979;
},
{
background = {
paths = (
{
closed = 1;
nodes = (
"177 6 LINE",
"294 668 LINE",
"264 688 LINE",
"144 6 LINE"
);
},
{
closed = 1;
nodes = (
"64 0 LINE",
"287 0 LINE",
"287 30 LINE",
"64 30 LINE"
);
},
{
closed = 1;
nodes = (
"427 9 LINE",
"467 9 LINE",
"473 39 LINE",
"423 39 LINE"
);
},
{
closed = 1;
nodes = (
"182 670 LINE",
"285 670 LINE",
"275 700 LINE",
"182 700 LINE"
);
},
{
closed = 1;
nodes = (
"445 0 LINE",
"478 0 LINE",
"700 698 LINE",
"669 698 LINE",
"453 27 LINE"
);
},
{
closed = 1;
nodes = (
"291 700 LINE",
"262 700 LINE",
"423 0 LINE",
"453 0 LINE"
);
},
{
closed = 1;
nodes = (
"660 670 LINE",
"780 670 LINE",
"780 700 LINE",
"668 700 LINE"
);
},
{
closed = 1;
nodes = (
"623 0 LINE",
"843 0 LINE",
"842 30 LINE",
"623 30 LINE"
);
},
{
closed = 1;
nodes = (
"691 700 LINE",
"665 670 LINE",
"733 10 LINE",
"763 10 LINE"
);
}
);
};
guideLines = (
{
angle = -69.3159;
position = "{535, 226}";
},
{
angle = 84.1274;
position = "{174, 350}";
},
{
angle = -72.3567;
position = "{289, 700}";
},
{
angle = 107.8503;
position = "{308, 462}";
},
{
angle = 84.1274;
position = "{203, 350}";
},
{
position = "{518, 607}";
},
{
angle = -80.017;
position = "{638, 492}";
}
);
layerId = "A4F58C8D-8D17-43C2-93E4-A012F059F067";
paths = (
{
closed = 1;
nodes = (
"691 700 LINE",
"665 670 LINE",
"733 10 LINE",
"763 10 LINE"
);
},
{
closed = 1;
nodes = (
"621 30 LINE",
"621 0 LINE",
"861 0 LINE",
"861 30 LINE"
);
},
{
closed = 1;
nodes = (
"428 39 LINE",
"434 9 LINE",
"474 9 LINE",
"478 39 LINE"
);
},
{
closed = 1;
nodes = (
"687 700 LINE",
"677 670 LINE",
"794 670 LINE",
"794 700 LINE"
);
},
{
closed = 1;
nodes = (
"233 700 LINE",
"201 698 LINE",
"423 0 LINE",
"456 0 LINE",
"448 27 LINE"
);
},
{
closed = 1;
nodes = (
"478 0 LINE",
"700 700 LINE",
"668 700 LINE",
"445 0 LINE"
);
},
{
closed = 1;
nodes = (
"107 700 LINE",
"107 670 LINE",
"241 670 LINE",
"233 700 LINE"
);
},
{
closed = 1;
nodes = (
"40 30 LINE",
"40 0 LINE",
"280 0 LINE",
"280 30 LINE"
);
},
{
closed = 1;
nodes = (
"168 10 LINE",
"236 670 LINE",
"210 700 LINE",
"138 10 LINE"
);
}
);
width = 901;
}
);
leftKerningGroup = M;
rightKerningGroup = M;
unicode = "004D,006D";
},
{
glyphname = N;
lastChange = "2020-06-17 23:22:56 +0000";
layers = (
{
background = {
components = (
{
name = H;
transform = "{1, 0, 0, 1, 5, 0}";
}
);
};
guideLines = (
{
angle = 116.565;
position = "{469, 314}";
}
);
layerId = "66D417ED-19C2-41B2-B946-B4104EEC6A8E";
paths = (
{
closed = 1;
nodes = (
"342 146 LINE",
"342 538 LINE",
"182 538 LINE",
"182 146 LINE"
);
},
{
closed = 1;
nodes = (
"70 0 LINE",
"455 0 LINE",
"455 177 LINE",
"70 177 LINE"
);
},
{
closed = 1;
nodes = (
"70 527 LINE",
"378 527 LINE",
"263 700 LINE",
"70 700 LINE"
);
},
{
closed = 1;
nodes = (
"720 0 LINE",
"734 0 LINE",
"734 588 LINE",
"574 588 LINE",
"574 226 LINE"
);
},
{
closed = 1;
nodes = (
"574 527 LINE",
"849 527 LINE",
"849 700 LINE",
"574 700 LINE"
);
},
{
closed = 1;
nodes = (
"276 700 LINE",
"239 700 LINE",
"696 0 LINE",
"734 0 LINE"
);
}
);
width = 919;
},
{
associatedMasterId = "66D417ED-19C2-41B2-B946-B4104EEC6A8E";
layerId = "51B58223-9EA9-44C2-AC97-AABF91A921F2";
name = "Feb 26 20, 11:13";
paths = (
{
closed = 1;
nodes = (
"719 541 OFFCURVE",
"636 700 OFFCURVE",
"449 700 CURVE",
"249 700 OFFCURVE",
"166 541 OFFCURVE",
"166 321 CURVE SMOOTH",
"167 77 LINE",
"197 77 LINE",
"197 271 LINE SMOOTH",
"197 409 OFFCURVE",
"238 523 OFFCURVE",
"378 523 CURVE SMOOTH",
"518 523 OFFCURVE",
"559 409 OFFCURVE",
"559 271 CURVE",
"559 77 LINE",
"719 77 LINE",
"719 321 LINE SMOOTH"
);
},
{
closed = 1;
nodes = (
"834 177 LINE",
"440 177 LINE",
"440 0 LINE",
"834 0 LINE"
);
},
{
closed = 1;
nodes = (
"320 177 LINE",
"42 177 LINE",
"42 0 LINE",
"320 0 LINE"
);
},
{
closed = 1;
nodes = (
"40 527 LINE",
"142 527 OFFCURVE",
"167 521 OFFCURVE",
"167 470 CURVE SMOOTH",
"167 186 LINE",
"197 186 LINE",
"197 563 LINE SMOOTH",
"197 669 OFFCURVE",
"160 700 OFFCURVE",
"40 700 CURVE"
);
}
);
width = 874;
},
{
background = {
components = (
{
name = H;
transform = "{1, 0, 0, 1, 27, 0}";
}
);
};
guideLines = (
{
angle = 116.565;
position = "{491, 314}";
}
);
layerId = "A4F58C8D-8D17-43C2-93E4-A012F059F067";
paths = (
{
closed = 1;
nodes = (
"234 13 LINE",
"234 688 LINE",
"204 688 LINE",
"204 13 LINE"
);
},
{
closed = 1;
nodes = (
"70 0 LINE",
"368 0 LINE",
"368 30 LINE",
"70 30 LINE"
);
},
{
closed = 1;
nodes = (
"70 670 LINE",
"304 670 LINE",
"285 700 LINE",
"70 700 LINE"
);
},
{
closed = 1;
nodes = (
"742 0 LINE",
"756 0 LINE",
"756 688 LINE",
"726 688 LINE",
"726 12 LINE"
);
},
{
closed = 1;
nodes = (
"726 670 LINE",
"890 670 LINE",
"890 700 LINE",
"726 700 LINE"
);
},
{
closed = 1;
nodes = (
"298 700 LINE",
"261 700 LINE",
"718 0 LINE",
"756 0 LINE"
);
}
);
width = 960;
},
{
associatedMasterId = "A4F58C8D-8D17-43C2-93E4-A012F059F067";
layerId = "A5DB7641-B94E-47E4-99A5-1EC22799C255";
name = "Feb 26 20, 11:13";
paths = (
{
closed = 1;
nodes = (
"719 541 OFFCURVE",
"636 700 OFFCURVE",
"449 700 CURVE",
"249 700 OFFCURVE",
"166 541 OFFCURVE",
"166 321 CURVE SMOOTH",
"167 77 LINE",
"197 77 LINE",
"197 271 LINE SMOOTH",
"197 409 OFFCURVE",
"238 523 OFFCURVE",
"378 523 CURVE SMOOTH",
"518 523 OFFCURVE",
"559 409 OFFCURVE",
"559 271 CURVE",
"559 77 LINE",
"719 77 LINE",
"719 321 LINE SMOOTH"
);
},
{
closed = 1;
nodes = (
"834 177 LINE",
"440 177 LINE",
"440 0 LINE",
"834 0 LINE"
);
},
{
closed = 1;
nodes = (
"320 177 LINE",
"42 177 LINE",
"42 0 LINE",
"320 0 LINE"
);
},
{
closed = 1;
nodes = (
"40 527 LINE",
"142 527 OFFCURVE",
"167 521 OFFCURVE",
"167 470 CURVE SMOOTH",
"167 186 LINE",
"197 186 LINE",
"197 563 LINE SMOOTH",
"197 669 OFFCURVE",
"160 700 OFFCURVE",
"40 700 CURVE"
);
}
);
width = 874;
}
);
unicode = "004E,006E";
},
{
glyphname = O;
lastChange = "2020-06-18 00:43:16 +0000";
layers = (
{
layerId = "66D417ED-19C2-41B2-B946-B4104EEC6A8E";
paths = (
{
closed = 1;
nodes = (
"698 506 OFFCURVE",
"619 700 OFFCURVE",
"379 700 CURVE SMOOTH",
"139 700 OFFCURVE",
"60 506 OFFCURVE",
"60 366 CURVE SMOOTH",
"60 334 LINE SMOOTH",
"60 194 OFFCURVE",
"139 0 OFFCURVE",
"379 0 CURVE SMOOTH",
"619 0 OFFCURVE",
"698 194 OFFCURVE",
"698 334 CURVE SMOOTH",
"698 366 LINE SMOOTH"
);
},
{
closed = 1;
nodes = (
"152 177 OFFCURVE",
"85 264 OFFCURVE",
"85 349 CURVE SMOOTH",
"85 434 OFFCURVE",
"152 527 OFFCURVE",
"379 527 CURVE SMOOTH",
"606 527 OFFCURVE",
"673 434 OFFCURVE",
"673 349 CURVE SMOOTH",
"673 264 OFFCURVE",
"606 177 OFFCURVE",
"379 177 CURVE SMOOTH"
);
}
);
width = 758;
},
{
associatedMasterId = "66D417ED-19C2-41B2-B946-B4104EEC6A8E";
layerId = "4EE269A0-B0C6-4DA4-B020-DC5D44140976";
name = "Feb 25 20, 23:47";
paths = (
{
closed = 1;
nodes = (
"-17 603 OFFCURVE",
"-9 356 OFFCURVE",
"21 265 CURVE SMOOTH",
"31 235 LINE SMOOTH",
"61 143 OFFCURVE",
"199 -61 OFFCURVE",
"445 19 CURVE SMOOTH",
"691 99 OFFCURVE",
"683 346 OFFCURVE",
"653 437 CURVE SMOOTH",
"643 467 LINE SMOOTH",
"613 559 OFFCURVE",
"475 763 OFFCURVE",
"229 683 CURVE SMOOTH"
);
},
{
closed = 1;
nodes = (
"195 112 OFFCURVE",
"89 134 OFFCURVE",
"48 262 CURVE SMOOTH",
"29 321 OFFCURVE",
"41 384 OFFCURVE",
"78 422 CURVE SMOOTH",
"112 456 OFFCURVE",
"175 444 OFFCURVE",
"286 487 CURVE SMOOTH",
"382 524 OFFCURVE",
"451 580 OFFCURVE",
"496 579 CURVE SMOOTH",
"551 579 OFFCURVE",
"600 517 OFFCURVE",
"622 451 CURVE SMOOTH",
"656 349 OFFCURVE",
"539 212 OFFCURVE",
"389 168 CURVE SMOOTH"
);
}
);
width = 674;
},
{
associatedMasterId = "66D417ED-19C2-41B2-B946-B4104EEC6A8E";
layerId = "87893B0E-955D-4CD4-9623-2226CE8B9AEE";
name = "Feb 26 20, 09:41";
paths = (
{
closed = 1;
nodes = (
"27 599 OFFCURVE",
"-19 383 OFFCURVE",
"37 230 CURVE SMOOTH",
"113 21 OFFCURVE",
"333 -35 OFFCURVE",
"486 21 CURVE SMOOTH",
"695 97 OFFCURVE",
"751 317 OFFCURVE",
"695 470 CURVE SMOOTH",
"619 679 OFFCURVE",
"399 735 OFFCURVE",
"246 679 CURVE SMOOTH"
);
},
{
closed = 1;
nodes = (
"366 193 OFFCURVE",
"109 118 OFFCURVE",
"56 264 CURVE SMOOTH",
"29 337 OFFCURVE",
"204 347 OFFCURVE",
"365 406 CURVE SMOOTH",
"500 455 OFFCURVE",
"601 637 OFFCURVE",
"646 515 CURVE SMOOTH",
"710 337 OFFCURVE",
"489 238 OFFCURVE",
"428 216 CURVE SMOOTH"
);
}
);
width = 730;
},
{
associatedMasterId = "66D417ED-19C2-41B2-B946-B4104EEC6A8E";
layerId = "33C4C483-3686-46A0-A495-840A7423F88A";
name = "Feb 26 20, 10:18";
paths = (
{
closed = 1;
nodes = (
"52 599 OFFCURVE",
"6 383 OFFCURVE",
"62 230 CURVE SMOOTH",
"138 21 OFFCURVE",
"358 -35 OFFCURVE",
"511 21 CURVE SMOOTH",
"720 97 OFFCURVE",
"776 317 OFFCURVE",
"720 470 CURVE SMOOTH",
"644 679 OFFCURVE",
"424 735 OFFCURVE",
"271 679 CURVE SMOOTH"
);
},
{
closed = 1;
nodes = (
"391 193 OFFCURVE",
"134 118 OFFCURVE",
"81 264 CURVE SMOOTH",
"54 337 OFFCURVE",
"229 347 OFFCURVE",
"390 406 CURVE SMOOTH",
"525 455 OFFCURVE",
"626 637 OFFCURVE",
"671 515 CURVE SMOOTH",
"735 337 OFFCURVE",
"514 238 OFFCURVE",
"453 216 CURVE SMOOTH"
);
}
);
width = 780;
},
{
associatedMasterId = "66D417ED-19C2-41B2-B946-B4104EEC6A8E";
layerId = "703A1F21-531F-406E-9FC4-26A7720A4EF1";
name = "Feb 26 20, 10:30";
paths = (
{
closed = 1;
nodes = (
"54 650 OFFCURVE",
"27 404 OFFCURVE",
"44 310 CURVE SMOOTH",
"50 279 LINE SMOOTH",
"67 183 OFFCURVE",
"175 -38 OFFCURVE",
"430 7 CURVE SMOOTH",
"684 52 OFFCURVE",
"712 298 OFFCURVE",
"694 392 CURVE SMOOTH",
"688 423 LINE SMOOTH",
"669 519 OFFCURVE",
"563 740 OFFCURVE",
"308 695 CURVE SMOOTH"
);
},
{
closed = 1;
nodes = (
"195 135 OFFCURVE",
"93 171 OFFCURVE",
"70 303 CURVE SMOOTH",
"60 364 OFFCURVE",
"80 425 OFFCURVE",
"122 457 CURVE SMOOTH",
"161 486 OFFCURVE",
"221 467 OFFCURVE",
"337 493 CURVE SMOOTH",
"438 516 OFFCURVE",
"514 562 OFFCURVE",
"558 555 CURVE SMOOTH",
"613 546 OFFCURVE",
"653 479 OFFCURVE",
"665 410 CURVE SMOOTH",
"683 305 OFFCURVE",
"550 185 OFFCURVE",
"395 163 CURVE SMOOTH"
);
}
);
width = 738;
},
{
associatedMasterId = "66D417ED-19C2-41B2-B946-B4104EEC6A8E";
layerId = "16BC9F7B-7CA0-4518-9558-9A2559B1F447";
name = "Feb 26 20, 11:56";
paths = (
{
closed = 1;
nodes = (
"110 700 OFFCURVE",
"41 463 OFFCURVE",
"42 367 CURVE SMOOTH",
"42 335 LINE SMOOTH",
"42 239 OFFCURVE",
"110 -1 OFFCURVE",
"369 0 CURVE SMOOTH",
"627 0 OFFCURVE",
"698 239 OFFCURVE",
"696 335 CURVE SMOOTH",
"696 367 LINE SMOOTH",
"694 464 OFFCURVE",
"628 700 OFFCURVE",
"369 700 CURVE SMOOTH"
);
},
{
closed = 1;
nodes = (
"160 177 OFFCURVE",
"67 221 OFFCURVE",
"67 356 CURVE SMOOTH",
"67 467 OFFCURVE",
"187 527 OFFCURVE",
"369 527 CURVE SMOOTH",
"558 527 OFFCURVE",
"671 501 OFFCURVE",
"671 358 CURVE SMOOTH",
"671 251 OFFCURVE",
"518 177 OFFCURVE",
"362 177 CURVE SMOOTH"
);
}
);
width = 738;
},
{
associatedMasterId = "66D417ED-19C2-41B2-B946-B4104EEC6A8E";
layerId = "DE867FEE-7C30-46EB-839E-2A0FE1B35C7B";
name = "Feb 26 20, 12:05";
paths = (
{
closed = 1;
nodes = (
"108 700 OFFCURVE",
"40 523 OFFCURVE",
"40 367 CURVE SMOOTH",
"40 335 LINE SMOOTH",
"40 199 OFFCURVE",
"108 0 OFFCURVE",
"307 0 CURVE SMOOTH",
"520 0 OFFCURVE",
"589 199 OFFCURVE",
"589 335 CURVE SMOOTH",
"589 367 LINE SMOOTH",
"589 524 OFFCURVE",
"521 700 OFFCURVE",
"307 700 CURVE SMOOTH"
);
},
{
closed = 1;
nodes = (
"158 177 OFFCURVE",
"65 181 OFFCURVE",
"65 356 CURVE SMOOTH",
"65 517 OFFCURVE",
"225 527 OFFCURVE",
"307 527 CURVE SMOOTH",
"401 527 OFFCURVE",
"564 551 OFFCURVE",
"564 358 CURVE SMOOTH",
"564 211 OFFCURVE",
"444 177 OFFCURVE",
"300 177 CURVE SMOOTH"
);
}
);
width = 629;
},
{
layerId = "A4F58C8D-8D17-43C2-93E4-A012F059F067";
paths = (
{
closed = 1;
nodes = (
"698 506 OFFCURVE",
"619 700 OFFCURVE",
"379 700 CURVE SMOOTH",
"139 700 OFFCURVE",
"60 506 OFFCURVE",
"60 366 CURVE SMOOTH",
"60 334 LINE SMOOTH",
"60 194 OFFCURVE",
"139 0 OFFCURVE",
"379 0 CURVE SMOOTH",
"619 0 OFFCURVE",
"698 194 OFFCURVE",
"698 334 CURVE SMOOTH",
"698 366 LINE SMOOTH"
);
},
{
closed = 1;
nodes = (
"152 30 OFFCURVE",
"90 224 OFFCURVE",
"90 349 CURVE SMOOTH",
"90 484 OFFCURVE",
"152 670 OFFCURVE",
"379 670 CURVE SMOOTH",
"606 670 OFFCURVE",
"668 484 OFFCURVE",
"668 349 CURVE SMOOTH",
"668 224 OFFCURVE",
"606 30 OFFCURVE",
"379 30 CURVE SMOOTH"
);
}
);
width = 758;
},
{
associatedMasterId = "A4F58C8D-8D17-43C2-93E4-A012F059F067";
layerId = "291E353F-30C3-4D65-85A0-36C52E24CE88";
name = "Feb 25 20, 23:47";
paths = (
{
closed = 1;
nodes = (
"-17 603 OFFCURVE",
"-9 356 OFFCURVE",
"21 265 CURVE SMOOTH",
"31 235 LINE SMOOTH",
"61 143 OFFCURVE",
"199 -61 OFFCURVE",
"445 19 CURVE SMOOTH",
"691 99 OFFCURVE",
"683 346 OFFCURVE",
"653 437 CURVE SMOOTH",
"643 467 LINE SMOOTH",
"613 559 OFFCURVE",
"475 763 OFFCURVE",
"229 683 CURVE SMOOTH"
);
},
{
closed = 1;
nodes = (
"195 112 OFFCURVE",
"89 134 OFFCURVE",
"48 262 CURVE SMOOTH",
"29 321 OFFCURVE",
"41 384 OFFCURVE",
"78 422 CURVE SMOOTH",
"112 456 OFFCURVE",
"175 444 OFFCURVE",
"286 487 CURVE SMOOTH",
"382 524 OFFCURVE",
"451 580 OFFCURVE",
"496 579 CURVE SMOOTH",
"551 579 OFFCURVE",
"600 517 OFFCURVE",
"622 451 CURVE SMOOTH",
"656 349 OFFCURVE",
"539 212 OFFCURVE",
"389 168 CURVE SMOOTH"
);
}
);
width = 674;
},
{
associatedMasterId = "A4F58C8D-8D17-43C2-93E4-A012F059F067";
layerId = "633EA6BD-FF9F-4F3C-8C4E-D10ECBB6DBDA";
name = "Feb 26 20, 09:41";
paths = (
{
closed = 1;
nodes = (
"27 599 OFFCURVE",
"-19 383 OFFCURVE",
"37 230 CURVE SMOOTH",
"113 21 OFFCURVE",
"333 -35 OFFCURVE",
"486 21 CURVE SMOOTH",
"695 97 OFFCURVE",
"751 317 OFFCURVE",
"695 470 CURVE SMOOTH",
"619 679 OFFCURVE",
"399 735 OFFCURVE",
"246 679 CURVE SMOOTH"
);
},
{
closed = 1;
nodes = (
"366 193 OFFCURVE",
"109 118 OFFCURVE",
"56 264 CURVE SMOOTH",
"29 337 OFFCURVE",
"204 347 OFFCURVE",
"365 406 CURVE SMOOTH",
"500 455 OFFCURVE",
"601 637 OFFCURVE",
"646 515 CURVE SMOOTH",
"710 337 OFFCURVE",
"489 238 OFFCURVE",
"428 216 CURVE SMOOTH"
);
}
);
width = 730;
},
{
associatedMasterId = "A4F58C8D-8D17-43C2-93E4-A012F059F067";
layerId = "A7CD823A-0BFD-4301-B4C7-053D78BAEFCD";
name = "Feb 26 20, 10:18";
paths = (
{
closed = 1;
nodes = (
"52 599 OFFCURVE",
"6 383 OFFCURVE",
"62 230 CURVE SMOOTH",
"138 21 OFFCURVE",
"358 -35 OFFCURVE",
"511 21 CURVE SMOOTH",
"720 97 OFFCURVE",
"776 317 OFFCURVE",
"720 470 CURVE SMOOTH",
"644 679 OFFCURVE",
"424 735 OFFCURVE",
"271 679 CURVE SMOOTH"
);
},
{
closed = 1;
nodes = (
"391 193 OFFCURVE",
"134 118 OFFCURVE",
"81 264 CURVE SMOOTH",
"54 337 OFFCURVE",
"229 347 OFFCURVE",
"390 406 CURVE SMOOTH",
"525 455 OFFCURVE",
"626 637 OFFCURVE",
"671 515 CURVE SMOOTH",
"735 337 OFFCURVE",
"514 238 OFFCURVE",
"453 216 CURVE SMOOTH"
);
}
);
width = 780;
},
{
associatedMasterId = "A4F58C8D-8D17-43C2-93E4-A012F059F067";
layerId = "29D4F711-9ADC-4632-AE8A-46D9318DCDED";
name = "Feb 26 20, 10:30";
paths = (
{
closed = 1;
nodes = (
"54 650 OFFCURVE",
"27 404 OFFCURVE",
"44 310 CURVE SMOOTH",
"50 279 LINE SMOOTH",
"67 183 OFFCURVE",
"175 -38 OFFCURVE",
"430 7 CURVE SMOOTH",
"684 52 OFFCURVE",
"712 298 OFFCURVE",
"694 392 CURVE SMOOTH",
"688 423 LINE SMOOTH",
"669 519 OFFCURVE",
"563 740 OFFCURVE",
"308 695 CURVE SMOOTH"
);
},
{
closed = 1;
nodes = (
"195 135 OFFCURVE",
"93 171 OFFCURVE",
"70 303 CURVE SMOOTH",
"60 364 OFFCURVE",
"80 425 OFFCURVE",
"122 457 CURVE SMOOTH",
"161 486 OFFCURVE",
"221 467 OFFCURVE",
"337 493 CURVE SMOOTH",
"438 516 OFFCURVE",
"514 562 OFFCURVE",
"558 555 CURVE SMOOTH",
"613 546 OFFCURVE",
"653 479 OFFCURVE",
"665 410 CURVE SMOOTH",
"683 305 OFFCURVE",
"550 185 OFFCURVE",
"395 163 CURVE SMOOTH"
);
}
);
width = 738;
},
{
associatedMasterId = "A4F58C8D-8D17-43C2-93E4-A012F059F067";
layerId = "6BD96D64-6025-44B7-A540-A95CEE77A688";
name = "Feb 26 20, 11:56";
paths = (
{
closed = 1;
nodes = (
"110 700 OFFCURVE",
"41 463 OFFCURVE",
"42 367 CURVE SMOOTH",
"42 335 LINE SMOOTH",
"42 239 OFFCURVE",
"110 -1 OFFCURVE",
"369 0 CURVE SMOOTH",
"627 0 OFFCURVE",
"698 239 OFFCURVE",
"696 335 CURVE SMOOTH",
"696 367 LINE SMOOTH",
"694 464 OFFCURVE",
"628 700 OFFCURVE",
"369 700 CURVE SMOOTH"
);
},
{
closed = 1;
nodes = (
"160 177 OFFCURVE",
"67 221 OFFCURVE",
"67 356 CURVE SMOOTH",
"67 467 OFFCURVE",
"187 527 OFFCURVE",
"369 527 CURVE SMOOTH",
"558 527 OFFCURVE",
"671 501 OFFCURVE",
"671 358 CURVE SMOOTH",
"671 251 OFFCURVE",
"518 177 OFFCURVE",
"362 177 CURVE SMOOTH"
);
}
);
width = 738;
},
{
associatedMasterId = "A4F58C8D-8D17-43C2-93E4-A012F059F067";
layerId = "8E60FFF7-EE97-42D6-912E-7BBD15D3AFB8";
name = "Feb 26 20, 12:05";
paths = (
{
closed = 1;
nodes = (
"108 700 OFFCURVE",
"40 523 OFFCURVE",
"40 367 CURVE SMOOTH",
"40 335 LINE SMOOTH",
"40 199 OFFCURVE",
"108 0 OFFCURVE",
"307 0 CURVE SMOOTH",
"520 0 OFFCURVE",
"589 199 OFFCURVE",
"589 335 CURVE SMOOTH",
"589 367 LINE SMOOTH",
"589 524 OFFCURVE",
"521 700 OFFCURVE",
"307 700 CURVE SMOOTH"
);
},
{
closed = 1;
nodes = (
"158 177 OFFCURVE",
"65 181 OFFCURVE",
"65 356 CURVE SMOOTH",
"65 517 OFFCURVE",
"225 527 OFFCURVE",
"307 527 CURVE SMOOTH",
"401 527 OFFCURVE",
"564 551 OFFCURVE",
"564 358 CURVE SMOOTH",
"564 211 OFFCURVE",
"444 177 OFFCURVE",
"300 177 CURVE SMOOTH"
);
}
);
width = 629;
}
);
leftKerningGroup = O;
rightKerningGroup = O;
unicode = "004F,006F";
},
{
glyphname = P;
lastChange = "2020-06-18 00:19:48 +0000";
layers = (
{
layerId = "66D417ED-19C2-41B2-B946-B4104EEC6A8E";
paths = (
{
closed = 1;
nodes = (
"234 166 LINE",
"234 588 LINE",
"204 588 LINE",
"204 166 LINE"
);
},
{
closed = 1;
nodes = (
"70 700 LINE",
"70 530 LINE",
"521 530 LINE SMOOTH",
"587 530 OFFCURVE",
"629 509 OFFCURVE",
"629 478 CURVE SMOOTH",
"629 461 OFFCURVE",
"620 430 OFFCURVE",
"550 430 CURVE SMOOTH",
"220 430 LINE",
"220 400 LINE",
"292 400 OFFCURVE",
"445 400 OFFCURVE",
"539 400 CURVE SMOOTH",
"660 400 OFFCURVE",
"669 470 OFFCURVE",
"669 506 CURVE SMOOTH",
"669 619 OFFCURVE",
"584 700 OFFCURVE",
"408 700 CURVE SMOOTH"
);
},
{
closed = 1;
nodes = (
"70 0 LINE",
"377 0 LINE",
"377 177 LINE",
"70 177 LINE"
);
}
);
width = 679;
},
{
layerId = "A4F58C8D-8D17-43C2-93E4-A012F059F067";
paths = (
{
closed = 1;
nodes = (
"234 26 LINE",
"234 688 LINE",
"204 688 LINE",
"204 26 LINE"
);
},
{
closed = 1;
nodes = (
"70 700 LINE",
"70 670 LINE",
"431 670 LINE SMOOTH",
"592 670 OFFCURVE",
"639 632 OFFCURVE",
"639 546 CURVE SMOOTH",
"639 467 OFFCURVE",
"580 430 OFFCURVE",
"450 430 CURVE SMOOTH",
"220 430 LINE",
"220 400 LINE",
"292 400 OFFCURVE",
"422 400 OFFCURVE",
"466 400 CURVE SMOOTH",
"586 400 OFFCURVE",
"669 450 OFFCURVE",
"669 546 CURVE SMOOTH",
"669 659 OFFCURVE",
"594 700 OFFCURVE",
"448 700 CURVE SMOOTH"
);
},
{
closed = 1;
nodes = (
"70 0 LINE",
"368 0 LINE",
"368 30 LINE",
"70 30 LINE"
);
}
);
width = 729;
}
);
unicode = "0050,0070";
},
{
glyphname = Q;
lastChange = "2020-06-18 00:43:24 +0000";
layers = (
{
layerId = "66D417ED-19C2-41B2-B946-B4104EEC6A8E";
paths = (
{
closed = 1;
nodes = (
"625 167 LINE",
"623 155 OFFCURVE",
"616 142 OFFCURVE",
"607 129 CURVE SMOOTH",
"594 110 OFFCURVE",
"561 61 OFFCURVE",
"541 33 CURVE SMOOTH",
"460 -84 OFFCURVE",
"524 -174 OFFCURVE",
"594 -181 CURVE SMOOTH",
"663 -188 OFFCURVE",
"727 -158 OFFCURVE",
"775 -102 CURVE",
"705 33 LINE",
"689 24 OFFCURVE",
"653 4 OFFCURVE",
"623 27 CURVE SMOOTH",
"606 40 OFFCURVE",
"594 57 OFFCURVE",
"613 87 CURVE SMOOTH",
"640 130 OFFCURVE",
"658 157 OFFCURVE",
"659 182 CURVE"
);
},
{
closed = 1;
nodes = (
"698 506 OFFCURVE",
"619 700 OFFCURVE",
"379 700 CURVE SMOOTH",
"139 700 OFFCURVE",
"60 506 OFFCURVE",
"60 366 CURVE SMOOTH",
"60 334 LINE SMOOTH",
"60 194 OFFCURVE",
"139 0 OFFCURVE",
"379 0 CURVE SMOOTH",
"619 0 OFFCURVE",
"698 194 OFFCURVE",
"698 334 CURVE SMOOTH",
"698 366 LINE SMOOTH"
);
},
{
closed = 1;
nodes = (
"152 177 OFFCURVE",
"85 264 OFFCURVE",
"85 349 CURVE SMOOTH",
"85 434 OFFCURVE",
"152 527 OFFCURVE",
"379 527 CURVE SMOOTH",
"606 527 OFFCURVE",
"673 434 OFFCURVE",
"673 349 CURVE SMOOTH",
"673 264 OFFCURVE",
"606 177 OFFCURVE",
"379 177 CURVE SMOOTH"
);
}
);
width = 775;
},
{
associatedMasterId = "66D417ED-19C2-41B2-B946-B4104EEC6A8E";
layerId = "5A55A477-AFDF-4594-93B0-525A389AA6E0";
name = "Feb 27 20, 22:09";
paths = (
{
closed = 1;
nodes = (
"108 700 OFFCURVE",
"39 463 OFFCURVE",
"40 367 CURVE SMOOTH",
"40 335 LINE SMOOTH",
"40 239 OFFCURVE",
"108 -1 OFFCURVE",
"367 0 CURVE SMOOTH",
"625 0 OFFCURVE",
"696 239 OFFCURVE",
"694 335 CURVE SMOOTH",
"694 367 LINE SMOOTH",
"692 464 OFFCURVE",
"626 700 OFFCURVE",
"367 700 CURVE SMOOTH"
);
},
{
closed = 1;
nodes = (
"158 177 OFFCURVE",
"65 221 OFFCURVE",
"65 356 CURVE SMOOTH",
"65 467 OFFCURVE",
"185 527 OFFCURVE",
"367 527 CURVE SMOOTH",
"556 527 OFFCURVE",
"669 501 OFFCURVE",
"669 358 CURVE SMOOTH",
"669 251 OFFCURVE",
"516 177 OFFCURVE",
"360 177 CURVE SMOOTH"
);
},
{
closed = 1;
nodes = (
"609 167 LINE",
"607 155 OFFCURVE",
"600 142 OFFCURVE",
"591 129 CURVE SMOOTH",
"578 110 OFFCURVE",
"544 60 OFFCURVE",
"525 33 CURVE SMOOTH",
"477 -36 OFFCURVE",
"475 -112 OFFCURVE",
"538 -156 CURVE SMOOTH",
"624 -216 OFFCURVE",
"711 -158 OFFCURVE",
"759 -102 CURVE",
"689 33 LINE",
"673 24 OFFCURVE",
"637 4 OFFCURVE",
"607 27 CURVE SMOOTH",
"590 40 OFFCURVE",
"578 57 OFFCURVE",
"597 87 CURVE SMOOTH",
"624 130 OFFCURVE",
"642 157 OFFCURVE",
"643 182 CURVE"
);
}
);
width = 760;
},
{
guideLines = (
{
angle = 118.7747;
position = "{777, -22}";
}
);
layerId = "A4F58C8D-8D17-43C2-93E4-A012F059F067";
paths = (
{
closed = 1;
nodes = (
"625 167 LINE",
"623 155 OFFCURVE",
"616 142 OFFCURVE",
"607 129 CURVE SMOOTH",
"594 110 OFFCURVE",
"594 111 OFFCURVE",
"574 82 CURVE SMOOTH",
"542 36 OFFCURVE",
"544 -50 OFFCURVE",
"605 -79 CURVE SMOOTH",
"677 -113 OFFCURVE",
"731 -85 OFFCURVE",
"779 -49 CURVE",
"764 -23 LINE",
"741 -42 OFFCURVE",
"678 -87 OFFCURVE",
"614 -49 CURVE SMOOTH",
"575 -26 OFFCURVE",
"576 50 OFFCURVE",
"605 87 CURVE SMOOTH",
"636 126 OFFCURVE",
"658 157 OFFCURVE",
"659 182 CURVE"
);
},
{
closed = 1;
nodes = (
"698 506 OFFCURVE",
"619 700 OFFCURVE",
"379 700 CURVE SMOOTH",
"139 700 OFFCURVE",
"60 506 OFFCURVE",
"60 366 CURVE SMOOTH",
"60 334 LINE SMOOTH",
"60 194 OFFCURVE",
"139 0 OFFCURVE",
"379 0 CURVE SMOOTH",
"619 0 OFFCURVE",
"698 194 OFFCURVE",
"698 334 CURVE SMOOTH",
"698 366 LINE SMOOTH"
);
},
{
closed = 1;
nodes = (
"152 30 OFFCURVE",
"90 224 OFFCURVE",
"90 349 CURVE SMOOTH",
"90 484 OFFCURVE",
"152 670 OFFCURVE",
"379 670 CURVE SMOOTH",
"606 670 OFFCURVE",
"668 484 OFFCURVE",
"668 349 CURVE SMOOTH",
"668 224 OFFCURVE",
"606 30 OFFCURVE",
"379 30 CURVE SMOOTH"
);
}
);
width = 759;
},
{
associatedMasterId = "A4F58C8D-8D17-43C2-93E4-A012F059F067";
layerId = "E830588C-3E3A-41F4-9D9B-E893F18E20B4";
name = "Feb 27 20, 22:09";
paths = (
{
closed = 1;
nodes = (
"108 700 OFFCURVE",
"39 463 OFFCURVE",
"40 367 CURVE SMOOTH",
"40 335 LINE SMOOTH",
"40 239 OFFCURVE",
"108 -1 OFFCURVE",
"367 0 CURVE SMOOTH",
"625 0 OFFCURVE",
"696 239 OFFCURVE",
"694 335 CURVE SMOOTH",
"694 367 LINE SMOOTH",
"692 464 OFFCURVE",
"626 700 OFFCURVE",
"367 700 CURVE SMOOTH"
);
},
{
closed = 1;
nodes = (
"158 177 OFFCURVE",
"65 221 OFFCURVE",
"65 356 CURVE SMOOTH",
"65 467 OFFCURVE",
"185 527 OFFCURVE",
"367 527 CURVE SMOOTH",
"556 527 OFFCURVE",
"669 501 OFFCURVE",
"669 358 CURVE SMOOTH",
"669 251 OFFCURVE",
"516 177 OFFCURVE",
"360 177 CURVE SMOOTH"
);
},
{
closed = 1;
nodes = (
"609 167 LINE",
"607 155 OFFCURVE",
"600 142 OFFCURVE",
"591 129 CURVE SMOOTH",
"578 110 OFFCURVE",
"544 60 OFFCURVE",
"525 33 CURVE SMOOTH",
"477 -36 OFFCURVE",
"475 -112 OFFCURVE",
"538 -156 CURVE SMOOTH",
"624 -216 OFFCURVE",
"711 -158 OFFCURVE",
"759 -102 CURVE",
"689 33 LINE",
"673 24 OFFCURVE",
"637 4 OFFCURVE",
"607 27 CURVE SMOOTH",
"590 40 OFFCURVE",
"578 57 OFFCURVE",
"597 87 CURVE SMOOTH",
"624 130 OFFCURVE",
"642 157 OFFCURVE",
"643 182 CURVE"
);
}
);
width = 760;
}
);
leftKerningGroup = Q;
unicode = "0051,0071";
},
{
glyphname = R;
lastChange = "2020-06-18 00:19:42 +0000";
layers = (
{
background = {
components = (
{
name = A;
transform = "{-1, 0, 0, 1, 692, 0}";
}
);
paths = (
{
closed = 1;
nodes = (
"708 506 OFFCURVE",
"629 700 OFFCURVE",
"389 700 CURVE SMOOTH",
"149 700 OFFCURVE",
"70 506 OFFCURVE",
"70 366 CURVE SMOOTH",
"70 334 LINE SMOOTH",
"70 194 OFFCURVE",
"149 0 OFFCURVE",
"389 0 CURVE SMOOTH",
"629 0 OFFCURVE",
"708 194 OFFCURVE",
"708 334 CURVE SMOOTH",
"708 366 LINE SMOOTH"
);
},
{
closed = 1;
nodes = (
"162 177 OFFCURVE",
"95 264 OFFCURVE",
"95 349 CURVE SMOOTH",
"95 434 OFFCURVE",
"162 527 OFFCURVE",
"389 527 CURVE SMOOTH",
"616 527 OFFCURVE",
"683 434 OFFCURVE",
"683 349 CURVE SMOOTH",
"683 264 OFFCURVE",
"616 177 OFFCURVE",
"389 177 CURVE SMOOTH"
);
}
);
};
guideLines = (
{
position = "{-238, 400}";
}
);
layerId = "66D417ED-19C2-41B2-B946-B4104EEC6A8E";
paths = (
{
closed = 1;
nodes = (
"234 166 LINE",
"234 588 LINE",
"204 588 LINE",
"204 166 LINE"
);
},
{
closed = 1;
nodes = (
"70 700 LINE",
"70 527 LINE",
"521 527 LINE SMOOTH",
"587 527 OFFCURVE",
"629 506 OFFCURVE",
"629 478 CURVE SMOOTH",
"629 461 OFFCURVE",
"620 430 OFFCURVE",
"550 430 CURVE SMOOTH",
"220 430 LINE",
"220 400 LINE",
"342 400 OFFCURVE",
"445 400 OFFCURVE",
"539 400 CURVE SMOOTH",
"660 400 OFFCURVE",
"669 470 OFFCURVE",
"669 506 CURVE SMOOTH",
"669 619 OFFCURVE",
"584 700 OFFCURVE",
"408 700 CURVE SMOOTH"
);
},
{
closed = 1;
nodes = (
"212 400 LINE",
"314 400 LINE",
"480 400 OFFCURVE",
"499 374 OFFCURVE",
"499 264 CURVE SMOOTH",
"499 241 OFFCURVE",
"500 179 OFFCURVE",
"500 147 CURVE SMOOTH",
"500 64 OFFCURVE",
"541 0 OFFCURVE",
"618 0 CURVE SMOOTH",
"724 0 OFFCURVE",
"762 100 OFFCURVE",
"769 171 CURVE",
"633 241 LINE",
"626 226 OFFCURVE",
"608 189 OFFCURVE",
"571 189 CURVE SMOOTH",
"549 189 OFFCURVE",
"528 198 OFFCURVE",
"528 233 CURVE SMOOTH",
"528 394 OFFCURVE",
"514 430 OFFCURVE",
"322 430 CURVE",
"212 430 LINE"
);
},
{
closed = 1;
nodes = (
"70 0 LINE",
"377 0 LINE",
"377 177 LINE",
"70 177 LINE"
);
}
);
width = 779;
},
{
associatedMasterId = "66D417ED-19C2-41B2-B946-B4104EEC6A8E";
layerId = "201A0A1E-F8CC-408C-92FF-7064117F08A5";
name = "Feb 26 20, 01:37";
paths = (
{
closed = 1;
nodes = (
"179 166 LINE",
"179 588 LINE",
"149 588 LINE",
"149 166 LINE"
);
},
{
closed = 1;
nodes = (
"15 703 LINE",
"15 530 LINE",
"385 530 LINE SMOOTH",
"512 530 OFFCURVE",
"534 490 OFFCURVE",
"534 467 CURVE SMOOTH",
"534 424 OFFCURVE",
"498 382 OFFCURVE",
"385 382 CURVE SMOOTH",
"165 382 LINE",
"165 352 LINE",
"239 352 OFFCURVE",
"312 352 OFFCURVE",
"386 352 CURVE SMOOTH",
"494 352 OFFCURVE",
"564 377 OFFCURVE",
"564 506 CURVE SMOOTH",
"564 588 OFFCURVE",
"466 703 OFFCURVE",
"283 703 CURVE SMOOTH"
);
},
{
closed = 1;
nodes = (
"157 352 LINE",
"209 352 LINE",
"375 352 OFFCURVE",
"394 326 OFFCURVE",
"394 216 CURVE SMOOTH",
"394 193 OFFCURVE",
"395 179 OFFCURVE",
"395 147 CURVE SMOOTH",
"395 64 OFFCURVE",
"436 0 OFFCURVE",
"513 0 CURVE SMOOTH",
"619 0 OFFCURVE",
"657 100 OFFCURVE",
"664 171 CURVE",
"528 241 LINE",
"521 226 OFFCURVE",
"503 189 OFFCURVE",
"466 189 CURVE SMOOTH",
"444 189 OFFCURVE",
"423 198 OFFCURVE",
"423 233 CURVE SMOOTH",
"423 346 OFFCURVE",
"384 382 OFFCURVE",
"217 382 CURVE",
"157 382 LINE"
);
},
{
closed = 1;
nodes = (
"15 0 LINE",
"322 0 LINE",
"322 177 LINE",
"15 177 LINE"
);
}
);
width = 679;
},
{
associatedMasterId = "66D417ED-19C2-41B2-B946-B4104EEC6A8E";
guideLines = (
{
position = "{-293, 400}";
}
);
layerId = "4D0072F7-4BA6-4F06-BC05-77E4DFA38E43";
name = "Feb 26 20, 01:38";
paths = (
{
closed = 1;
nodes = (
"179 166 LINE",
"179 588 LINE",
"149 588 LINE",
"149 166 LINE"
);
},
{
closed = 1;
nodes = (
"15 703 LINE",
"15 530 LINE",
"385 530 LINE SMOOTH",
"512 530 OFFCURVE",
"534 505 OFFCURVE",
"534 482 CURVE SMOOTH",
"534 449 OFFCURVE",
"498 430 OFFCURVE",
"385 430 CURVE SMOOTH",
"165 430 LINE",
"165 400 LINE",
"237 400 OFFCURVE",
"312 400 OFFCURVE",
"386 400 CURVE SMOOTH",
"494 400 OFFCURVE",
"564 412 OFFCURVE",
"564 501 CURVE SMOOTH",
"564 603 OFFCURVE",
"466 703 OFFCURVE",
"283 703 CURVE SMOOTH"
);
},
{
closed = 1;
nodes = (
"157 332 LINE",
"209 332 LINE",
"375 332 OFFCURVE",
"394 306 OFFCURVE",
"394 196 CURVE SMOOTH",
"394 173 OFFCURVE",
"395 179 OFFCURVE",
"395 147 CURVE SMOOTH",
"395 64 OFFCURVE",
"436 0 OFFCURVE",
"513 0 CURVE SMOOTH",
"619 0 OFFCURVE",
"657 100 OFFCURVE",
"664 171 CURVE",
"528 241 LINE",
"521 226 OFFCURVE",
"503 189 OFFCURVE",
"466 189 CURVE SMOOTH",
"444 189 OFFCURVE",
"423 198 OFFCURVE",
"423 233 CURVE SMOOTH",
"423 326 OFFCURVE",
"384 362 OFFCURVE",
"217 362 CURVE",
"157 362 LINE"
);
},
{
closed = 1;
nodes = (
"15 0 LINE",
"322 0 LINE",
"322 177 LINE",
"15 177 LINE"
);
}
);
width = 679;
},
{
associatedMasterId = "66D417ED-19C2-41B2-B946-B4104EEC6A8E";
guideLines = (
{
position = "{-293, 400}";
}
);
layerId = "916B0F76-D3E5-4DDA-B6BF-6EC5D6DFF392";
name = "Feb 26 20, 09:58";
paths = (
{
closed = 1;
nodes = (
"179 166 LINE",
"179 588 LINE",
"149 588 LINE",
"149 166 LINE"
);
},
{
closed = 1;
nodes = (
"15 703 LINE",
"15 530 LINE",
"385 530 LINE SMOOTH",
"512 530 OFFCURVE",
"534 505 OFFCURVE",
"534 482 CURVE SMOOTH",
"534 449 OFFCURVE",
"498 430 OFFCURVE",
"385 430 CURVE SMOOTH",
"165 430 LINE",
"165 400 LINE",
"237 400 OFFCURVE",
"312 400 OFFCURVE",
"386 400 CURVE SMOOTH",
"494 400 OFFCURVE",
"564 412 OFFCURVE",
"564 501 CURVE SMOOTH",
"564 603 OFFCURVE",
"466 703 OFFCURVE",
"283 703 CURVE SMOOTH"
);
},
{
closed = 1;
nodes = (
"157 400 LINE",
"209 400 LINE",
"375 400 OFFCURVE",
"394 374 OFFCURVE",
"394 264 CURVE SMOOTH",
"394 241 OFFCURVE",
"395 179 OFFCURVE",
"395 147 CURVE SMOOTH",
"395 64 OFFCURVE",
"436 0 OFFCURVE",
"513 0 CURVE SMOOTH",
"619 0 OFFCURVE",
"657 100 OFFCURVE",
"664 171 CURVE",
"528 241 LINE",
"521 226 OFFCURVE",
"503 189 OFFCURVE",
"466 189 CURVE SMOOTH",
"444 189 OFFCURVE",
"423 198 OFFCURVE",
"423 233 CURVE SMOOTH",
"423 394 OFFCURVE",
"384 430 OFFCURVE",
"217 430 CURVE",
"157 430 LINE"
);
},
{
closed = 1;
nodes = (
"15 0 LINE",
"322 0 LINE",
"322 177 LINE",
"15 177 LINE"
);
}
);
width = 679;
},
{
associatedMasterId = "66D417ED-19C2-41B2-B946-B4104EEC6A8E";
background = {
components = (
{
name = A;
transform = "{-1, 0, 0, 1, 662, 0}";
}
);
};
guideLines = (
{
position = "{-268, 400}";
}
);
layerId = "8826E65B-2E6A-4528-950C-34379942A4D9";
name = "Feb 26 20, 10:26";
paths = (
{
closed = 1;
nodes = (
"204 166 LINE",
"204 588 LINE",
"174 588 LINE",
"174 166 LINE"
);
},
{
closed = 1;
nodes = (
"40 700 LINE",
"40 530 LINE",
"441 530 LINE SMOOTH",
"507 530 OFFCURVE",
"549 509 OFFCURVE",
"549 478 CURVE SMOOTH",
"549 461 OFFCURVE",
"540 430 OFFCURVE",
"470 430 CURVE SMOOTH",
"190 430 LINE",
"190 400 LINE",
"262 400 OFFCURVE",
"365 400 OFFCURVE",
"459 400 CURVE SMOOTH",
"580 400 OFFCURVE",
"589 470 OFFCURVE",
"589 506 CURVE SMOOTH",
"589 619 OFFCURVE",
"504 700 OFFCURVE",
"328 700 CURVE SMOOTH"
);
},
{
closed = 1;
nodes = (
"182 400 LINE",
"234 400 LINE",
"400 400 OFFCURVE",
"419 374 OFFCURVE",
"419 264 CURVE SMOOTH",
"419 241 OFFCURVE",
"420 179 OFFCURVE",
"420 147 CURVE SMOOTH",
"420 64 OFFCURVE",
"461 0 OFFCURVE",
"538 0 CURVE SMOOTH",
"644 0 OFFCURVE",
"682 100 OFFCURVE",
"689 171 CURVE",
"553 241 LINE",
"546 226 OFFCURVE",
"528 189 OFFCURVE",
"491 189 CURVE SMOOTH",
"469 189 OFFCURVE",
"448 198 OFFCURVE",
"448 233 CURVE SMOOTH",
"448 394 OFFCURVE",
"434 430 OFFCURVE",
"242 430 CURVE",
"182 430 LINE"
);
},
{
closed = 1;
nodes = (
"40 0 LINE",
"347 0 LINE",
"347 177 LINE",
"40 177 LINE"
);
}
);
width = 729;
},
{
background = {
components = (
{
name = A;
transform = "{-1, 0, 0, 1, 692, 0}";
}
);
};
guideLines = (
{
position = "{-238, 400}";
}
);
layerId = "A4F58C8D-8D17-43C2-93E4-A012F059F067";
paths = (
{
closed = 1;
nodes = (
"234 26 LINE",
"234 688 LINE",
"204 688 LINE",
"204 26 LINE"
);
},
{
closed = 1;
nodes = (
"70 700 LINE",
"70 670 LINE",
"431 670 LINE SMOOTH",
"592 670 OFFCURVE",
"639 632 OFFCURVE",
"639 546 CURVE SMOOTH",
"639 467 OFFCURVE",
"580 430 OFFCURVE",
"450 430 CURVE SMOOTH",
"220 430 LINE",
"220 400 LINE",
"342 400 OFFCURVE",
"422 400 OFFCURVE",
"466 400 CURVE SMOOTH",
"586 400 OFFCURVE",
"669 450 OFFCURVE",
"669 546 CURVE SMOOTH",
"669 659 OFFCURVE",
"594 700 OFFCURVE",
"448 700 CURVE SMOOTH"
);
},
{
closed = 1;
nodes = (
"212 400 LINE",
"314 400 LINE",
"480 400 OFFCURVE",
"499 373 OFFCURVE",
"499 263 CURVE SMOOTH",
"499 240 OFFCURVE",
"500 211 OFFCURVE",
"500 190 CURVE SMOOTH",
"500 53 OFFCURVE",
"541 0 OFFCURVE",
"618 0 CURVE SMOOTH",
"724 0 OFFCURVE",
"762 100 OFFCURVE",
"769 171 CURVE",
"746 183 LINE",
"732 110 OFFCURVE",
"700 30 OFFCURVE",
"618 30 CURVE SMOOTH",
"550 30 OFFCURVE",
"528 100 OFFCURVE",
"528 208 CURVE SMOOTH",
"528 394 OFFCURVE",
"514 430 OFFCURVE",
"322 430 CURVE",
"212 430 LINE"
);
},
{
closed = 1;
nodes = (
"70 0 LINE",
"368 0 LINE",
"368 30 LINE",
"70 30 LINE"
);
}
);
width = 829;
},
{
associatedMasterId = "A4F58C8D-8D17-43C2-93E4-A012F059F067";
layerId = "46735B44-55DA-4DB9-B5C9-05BB84FE3209";
name = "Feb 26 20, 01:37";
paths = (
{
closed = 1;
nodes = (
"179 166 LINE",
"179 588 LINE",
"149 588 LINE",
"149 166 LINE"
);
},
{
closed = 1;
nodes = (
"15 703 LINE",
"15 530 LINE",
"385 530 LINE SMOOTH",
"512 530 OFFCURVE",
"534 490 OFFCURVE",
"534 467 CURVE SMOOTH",
"534 424 OFFCURVE",
"498 382 OFFCURVE",
"385 382 CURVE SMOOTH",
"165 382 LINE",
"165 352 LINE",
"239 352 OFFCURVE",
"312 352 OFFCURVE",
"386 352 CURVE SMOOTH",
"494 352 OFFCURVE",
"564 377 OFFCURVE",
"564 506 CURVE SMOOTH",
"564 588 OFFCURVE",
"466 703 OFFCURVE",
"283 703 CURVE SMOOTH"
);
},
{
closed = 1;
nodes = (
"157 352 LINE",
"209 352 LINE",
"375 352 OFFCURVE",
"394 326 OFFCURVE",
"394 216 CURVE SMOOTH",
"394 193 OFFCURVE",
"395 179 OFFCURVE",
"395 147 CURVE SMOOTH",
"395 64 OFFCURVE",
"436 0 OFFCURVE",
"513 0 CURVE SMOOTH",
"619 0 OFFCURVE",
"657 100 OFFCURVE",
"664 171 CURVE",
"528 241 LINE",
"521 226 OFFCURVE",
"503 189 OFFCURVE",
"466 189 CURVE SMOOTH",
"444 189 OFFCURVE",
"423 198 OFFCURVE",
"423 233 CURVE SMOOTH",
"423 346 OFFCURVE",
"384 382 OFFCURVE",
"217 382 CURVE",
"157 382 LINE"
);
},
{
closed = 1;
nodes = (
"15 0 LINE",
"322 0 LINE",
"322 177 LINE",
"15 177 LINE"
);
}
);
width = 679;
},
{
associatedMasterId = "A4F58C8D-8D17-43C2-93E4-A012F059F067";
guideLines = (
{
position = "{-293, 400}";
}
);
layerId = "5D0647DF-9EBF-4BD1-80CE-EF192C61C70E";
name = "Feb 26 20, 01:38";
paths = (
{
closed = 1;
nodes = (
"179 166 LINE",
"179 588 LINE",
"149 588 LINE",
"149 166 LINE"
);
},
{
closed = 1;
nodes = (
"15 703 LINE",
"15 530 LINE",
"385 530 LINE SMOOTH",
"512 530 OFFCURVE",
"534 505 OFFCURVE",
"534 482 CURVE SMOOTH",
"534 449 OFFCURVE",
"498 430 OFFCURVE",
"385 430 CURVE SMOOTH",
"165 430 LINE",
"165 400 LINE",
"237 400 OFFCURVE",
"312 400 OFFCURVE",
"386 400 CURVE SMOOTH",
"494 400 OFFCURVE",
"564 412 OFFCURVE",
"564 501 CURVE SMOOTH",
"564 603 OFFCURVE",
"466 703 OFFCURVE",
"283 703 CURVE SMOOTH"
);
},
{
closed = 1;
nodes = (
"157 332 LINE",
"209 332 LINE",
"375 332 OFFCURVE",
"394 306 OFFCURVE",
"394 196 CURVE SMOOTH",
"394 173 OFFCURVE",
"395 179 OFFCURVE",
"395 147 CURVE SMOOTH",
"395 64 OFFCURVE",
"436 0 OFFCURVE",
"513 0 CURVE SMOOTH",
"619 0 OFFCURVE",
"657 100 OFFCURVE",
"664 171 CURVE",
"528 241 LINE",
"521 226 OFFCURVE",
"503 189 OFFCURVE",
"466 189 CURVE SMOOTH",
"444 189 OFFCURVE",
"423 198 OFFCURVE",
"423 233 CURVE SMOOTH",
"423 326 OFFCURVE",
"384 362 OFFCURVE",
"217 362 CURVE",
"157 362 LINE"
);
},
{
closed = 1;
nodes = (
"15 0 LINE",
"322 0 LINE",
"322 177 LINE",
"15 177 LINE"
);
}
);
width = 679;
},
{
associatedMasterId = "A4F58C8D-8D17-43C2-93E4-A012F059F067";
guideLines = (
{
position = "{-293, 400}";
}
);
layerId = "4AB324A0-3B89-4FD6-8552-1EA3707CD9F2";
name = "Feb 26 20, 09:58";
paths = (
{
closed = 1;
nodes = (
"179 166 LINE",
"179 588 LINE",
"149 588 LINE",
"149 166 LINE"
);
},
{
closed = 1;
nodes = (
"15 703 LINE",
"15 530 LINE",
"385 530 LINE SMOOTH",
"512 530 OFFCURVE",
"534 505 OFFCURVE",
"534 482 CURVE SMOOTH",
"534 449 OFFCURVE",
"498 430 OFFCURVE",
"385 430 CURVE SMOOTH",
"165 430 LINE",
"165 400 LINE",
"237 400 OFFCURVE",
"312 400 OFFCURVE",
"386 400 CURVE SMOOTH",
"494 400 OFFCURVE",
"564 412 OFFCURVE",
"564 501 CURVE SMOOTH",
"564 603 OFFCURVE",
"466 703 OFFCURVE",
"283 703 CURVE SMOOTH"
);
},
{
closed = 1;
nodes = (
"157 400 LINE",
"209 400 LINE",
"375 400 OFFCURVE",
"394 374 OFFCURVE",
"394 264 CURVE SMOOTH",
"394 241 OFFCURVE",
"395 179 OFFCURVE",
"395 147 CURVE SMOOTH",
"395 64 OFFCURVE",
"436 0 OFFCURVE",
"513 0 CURVE SMOOTH",
"619 0 OFFCURVE",
"657 100 OFFCURVE",
"664 171 CURVE",
"528 241 LINE",
"521 226 OFFCURVE",
"503 189 OFFCURVE",
"466 189 CURVE SMOOTH",
"444 189 OFFCURVE",
"423 198 OFFCURVE",
"423 233 CURVE SMOOTH",
"423 394 OFFCURVE",
"384 430 OFFCURVE",
"217 430 CURVE",
"157 430 LINE"
);
},
{
closed = 1;
nodes = (
"15 0 LINE",
"322 0 LINE",
"322 177 LINE",
"15 177 LINE"
);
}
);
width = 679;
},
{
associatedMasterId = "A4F58C8D-8D17-43C2-93E4-A012F059F067";
background = {
components = (
{
name = A;
transform = "{-1, 0, 0, 1, 662, 0}";
}
);
};
guideLines = (
{
position = "{-268, 400}";
}
);
layerId = "F16A920C-CE0B-437E-9CA0-78920517F9DB";
name = "Feb 26 20, 10:26";
paths = (
{
closed = 1;
nodes = (
"204 166 LINE",
"204 588 LINE",
"174 588 LINE",
"174 166 LINE"
);
},
{
closed = 1;
nodes = (
"40 700 LINE",
"40 530 LINE",
"441 530 LINE SMOOTH",
"507 530 OFFCURVE",
"549 509 OFFCURVE",
"549 478 CURVE SMOOTH",
"549 461 OFFCURVE",
"540 430 OFFCURVE",
"470 430 CURVE SMOOTH",
"190 430 LINE",
"190 400 LINE",
"262 400 OFFCURVE",
"365 400 OFFCURVE",
"459 400 CURVE SMOOTH",
"580 400 OFFCURVE",
"589 470 OFFCURVE",
"589 506 CURVE SMOOTH",
"589 619 OFFCURVE",
"504 700 OFFCURVE",
"328 700 CURVE SMOOTH"
);
},
{
closed = 1;
nodes = (
"182 400 LINE",
"234 400 LINE",
"400 400 OFFCURVE",
"419 374 OFFCURVE",
"419 264 CURVE SMOOTH",
"419 241 OFFCURVE",
"420 179 OFFCURVE",
"420 147 CURVE SMOOTH",
"420 64 OFFCURVE",
"461 0 OFFCURVE",
"538 0 CURVE SMOOTH",
"644 0 OFFCURVE",
"682 100 OFFCURVE",
"689 171 CURVE",
"553 241 LINE",
"546 226 OFFCURVE",
"528 189 OFFCURVE",
"491 189 CURVE SMOOTH",
"469 189 OFFCURVE",
"448 198 OFFCURVE",
"448 233 CURVE SMOOTH",
"448 394 OFFCURVE",
"434 430 OFFCURVE",
"242 430 CURVE",
"182 430 LINE"
);
},
{
closed = 1;
nodes = (
"40 0 LINE",
"347 0 LINE",
"347 177 LINE",
"40 177 LINE"
);
}
);
width = 729;
}
);
rightKerningGroup = R;
unicode = "0052,0072";
},
{
glyphname = S;
lastChange = "2020-06-17 23:22:56 +0000";
layers = (
{
guideLines = (
{
position = "{457, 328}";
}
);
layerId = "66D417ED-19C2-41B2-B946-B4104EEC6A8E";
paths = (
{
closed = 1;
nodes = (
"70 0 LINE",
"336 0 LINE",
"254 65 OFFCURVE",
"210 143 OFFCURVE",
"197 248 CURVE",
"213 248 LINE",
"304 62 OFFCURVE",
"419 0 OFFCURVE",
"522 0 CURVE SMOOTH",
"631 0 OFFCURVE",
"724 56 OFFCURVE",
"724 169 CURVE SMOOTH",
"724 286 OFFCURVE",
"633 353 OFFCURVE",
"504 353 CURVE SMOOTH",
"487 353 OFFCURVE",
"469 353 OFFCURVE",
"451 353 CURVE SMOOTH",
"351 353 OFFCURVE",
"315 365 OFFCURVE",
"315 427 CURVE SMOOTH",
"315 479 OFFCURVE",
"354 526 OFFCURVE",
"416 526 CURVE SMOOTH",
"475 526 OFFCURVE",
"555 477 OFFCURVE",
"615 400 CURVE",
"794 400 LINE",
"794 700 LINE",
"557 700 LINE",
"621 632 OFFCURVE",
"655 539 OFFCURVE",
"665 451 CURVE",
"649 451 LINE",
"567 631 OFFCURVE",
"459 700 OFFCURVE",
"353 700 CURVE SMOOTH",
"253 700 OFFCURVE",
"159 648 OFFCURVE",
"159 542 CURVE SMOOTH",
"159 398 OFFCURVE",
"251 328 OFFCURVE",
"407 328 CURVE SMOOTH",
"427 328 OFFCURVE",
"447 329 OFFCURVE",
"466 329 CURVE SMOOTH",
"546 329 OFFCURVE",
"594 320 OFFCURVE",
"594 261 CURVE SMOOTH",
"594 215 OFFCURVE",
"559 174 OFFCURVE",
"503 174 CURVE SMOOTH",
"422 174 OFFCURVE",
"286 236 OFFCURVE",
"235 313 CURVE",
"70 314 LINE"
);
}
);
width = 864;
},
{
associatedMasterId = "66D417ED-19C2-41B2-B946-B4104EEC6A8E";
backgroundImage = {
crop = "{{0, 0}, {180, 133}}";
imagePath = "/var/folders/tm/rkrnlk4d1clcd784ky_5jzgw0000gn/T/TemporaryItems/(A Document Being Saved By screencaptureui 10)/Screen Shot 2020-02-25 at 7.57.34 PM.png";
transform = "{-1.40723, 0, 0, 1.40723, 1261, -53}";
};
layerId = "A2698721-B636-45E3-8DC5-A357A7F931C4";
name = "Feb 25 20, 20:05";
paths = (
{
closed = 1;
nodes = (
"112 0 LINE",
"282 0 LINE",
"192 71 OFFCURVE",
"144 157 OFFCURVE",
"152 272 CURVE",
"169 272 LINE",
"321 -38 OFFCURVE",
"534 -42 OFFCURVE",
"667 46 CURVE SMOOTH",
"760 108 OFFCURVE",
"773 331 OFFCURVE",
"567 386 CURVE SMOOTH",
"504 403 OFFCURVE",
"403 381 OFFCURVE",
"336 403 CURVE SMOOTH",
"269 424 OFFCURVE",
"237 489 OFFCURVE",
"263 539 CURVE SMOOTH",
"308 626 OFFCURVE",
"516 564 OFFCURVE",
"611 440 CURVE",
"708 440 LINE",
"708 753 LINE",
"548 753 LINE",
"618 679 OFFCURVE",
"655 593 OFFCURVE",
"666 496 CURVE",
"649 496 LINE",
"525 767 OFFCURVE",
"347 825 OFFCURVE",
"198 745 CURVE SMOOTH",
"34 657 OFFCURVE",
"124 410 OFFCURVE",
"244 375 CURVE SMOOTH",
"351 344 OFFCURVE",
"486 374 OFFCURVE",
"548 343 CURVE SMOOTH",
"608 312 OFFCURVE",
"602 244 OFFCURVE",
"556 200 CURVE SMOOTH",
"477 124 OFFCURVE",
"293 210 OFFCURVE",
"226 311 CURVE",
"112 312 LINE"
);
},
{
closed = 1;
nodes = (
"184 73 LINE SMOOTH",
"189 40 OFFCURVE",
"208 9 OFFCURVE",
"233 9 CURVE SMOOTH",
"265 9 OFFCURVE",
"278 30 OFFCURVE",
"278 55 CURVE",
"273 61 LINE",
"273 36 OFFCURVE",
"255 24 OFFCURVE",
"239 24 CURVE SMOOTH",
"219 24 OFFCURVE",
"205 45 OFFCURVE",
"205 64 CURVE SMOOTH",
"205 87 OFFCURVE",
"217 107 OFFCURVE",
"244 107 CURVE SMOOTH",
"271 107 OFFCURVE",
"295 87 OFFCURVE",
"295 64 CURVE SMOOTH",
"295 36 OFFCURVE",
"279 0 OFFCURVE",
"233 0 CURVE SMOOTH",
"198 0 OFFCURVE",
"112 -1 OFFCURVE",
"112 143 CURVE",
"152 273 LINE"
);
},
{
closed = 1;
nodes = (
"-109 -125 LINE SMOOTH",
"-109 -159 OFFCURVE",
"-85 -189 OFFCURVE",
"-60 -189 CURVE SMOOTH",
"-28 -189 OFFCURVE",
"-15 -168 OFFCURVE",
"-15 -143 CURVE",
"-20 -137 LINE",
"-20 -162 OFFCURVE",
"-38 -174 OFFCURVE",
"-54 -174 CURVE SMOOTH",
"-74 -174 OFFCURVE",
"-88 -153 OFFCURVE",
"-88 -134 CURVE SMOOTH",
"-88 -111 OFFCURVE",
"-76 -91 OFFCURVE",
"-49 -91 CURVE SMOOTH",
"-22 -91 OFFCURVE",
"2 -111 OFFCURVE",
"2 -134 CURVE SMOOTH",
"2 -162 OFFCURVE",
"-14 -198 OFFCURVE",
"-60 -198 CURVE SMOOTH",
"-95 -198 OFFCURVE",
"-181 -199 OFFCURVE",
"-181 -55 CURVE",
"-108 -53 LINE"
);
}
);
width = 600;
},
{
associatedMasterId = "66D417ED-19C2-41B2-B946-B4104EEC6A8E";
guideLines = (
{
position = "{402, 328}";
}
);
layerId = "3C35BC4C-7326-4AB9-80D3-B8E1835C97F6";
name = "Feb 26 20, 09:57";
paths = (
{
closed = 1;
nodes = (
"15 0 LINE",
"281 0 LINE",
"199 65 OFFCURVE",
"155 143 OFFCURVE",
"142 248 CURVE",
"158 248 LINE",
"249 62 OFFCURVE",
"364 0 OFFCURVE",
"467 0 CURVE SMOOTH",
"576 0 OFFCURVE",
"669 56 OFFCURVE",
"669 169 CURVE SMOOTH",
"669 286 OFFCURVE",
"578 353 OFFCURVE",
"449 353 CURVE SMOOTH",
"432 353 OFFCURVE",
"414 353 OFFCURVE",
"396 353 CURVE SMOOTH",
"296 353 OFFCURVE",
"269 365 OFFCURVE",
"269 427 CURVE SMOOTH",
"269 479 OFFCURVE",
"299 506 OFFCURVE",
"361 506 CURVE SMOOTH",
"420 506 OFFCURVE",
"500 477 OFFCURVE",
"560 400 CURVE",
"739 400 LINE",
"739 700 LINE",
"502 700 LINE",
"566 632 OFFCURVE",
"600 539 OFFCURVE",
"610 451 CURVE",
"594 451 LINE",
"512 631 OFFCURVE",
"404 700 OFFCURVE",
"298 700 CURVE SMOOTH",
"198 700 OFFCURVE",
"104 648 OFFCURVE",
"104 542 CURVE SMOOTH",
"104 398 OFFCURVE",
"196 328 OFFCURVE",
"352 328 CURVE SMOOTH",
"372 328 OFFCURVE",
"392 329 OFFCURVE",
"411 329 CURVE SMOOTH",
"491 329 OFFCURVE",
"533 320 OFFCURVE",
"533 261 CURVE SMOOTH",
"533 215 OFFCURVE",
"504 185 OFFCURVE",
"448 185 CURVE SMOOTH",
"367 185 OFFCURVE",
"231 236 OFFCURVE",
"180 313 CURVE",
"15 314 LINE"
);
}
);
width = 754;
},
{
background = {
paths = (
{
closed = 1;
nodes = (
"599 700 LINE",
"569 700 LINE",
"569 635 OFFCURVE",
"569 521 OFFCURVE",
"569 416 CURVE",
"569 416 LINE",
"514 571 OFFCURVE",
"417 700 OFFCURVE",
"270 700 CURVE SMOOTH",
"171 700 OFFCURVE",
"78 639 OFFCURVE",
"78 521 CURVE SMOOTH",
"78 434 OFFCURVE",
"149 344 OFFCURVE",
"278 344 CURVE SMOOTH",
"295 344 OFFCURVE",
"313 344 OFFCURVE",
"331 344 CURVE SMOOTH",
"485 344 OFFCURVE",
"553 318 OFFCURVE",
"553 190 CURVE SMOOTH",
"553 101 OFFCURVE",
"474 30 OFFCURVE",
"369 30 CURVE SMOOTH",
"223 30 OFFCURVE",
"171 168 OFFCURVE",
"137 300 CURVE",
"84 300 LINE",
"84 0 LINE",
"114 0 LINE",
"114 79 OFFCURVE",
"114 182 OFFCURVE",
"114 270 CURVE",
"113 270 LINE",
"155 90 OFFCURVE",
"243 0 OFFCURVE",
"369 0 CURVE SMOOTH",
"499 0 OFFCURVE",
"583 87 OFFCURVE",
"583 190 CURVE SMOOTH",
"583 332 OFFCURVE",
"491 375 OFFCURVE",
"355 375 CURVE SMOOTH",
"335 375 OFFCURVE",
"315 374 OFFCURVE",
"296 374 CURVE SMOOTH",
"167 374 OFFCURVE",
"108 452 OFFCURVE",
"108 521 CURVE SMOOTH",
"108 612 OFFCURVE",
"174 670 OFFCURVE",
"270 670 CURVE SMOOTH",
"397 670 OFFCURVE",
"492 541 OFFCURVE",
"547 387 CURVE",
"599 386 LINE"
);
}
);
};
guideLines = (
{
position = "{375, 328}";
}
);
layerId = "A4F58C8D-8D17-43C2-93E4-A012F059F067";
paths = (
{
closed = 1;
nodes = (
"80 0 LINE",
"110 0 LINE",
"110 65 OFFCURVE",
"110 179 OFFCURVE",
"110 284 CURVE",
"111 284 LINE",
"166 129 OFFCURVE",
"263 0 OFFCURVE",
"410 0 CURVE SMOOTH",
"509 0 OFFCURVE",
"602 61 OFFCURVE",
"602 179 CURVE SMOOTH",
"602 266 OFFCURVE",
"531 356 OFFCURVE",
"402 356 CURVE SMOOTH",
"385 356 OFFCURVE",
"367 356 OFFCURVE",
"349 356 CURVE SMOOTH",
"195 356 OFFCURVE",
"127 393 OFFCURVE",
"127 521 CURVE SMOOTH",
"127 612 OFFCURVE",
"193 670 OFFCURVE",
"289 670 CURVE SMOOTH",
"416 670 OFFCURVE",
"489 558 OFFCURVE",
"544 400 CURVE",
"596 400 LINE",
"596 700 LINE",
"566 700 LINE",
"566 621 OFFCURVE",
"566 518 OFFCURVE",
"566 430 CURVE",
"567 430 LINE",
"512 585 OFFCURVE",
"436 700 OFFCURVE",
"289 700 CURVE SMOOTH",
"190 700 OFFCURVE",
"97 639 OFFCURVE",
"97 521 CURVE SMOOTH",
"97 379 OFFCURVE",
"189 325 OFFCURVE",
"325 325 CURVE SMOOTH",
"345 325 OFFCURVE",
"365 326 OFFCURVE",
"384 326 CURVE SMOOTH",
"513 326 OFFCURVE",
"572 248 OFFCURVE",
"572 179 CURVE SMOOTH",
"572 88 OFFCURVE",
"506 30 OFFCURVE",
"410 30 CURVE SMOOTH",
"283 30 OFFCURVE",
"188 155 OFFCURVE",
"133 313 CURVE",
"80 313 LINE"
);
}
);
width = 682;
},
{
associatedMasterId = "A4F58C8D-8D17-43C2-93E4-A012F059F067";
backgroundImage = {
crop = "{{0, 0}, {180, 133}}";
imagePath = "/var/folders/tm/rkrnlk4d1clcd784ky_5jzgw0000gn/T/TemporaryItems/(A Document Being Saved By screencaptureui 10)/Screen Shot 2020-02-25 at 7.57.34 PM.png";
transform = "{-1.40723, 0, 0, 1.40723, 1261, -53}";
};
layerId = "EC3A3E54-A364-49C4-9641-614992CB7593";
name = "Feb 25 20, 20:05";
paths = (
{
closed = 1;
nodes = (
"112 0 LINE",
"282 0 LINE",
"192 71 OFFCURVE",
"144 157 OFFCURVE",
"152 272 CURVE",
"169 272 LINE",
"321 -38 OFFCURVE",
"534 -42 OFFCURVE",
"667 46 CURVE SMOOTH",
"760 108 OFFCURVE",
"773 331 OFFCURVE",
"567 386 CURVE SMOOTH",
"504 403 OFFCURVE",
"403 381 OFFCURVE",
"336 403 CURVE SMOOTH",
"269 424 OFFCURVE",
"237 489 OFFCURVE",
"263 539 CURVE SMOOTH",
"308 626 OFFCURVE",
"516 564 OFFCURVE",
"611 440 CURVE",
"708 440 LINE",
"708 753 LINE",
"548 753 LINE",
"618 679 OFFCURVE",
"655 593 OFFCURVE",
"666 496 CURVE",
"649 496 LINE",
"525 767 OFFCURVE",
"347 825 OFFCURVE",
"198 745 CURVE SMOOTH",
"34 657 OFFCURVE",
"124 410 OFFCURVE",
"244 375 CURVE SMOOTH",
"351 344 OFFCURVE",
"486 374 OFFCURVE",
"548 343 CURVE SMOOTH",
"608 312 OFFCURVE",
"602 244 OFFCURVE",
"556 200 CURVE SMOOTH",
"477 124 OFFCURVE",
"293 210 OFFCURVE",
"226 311 CURVE",
"112 312 LINE"
);
},
{
closed = 1;
nodes = (
"184 73 LINE SMOOTH",
"189 40 OFFCURVE",
"208 9 OFFCURVE",
"233 9 CURVE SMOOTH",
"265 9 OFFCURVE",
"278 30 OFFCURVE",
"278 55 CURVE",
"273 61 LINE",
"273 36 OFFCURVE",
"255 24 OFFCURVE",
"239 24 CURVE SMOOTH",
"219 24 OFFCURVE",
"205 45 OFFCURVE",
"205 64 CURVE SMOOTH",
"205 87 OFFCURVE",
"217 107 OFFCURVE",
"244 107 CURVE SMOOTH",
"271 107 OFFCURVE",
"295 87 OFFCURVE",
"295 64 CURVE SMOOTH",
"295 36 OFFCURVE",
"279 0 OFFCURVE",
"233 0 CURVE SMOOTH",
"198 0 OFFCURVE",
"112 -1 OFFCURVE",
"112 143 CURVE",
"152 273 LINE"
);
},
{
closed = 1;
nodes = (
"-109 -125 LINE SMOOTH",
"-109 -159 OFFCURVE",
"-85 -189 OFFCURVE",
"-60 -189 CURVE SMOOTH",
"-28 -189 OFFCURVE",
"-15 -168 OFFCURVE",
"-15 -143 CURVE",
"-20 -137 LINE",
"-20 -162 OFFCURVE",
"-38 -174 OFFCURVE",
"-54 -174 CURVE SMOOTH",
"-74 -174 OFFCURVE",
"-88 -153 OFFCURVE",
"-88 -134 CURVE SMOOTH",
"-88 -111 OFFCURVE",
"-76 -91 OFFCURVE",
"-49 -91 CURVE SMOOTH",
"-22 -91 OFFCURVE",
"2 -111 OFFCURVE",
"2 -134 CURVE SMOOTH",
"2 -162 OFFCURVE",
"-14 -198 OFFCURVE",
"-60 -198 CURVE SMOOTH",
"-95 -198 OFFCURVE",
"-181 -199 OFFCURVE",
"-181 -55 CURVE",
"-108 -53 LINE"
);
}
);
width = 600;
},
{
associatedMasterId = "A4F58C8D-8D17-43C2-93E4-A012F059F067";
guideLines = (
{
position = "{402, 328}";
}
);
layerId = "FB4DCA74-EE67-4C17-9CE5-DC800387E476";
name = "Feb 26 20, 09:57";
paths = (
{
closed = 1;
nodes = (
"15 0 LINE",
"281 0 LINE",
"199 65 OFFCURVE",
"155 143 OFFCURVE",
"142 248 CURVE",
"158 248 LINE",
"249 62 OFFCURVE",
"364 0 OFFCURVE",
"467 0 CURVE SMOOTH",
"576 0 OFFCURVE",
"669 56 OFFCURVE",
"669 169 CURVE SMOOTH",
"669 286 OFFCURVE",
"578 353 OFFCURVE",
"449 353 CURVE SMOOTH",
"432 353 OFFCURVE",
"414 353 OFFCURVE",
"396 353 CURVE SMOOTH",
"296 353 OFFCURVE",
"269 365 OFFCURVE",
"269 427 CURVE SMOOTH",
"269 479 OFFCURVE",
"299 506 OFFCURVE",
"361 506 CURVE SMOOTH",
"420 506 OFFCURVE",
"500 477 OFFCURVE",
"560 400 CURVE",
"739 400 LINE",
"739 700 LINE",
"502 700 LINE",
"566 632 OFFCURVE",
"600 539 OFFCURVE",
"610 451 CURVE",
"594 451 LINE",
"512 631 OFFCURVE",
"404 700 OFFCURVE",
"298 700 CURVE SMOOTH",
"198 700 OFFCURVE",
"104 648 OFFCURVE",
"104 542 CURVE SMOOTH",
"104 398 OFFCURVE",
"196 328 OFFCURVE",
"352 328 CURVE SMOOTH",
"372 328 OFFCURVE",
"392 329 OFFCURVE",
"411 329 CURVE SMOOTH",
"491 329 OFFCURVE",
"533 320 OFFCURVE",
"533 261 CURVE SMOOTH",
"533 215 OFFCURVE",
"504 185 OFFCURVE",
"448 185 CURVE SMOOTH",
"367 185 OFFCURVE",
"231 236 OFFCURVE",
"180 313 CURVE",
"15 314 LINE"
);
}
);
width = 754;
}
);
leftKerningGroup = S;
unicode = "0053,0073";
},
{
glyphname = T;
lastChange = "2020-06-17 23:22:56 +0000";
layers = (
{
background = {
paths = (
{
closed = 1;
nodes = (
"1 700 LINE",
"1 400 LINE",
"238 400 LINE",
"238 489 LINE",
"160 486 OFFCURVE",
"97 525 OFFCURVE",
"52 568 CURVE",
"52 585 LINE",
"110 543 OFFCURVE",
"191 527 OFFCURVE",
"312 527 CURVE SMOOTH",
"326 527 LINE SMOOTH",
"407 527 OFFCURVE",
"494 543 OFFCURVE",
"556 585 CURVE",
"556 568 LINE",
"539 530 OFFCURVE",
"482 486 OFFCURVE",
"404 489 CURVE",
"404 400 LINE",
"607 400 LINE",
"607 700 LINE"
);
}
);
};
guideLines = (
{
position = "{701, 527}";
}
);
layerId = "66D417ED-19C2-41B2-B946-B4104EEC6A8E";
paths = (
{
closed = 1;
nodes = (
"181 0 LINE",
"538 0 LINE",
"538 177 LINE",
"181 177 LINE"
);
},
{
closed = 1;
nodes = (
"357 146 LINE",
"357 661 LINE",
"327 661 LINE",
"327 146 LINE"
);
},
{
closed = 1;
nodes = (
"70 699 LINE",
"70 401 LINE",
"248 401 LINE",
"160 455 OFFCURVE",
"70 540 OFFCURVE",
"70 648 CURVE",
"347 648 LINE",
"347 699 LINE"
);
},
{
closed = 1;
nodes = (
"307 648 LINE",
"584 648 LINE",
"584 540 OFFCURVE",
"494 455 OFFCURVE",
"406 401 CURVE",
"712 401 LINE",
"712 699 LINE",
"307 699 LINE"
);
},
{
closed = 1;
nodes = (
"70 700 LINE",
"70 527 LINE",
"706 527 LINE",
"706 700 LINE"
);
}
);
width = 782;
},
{
associatedMasterId = "66D417ED-19C2-41B2-B946-B4104EEC6A8E";
guideLines = (
{
position = "{1056, 493}";
}
);
layerId = "D2B5D457-AAEA-4E56-9C6A-65AD72572372";
name = "Feb 25 20, 23:20";
paths = (
{
closed = 1;
nodes = (
"353 146 LINE",
"353 548 LINE",
"323 548 LINE",
"323 146 LINE"
);
},
{
closed = 1;
nodes = (
"131 0 LINE",
"528 0 LINE",
"528 177 LINE",
"131 177 LINE"
);
},
{
closed = 1;
nodes = (
"20 527 LINE",
"626 527 LINE",
"626 700 LINE",
"20 700 LINE"
);
}
);
width = 646;
},
{
associatedMasterId = "66D417ED-19C2-41B2-B946-B4104EEC6A8E";
layerId = "576F98F7-44F1-435B-A1B1-B95B22E6E050";
name = "Feb 25 20, 23:27";
paths = (
{
closed = 1;
nodes = (
"353 146 LINE",
"353 548 LINE",
"323 548 LINE",
"323 146 LINE"
);
},
{
closed = 1;
nodes = (
"131 0 LINE",
"528 0 LINE",
"528 177 LINE",
"131 177 LINE"
);
},
{
closed = 1;
nodes = (
"20 700 LINE",
"20 400 LINE",
"257 400 LINE",
"257 489 LINE",
"179 486 OFFCURVE",
"116 525 OFFCURVE",
"71 568 CURVE",
"71 585 LINE",
"129 543 OFFCURVE",
"210 527 OFFCURVE",
"331 527 CURVE SMOOTH",
"345 527 LINE SMOOTH",
"426 527 OFFCURVE",
"513 543 OFFCURVE",
"575 585 CURVE",
"575 568 LINE",
"558 530 OFFCURVE",
"501 486 OFFCURVE",
"423 489 CURVE",
"423 400 LINE",
"626 400 LINE",
"626 700 LINE"
);
}
);
width = 646;
},
{
associatedMasterId = "66D417ED-19C2-41B2-B946-B4104EEC6A8E";
background = {
paths = (
{
closed = 1;
nodes = (
"44 700 LINE",
"44 400 LINE",
"281 400 LINE",
"281 489 LINE",
"203 486 OFFCURVE",
"140 525 OFFCURVE",
"95 568 CURVE",
"95 585 LINE",
"153 543 OFFCURVE",
"234 527 OFFCURVE",
"355 527 CURVE SMOOTH",
"369 527 LINE SMOOTH",
"450 527 OFFCURVE",
"537 543 OFFCURVE",
"599 585 CURVE",
"599 568 LINE",
"582 530 OFFCURVE",
"525 486 OFFCURVE",
"447 489 CURVE",
"447 400 LINE",
"650 400 LINE",
"650 700 LINE"
);
}
);
};
guideLines = (
{
position = "{744, 527}";
}
);
layerId = "E42197D7-98F9-4ECA-BC5E-3A9966A69441";
name = "Feb 25 20, 23:36";
paths = (
{
closed = 1;
nodes = (
"377 146 LINE",
"377 681 LINE",
"347 681 LINE",
"347 146 LINE"
);
},
{
closed = 1;
nodes = (
"155 0 LINE",
"552 0 LINE",
"552 177 LINE",
"155 177 LINE"
);
},
{
closed = 1;
nodes = (
"15 700 LINE",
"15 438 LINE",
"281 438 LINE",
"281 604 LINE",
"236 566 OFFCURVE",
"161 539 OFFCURVE",
"66 527 CURVE",
"66 544 LINE",
"163 569 OFFCURVE",
"256 635 OFFCURVE",
"296 670 CURVE",
"414 670 LINE",
"454 635 OFFCURVE",
"547 569 OFFCURVE",
"644 544 CURVE",
"644 527 LINE",
"560 538 OFFCURVE",
"492 560 OFFCURVE",
"447 585 CURVE",
"447 438 LINE",
"695 438 LINE",
"695 700 LINE"
);
}
);
width = 710;
},
{
associatedMasterId = "66D417ED-19C2-41B2-B946-B4104EEC6A8E";
background = {
paths = (
{
closed = 1;
nodes = (
"74 700 LINE",
"74 400 LINE",
"311 400 LINE",
"311 489 LINE",
"233 486 OFFCURVE",
"170 525 OFFCURVE",
"125 568 CURVE",
"125 585 LINE",
"183 543 OFFCURVE",
"264 527 OFFCURVE",
"385 527 CURVE SMOOTH",
"399 527 LINE SMOOTH",
"480 527 OFFCURVE",
"567 543 OFFCURVE",
"629 585 CURVE",
"629 568 LINE",
"612 530 OFFCURVE",
"555 486 OFFCURVE",
"477 489 CURVE",
"477 400 LINE",
"680 400 LINE",
"680 700 LINE"
);
}
);
};
guideLines = (
{
position = "{774, 527}";
}
);
layerId = "45AF5418-9454-4422-86D5-CBD608E6A9E1";
name = "Feb 26 20, 00:10";
paths = (
{
closed = 1;
nodes = (
"185 0 LINE",
"582 0 LINE",
"582 177 LINE",
"185 177 LINE"
);
},
{
closed = 1;
nodes = (
"407 146 LINE",
"407 661 LINE",
"377 661 LINE",
"377 146 LINE"
);
},
{
closed = 1;
nodes = (
"15 699 LINE",
"15 401 LINE",
"321 401 LINE",
"253 465 OFFCURVE",
"153 560 OFFCURVE",
"143 648 CURVE",
"420 648 LINE",
"420 699 LINE"
);
},
{
closed = 1;
nodes = (
"380 648 LINE",
"657 648 LINE",
"647 560 OFFCURVE",
"547 465 OFFCURVE",
"479 401 CURVE",
"785 401 LINE",
"785 699 LINE",
"380 699 LINE"
);
}
);
width = 800;
},
{
associatedMasterId = "66D417ED-19C2-41B2-B946-B4104EEC6A8E";
background = {
paths = (
{
closed = 1;
nodes = (
"74 700 LINE",
"74 400 LINE",
"311 400 LINE",
"311 489 LINE",
"233 486 OFFCURVE",
"170 525 OFFCURVE",
"125 568 CURVE",
"125 585 LINE",
"183 543 OFFCURVE",
"264 527 OFFCURVE",
"385 527 CURVE SMOOTH",
"399 527 LINE SMOOTH",
"480 527 OFFCURVE",
"567 543 OFFCURVE",
"629 585 CURVE",
"629 568 LINE",
"612 530 OFFCURVE",
"555 486 OFFCURVE",
"477 489 CURVE",
"477 400 LINE",
"680 400 LINE",
"680 700 LINE"
);
}
);
};
guideLines = (
{
position = "{774, 527}";
}
);
layerId = "B7A377A1-6ECD-4D4F-A4D0-4CE74C57302E";
name = "Feb 26 20, 09:12";
paths = (
{
closed = 1;
nodes = (
"185 0 LINE",
"582 0 LINE",
"582 177 LINE",
"185 177 LINE"
);
},
{
closed = 1;
nodes = (
"407 146 LINE",
"407 661 LINE",
"377 661 LINE",
"377 146 LINE"
);
},
{
closed = 1;
nodes = (
"15 699 LINE",
"15 401 LINE",
"321 401 LINE",
"233 455 OFFCURVE",
"143 540 OFFCURVE",
"143 648 CURVE",
"420 648 LINE",
"420 699 LINE"
);
},
{
closed = 1;
nodes = (
"380 648 LINE",
"657 648 LINE",
"657 540 OFFCURVE",
"567 455 OFFCURVE",
"479 401 CURVE",
"785 401 LINE",
"785 699 LINE",
"380 699 LINE"
);
},
{
closed = 1;
nodes = (
"15 700 LINE",
"15 527 LINE",
"699 527 LINE",
"699 700 LINE"
);
}
);
width = 800;
},
{
background = {
paths = (
{
closed = 1;
nodes = (
"1 700 LINE",
"1 400 LINE",
"238 400 LINE",
"238 489 LINE",
"160 486 OFFCURVE",
"97 525 OFFCURVE",
"52 568 CURVE",
"52 585 LINE",
"110 543 OFFCURVE",
"191 527 OFFCURVE",
"312 527 CURVE SMOOTH",
"326 527 LINE SMOOTH",
"407 527 OFFCURVE",
"494 543 OFFCURVE",
"556 585 CURVE",
"556 568 LINE",
"539 530 OFFCURVE",
"482 486 OFFCURVE",
"404 489 CURVE",
"404 400 LINE",
"607 400 LINE",
"607 700 LINE"
);
}
);
};
guideLines = (
{
position = "{701, 527}";
}
);
layerId = "A4F58C8D-8D17-43C2-93E4-A012F059F067";
paths = (
{
closed = 1;
nodes = (
"223 0 LINE",
"521 0 LINE",
"521 30 LINE",
"223 30 LINE"
);
},
{
closed = 1;
nodes = (
"387 26 LINE",
"387 681 LINE",
"357 681 LINE",
"357 26 LINE"
);
},
{
closed = 1;
nodes = (
"70 699 LINE",
"70 401 LINE",
"100 401 LINE",
"100 455 OFFCURVE",
"100 570 OFFCURVE",
"100 678 CURVE",
"347 678 LINE",
"347 699 LINE"
);
},
{
closed = 1;
nodes = (
"307 678 LINE",
"682 678 LINE",
"682 570 OFFCURVE",
"682 474 OFFCURVE",
"682 401 CURVE",
"712 401 LINE",
"712 699 LINE",
"307 699 LINE"
);
},
{
closed = 1;
nodes = (
"70 700 LINE",
"70 670 LINE",
"712 670 LINE",
"712 700 LINE"
);
}
);
width = 782;
},
{
associatedMasterId = "A4F58C8D-8D17-43C2-93E4-A012F059F067";
guideLines = (
{
position = "{1056, 493}";
}
);
layerId = "3646B6BA-F7CA-49FC-9A57-2B79B4F2964E";
name = "Feb 25 20, 23:20";
paths = (
{
closed = 1;
nodes = (
"353 146 LINE",
"353 548 LINE",
"323 548 LINE",
"323 146 LINE"
);
},
{
closed = 1;
nodes = (
"131 0 LINE",
"528 0 LINE",
"528 177 LINE",
"131 177 LINE"
);
},
{
closed = 1;
nodes = (
"20 527 LINE",
"626 527 LINE",
"626 700 LINE",
"20 700 LINE"
);
}
);
width = 646;
},
{
associatedMasterId = "A4F58C8D-8D17-43C2-93E4-A012F059F067";
layerId = "C56D61C6-4BF1-443F-BC93-C0004F24E7F7";
name = "Feb 25 20, 23:27";
paths = (
{
closed = 1;
nodes = (
"353 146 LINE",
"353 548 LINE",
"323 548 LINE",
"323 146 LINE"
);
},
{
closed = 1;
nodes = (
"131 0 LINE",
"528 0 LINE",
"528 177 LINE",
"131 177 LINE"
);
},
{
closed = 1;
nodes = (
"20 700 LINE",
"20 400 LINE",
"257 400 LINE",
"257 489 LINE",
"179 486 OFFCURVE",
"116 525 OFFCURVE",
"71 568 CURVE",
"71 585 LINE",
"129 543 OFFCURVE",
"210 527 OFFCURVE",
"331 527 CURVE SMOOTH",
"345 527 LINE SMOOTH",
"426 527 OFFCURVE",
"513 543 OFFCURVE",
"575 585 CURVE",
"575 568 LINE",
"558 530 OFFCURVE",
"501 486 OFFCURVE",
"423 489 CURVE",
"423 400 LINE",
"626 400 LINE",
"626 700 LINE"
);
}
);
width = 646;
},
{
associatedMasterId = "A4F58C8D-8D17-43C2-93E4-A012F059F067";
background = {
paths = (
{
closed = 1;
nodes = (
"44 700 LINE",
"44 400 LINE",
"281 400 LINE",
"281 489 LINE",
"203 486 OFFCURVE",
"140 525 OFFCURVE",
"95 568 CURVE",
"95 585 LINE",
"153 543 OFFCURVE",
"234 527 OFFCURVE",
"355 527 CURVE SMOOTH",
"369 527 LINE SMOOTH",
"450 527 OFFCURVE",
"537 543 OFFCURVE",
"599 585 CURVE",
"599 568 LINE",
"582 530 OFFCURVE",
"525 486 OFFCURVE",
"447 489 CURVE",
"447 400 LINE",
"650 400 LINE",
"650 700 LINE"
);
}
);
};
guideLines = (
{
position = "{744, 527}";
}
);
layerId = "C238FD9A-CFD9-403E-934F-0AB4EEB38C9B";
name = "Feb 25 20, 23:36";
paths = (
{
closed = 1;
nodes = (
"377 146 LINE",
"377 681 LINE",
"347 681 LINE",
"347 146 LINE"
);
},
{
closed = 1;
nodes = (
"155 0 LINE",
"552 0 LINE",
"552 177 LINE",
"155 177 LINE"
);
},
{
closed = 1;
nodes = (
"15 700 LINE",
"15 438 LINE",
"281 438 LINE",
"281 604 LINE",
"236 566 OFFCURVE",
"161 539 OFFCURVE",
"66 527 CURVE",
"66 544 LINE",
"163 569 OFFCURVE",
"256 635 OFFCURVE",
"296 670 CURVE",
"414 670 LINE",
"454 635 OFFCURVE",
"547 569 OFFCURVE",
"644 544 CURVE",
"644 527 LINE",
"560 538 OFFCURVE",
"492 560 OFFCURVE",
"447 585 CURVE",
"447 438 LINE",
"695 438 LINE",
"695 700 LINE"
);
}
);
width = 710;
},
{
associatedMasterId = "A4F58C8D-8D17-43C2-93E4-A012F059F067";
background = {
paths = (
{
closed = 1;
nodes = (
"74 700 LINE",
"74 400 LINE",
"311 400 LINE",
"311 489 LINE",
"233 486 OFFCURVE",
"170 525 OFFCURVE",
"125 568 CURVE",
"125 585 LINE",
"183 543 OFFCURVE",
"264 527 OFFCURVE",
"385 527 CURVE SMOOTH",
"399 527 LINE SMOOTH",
"480 527 OFFCURVE",
"567 543 OFFCURVE",
"629 585 CURVE",
"629 568 LINE",
"612 530 OFFCURVE",
"555 486 OFFCURVE",
"477 489 CURVE",
"477 400 LINE",
"680 400 LINE",
"680 700 LINE"
);
}
);
};
guideLines = (
{
position = "{774, 527}";
}
);
layerId = "8796D12C-1639-4C1E-975A-F6CACBB0A689";
name = "Feb 26 20, 00:10";
paths = (
{
closed = 1;
nodes = (
"185 0 LINE",
"582 0 LINE",
"582 177 LINE",
"185 177 LINE"
);
},
{
closed = 1;
nodes = (
"407 146 LINE",
"407 661 LINE",
"377 661 LINE",
"377 146 LINE"
);
},
{
closed = 1;
nodes = (
"15 699 LINE",
"15 401 LINE",
"321 401 LINE",
"253 465 OFFCURVE",
"153 560 OFFCURVE",
"143 648 CURVE",
"420 648 LINE",
"420 699 LINE"
);
},
{
closed = 1;
nodes = (
"380 648 LINE",
"657 648 LINE",
"647 560 OFFCURVE",
"547 465 OFFCURVE",
"479 401 CURVE",
"785 401 LINE",
"785 699 LINE",
"380 699 LINE"
);
}
);
width = 800;
},
{
associatedMasterId = "A4F58C8D-8D17-43C2-93E4-A012F059F067";
background = {
paths = (
{
closed = 1;
nodes = (
"74 700 LINE",
"74 400 LINE",
"311 400 LINE",
"311 489 LINE",
"233 486 OFFCURVE",
"170 525 OFFCURVE",
"125 568 CURVE",
"125 585 LINE",
"183 543 OFFCURVE",
"264 527 OFFCURVE",
"385 527 CURVE SMOOTH",
"399 527 LINE SMOOTH",
"480 527 OFFCURVE",
"567 543 OFFCURVE",
"629 585 CURVE",
"629 568 LINE",
"612 530 OFFCURVE",
"555 486 OFFCURVE",
"477 489 CURVE",
"477 400 LINE",
"680 400 LINE",
"680 700 LINE"
);
}
);
};
guideLines = (
{
position = "{774, 527}";
}
);
layerId = "2B5383B5-A942-4F6A-81EB-A253AF021ECB";
name = "Feb 26 20, 09:12";
paths = (
{
closed = 1;
nodes = (
"185 0 LINE",
"582 0 LINE",
"582 177 LINE",
"185 177 LINE"
);
},
{
closed = 1;
nodes = (
"407 146 LINE",
"407 661 LINE",
"377 661 LINE",
"377 146 LINE"
);
},
{
closed = 1;
nodes = (
"15 699 LINE",
"15 401 LINE",
"321 401 LINE",
"233 455 OFFCURVE",
"143 540 OFFCURVE",
"143 648 CURVE",
"420 648 LINE",
"420 699 LINE"
);
},
{
closed = 1;
nodes = (
"380 648 LINE",
"657 648 LINE",
"657 540 OFFCURVE",
"567 455 OFFCURVE",
"479 401 CURVE",
"785 401 LINE",
"785 699 LINE",
"380 699 LINE"
);
},
{
closed = 1;
nodes = (
"15 700 LINE",
"15 527 LINE",
"699 527 LINE",
"699 700 LINE"
);
}
);
width = 800;
}
);
leftKerningGroup = T;
rightKerningGroup = T;
unicode = "0054,0074";
},
{
glyphname = U;
lastChange = "2020-06-18 00:50:01 +0000";
layers = (
{
guideLines = (
{
position = "{-299, 176}";
}
);
layerId = "66D417ED-19C2-41B2-B946-B4104EEC6A8E";
paths = (
{
closed = 1;
nodes = (
"679 623 LINE",
"519 623 LINE",
"519 389 LINE SMOOTH",
"519 261 OFFCURVE",
"478 177 OFFCURVE",
"338 177 CURVE SMOOTH",
"198 177 OFFCURVE",
"157 261 OFFCURVE",
"157 389 CURVE SMOOTH",
"157 623 LINE",
"127 623 LINE",
"126 339 LINE SMOOTH",
"125 119 OFFCURVE",
"209 0 OFFCURVE",
"386 0 CURVE",
"596 0 OFFCURVE",
"679 119 OFFCURVE",
"679 339 CURVE SMOOTH"
);
},
{
closed = 1;
nodes = (
"343 700 LINE",
"343 527 LINE",
"804 527 LINE",
"804 700 LINE"
);
},
{
closed = 1;
nodes = (
"70 700 LINE",
"70 527 LINE",
"276 527 LINE",
"276 700 LINE"
);
}
);
width = 874;
},
{
background = {
components = (
{
name = H;
transform = "{1, 0, 0, 1, 33, 0}";
}
);
};
guideLines = (
{
position = "{-222, 176}";
}
);
layerId = "A4F58C8D-8D17-43C2-93E4-A012F059F067";
paths = (
{
closed = 1;
nodes = (
"756 683 LINE",
"726 683 LINE",
"726 309 LINE SMOOTH",
"726 151 OFFCURVE",
"649 30 OFFCURVE",
"476 30 CURVE SMOOTH",
"305 30 OFFCURVE",
"234 151 OFFCURVE",
"234 309 CURVE SMOOTH",
"234 683 LINE",
"204 683 LINE",
"203 329 LINE SMOOTH",
"202 129 OFFCURVE",
"279 0 OFFCURVE",
"476 0 CURVE",
"675 0 OFFCURVE",
"756 129 OFFCURVE",
"756 329 CURVE SMOOTH"
);
},
{
closed = 1;
nodes = (
"592 700 LINE",
"592 670 LINE",
"888 670 LINE",
"888 700 LINE"
);
},
{
closed = 1;
nodes = (
"70 700 LINE",
"70 670 LINE",
"368 670 LINE",
"368 700 LINE"
);
}
);
width = 958;
}
);
leftKerningGroup = W;
rightKerningGroup = W;
unicode = "0055,0075";
},
{
glyphname = V;
lastChange = "2020-06-18 01:11:26 +0000";
layers = (
{
guideLines = (
{
angle = 26.648;
position = "{334, 165}";
},
{
angle = 64.6714;
position = "{334, 165}";
}
);
layerId = "66D417ED-19C2-41B2-B946-B4104EEC6A8E";
paths = (
{
closed = 1;
nodes = (
"388 700 LINE",
"388 523 LINE",
"784 523 LINE",
"784 700 LINE"
);
},
{
closed = 1;
nodes = (
"40 700 LINE",
"40 523 LINE",
"254 523 LINE",
"254 700 LINE"
);
},
{
closed = 1;
nodes = (
"376 2 LINE",
"446 2 LINE",
"712 564 LINE",
"523 564 LINE",
"334 165 LINE",
"138 555 LINE",
"99 554 LINE"
);
},
{
closed = 1;
nodes = (
"353 183 LINE",
"311 183 LINE",
"333 143 LINE"
);
}
);
width = 824;
},
{
associatedMasterId = "66D417ED-19C2-41B2-B946-B4104EEC6A8E";
guideLines = (
{
angle = 71.0064;
position = "{459, 278}";
},
{
angle = -70.23;
position = "{364, 378}";
}
);
layerId = "DA085F22-4D72-4896-84F7-6AAD180D3854";
name = "Feb 26 20, 11:29";
paths = (
{
closed = 1;
nodes = (
"280 700 LINE",
"280 527 LINE",
"667 527 LINE",
"667 700 LINE"
);
},
{
closed = 1;
nodes = (
"40 700 LINE",
"40 527 LINE",
"236 527 LINE",
"236 700 LINE"
);
},
{
closed = 1;
nodes = (
"293 2 LINE",
"369 2 LINE",
"571 564 LINE",
"401 564 LINE",
"277 218 LINE",
"249 218 LINE",
"133 555 LINE",
"103 554 LINE"
);
}
);
width = 707;
},
{
background = {
components = (
{
name = U;
transform = "{1, 0, 0, 1, 63, 0}";
}
);
};
guideLines = (
{
angle = 26.648;
position = "{367, 195}";
},
{
angle = 64.6714;
position = "{447, 18}";
},
{
angle = 116.6825;
position = "{269, 360}";
}
);
layerId = "A4F58C8D-8D17-43C2-93E4-A012F059F067";
paths = (
{
closed = 1;
nodes = (
"586 700 LINE",
"586 670 LINE",
"836 670 LINE",
"836 700 LINE"
);
},
{
closed = 1;
nodes = (
"40 700 LINE",
"40 670 LINE",
"290 670 LINE",
"290 700 LINE"
);
},
{
closed = 1;
nodes = (
"403 0 LINE",
"473 0 LINE",
"745 694 LINE",
"710 693 LINE",
"438 10 LINE",
"166 693 LINE",
"131 694 LINE"
);
},
{
closed = 1;
nodes = (
"458 41 LINE",
"416 41 LINE",
"438 1 LINE"
);
}
);
width = 876;
},
{
associatedMasterId = "A4F58C8D-8D17-43C2-93E4-A012F059F067";
guideLines = (
{
angle = 71.0064;
position = "{459, 278}";
},
{
angle = -70.23;
position = "{364, 378}";
}
);
layerId = "EBCFA97A-90AB-4DA4-88F3-1AAC4D7E1F61";
name = "Feb 26 20, 11:29";
paths = (
{
closed = 1;
nodes = (
"280 700 LINE",
"280 527 LINE",
"667 527 LINE",
"667 700 LINE"
);
},
{
closed = 1;
nodes = (
"40 700 LINE",
"40 527 LINE",
"236 527 LINE",
"236 700 LINE"
);
},
{
closed = 1;
nodes = (
"293 2 LINE",
"369 2 LINE",
"571 564 LINE",
"401 564 LINE",
"277 218 LINE",
"249 218 LINE",
"133 555 LINE",
"103 554 LINE"
);
}
);
width = 707;
}
);
leftKerningGroup = V;
rightKerningGroup = V;
unicode = "0056,0076";
},
{
glyphname = W;
lastChange = "2020-06-17 23:22:56 +0000";
layers = (
{
guideLines = (
{
angle = 70.4976;
position = "{272, 226}";
},
{
angle = -69.444;
position = "{494, 555}";
}
);
layerId = "66D417ED-19C2-41B2-B946-B4104EEC6A8E";
paths = (
{
closed = 1;
nodes = (
"300 700 LINE",
"300 523 LINE",
"589 523 LINE",
"589 700 LINE"
);
},
{
closed = 1;
nodes = (
"40 700 LINE",
"40 523 LINE",
"233 523 LINE",
"233 700 LINE"
);
},
{
closed = 1;
nodes = (
"326 2 LINE",
"386 2 LINE",
"540 396 LINE",
"473 590 LINE",
"401 590 LINE",
"272 226 LINE",
"149 555 LINE",
"119 554 LINE"
);
},
{
closed = 1;
nodes = (
"656 700 LINE",
"656 523 LINE",
"1003 523 LINE",
"1003 700 LINE"
);
},
{
closed = 1;
nodes = (
"671 2 LINE",
"731 2 LINE",
"978 632 LINE",
"777 632 LINE",
"618 225 LINE",
"494 555 LINE",
"464 554 LINE"
);
},
{
closed = 1;
nodes = (
"638 248 LINE",
"596 248 LINE",
"618 208 LINE"
);
},
{
closed = 1;
nodes = (
"293 250 LINE",
"251 250 LINE",
"273 210 LINE"
);
}
);
width = 1043;
},
{
guideLines = (
{
angle = -69.444;
position = "{479, 555}";
},
{
angle = 68.6513;
position = "{373, 2}";
},
{
angle = 110.5391;
position = "{204, 370}";
},
{
angle = 73.8883;
position = "{492, 343}";
}
);
layerId = "A4F58C8D-8D17-43C2-93E4-A012F059F067";
paths = (
{
closed = 1;
nodes = (
"442 700 LINE",
"442 670 LINE",
"751 670 LINE",
"751 700 LINE"
);
},
{
closed = 1;
nodes = (
"40 700 LINE",
"40 670 LINE",
"280 670 LINE",
"280 700 LINE"
);
},
{
closed = 1;
nodes = (
"331 2 LINE",
"393 2 LINE",
"591 687 LINE",
"619 696 LINE",
"556 684 LINE",
"362 11 LINE",
"166 685 LINE",
"136 684 LINE"
);
},
{
closed = 1;
nodes = (
"913 700 LINE",
"913 670 LINE",
"1153 670 LINE",
"1153 700 LINE"
);
},
{
closed = 1;
nodes = (
"800 2 LINE",
"862 2 LINE",
"1057 684 LINE",
"1027 685 LINE",
"831 11 LINE",
"637 684 LINE",
"602 687 LINE"
);
},
{
closed = 1;
nodes = (
"851 43 LINE",
"809 43 LINE",
"831 3 LINE"
);
},
{
closed = 1;
nodes = (
"382 43 LINE",
"340 43 LINE",
"362 3 LINE"
);
}
);
width = 1193;
}
);
leftKerningGroup = W;
rightKerningGroup = W;
unicode = "0057,0077";
},
{
glyphname = X;
lastChange = "2020-06-18 00:39:07 +0000";
layers = (
{
guideLines = (
{
position = "{-451, 430}";
},
{
angle = -48.6678;
position = "{230, 471}";
},
{
angle = 50.3744;
position = "{310, 161}";
}
);
layerId = "66D417ED-19C2-41B2-B946-B4104EEC6A8E";
paths = (
{
closed = 1;
nodes = (
"352 700 LINE",
"352 527 LINE",
"701 527 LINE",
"701 700 LINE"
);
},
{
closed = 1;
nodes = (
"101 700 LINE",
"101 527 LINE",
"285 527 LINE",
"285 700 LINE"
);
},
{
closed = 1;
nodes = (
"341 430 LINE",
"299 430 LINE",
"321 390 LINE"
);
},
{
closed = 1;
nodes = (
"332 398 LINE",
"192 555 LINE",
"157 554 LINE",
"303 388 LINE"
);
},
{
closed = 1;
nodes = (
"381 0 LINE",
"381 177 LINE",
"40 177 LINE",
"40 0 LINE"
);
},
{
closed = 1;
nodes = (
"701 0 LINE",
"701 177 LINE",
"448 177 LINE",
"448 0 LINE"
);
},
{
closed = 1;
nodes = (
"562 166 LINE",
"422 323 LINE",
"387 322 LINE",
"533 156 LINE"
);
},
{
closed = 1;
nodes = (
"319 404 LINE",
"303 392 LINE",
"101 149 LINE",
"238 76 LINE",
"498 390 LINE",
"694 624 LINE",
"509 640 LINE"
);
}
);
width = 741;
},
{
background = {
paths = (
{
closed = 1;
nodes = (
"113 670 LINE",
"338 670 LINE",
"338 700 LINE",
"113 700 LINE"
);
},
{
closed = 1;
nodes = (
"420 670 LINE",
"645 670 LINE",
"645 700 LINE",
"420 700 LINE"
);
},
{
closed = 1;
nodes = (
"403 420 LINE",
"361 420 LINE",
"381 380 LINE"
);
},
{
closed = 1;
nodes = (
"565 681 LINE",
"530 682 LINE",
"370 398 LINE",
"399 388 LINE"
);
},
{
closed = 1;
nodes = (
"685 30 LINE",
"459 30 LINE",
"459 0 LINE",
"685 0 LINE"
);
},
{
closed = 1;
nodes = (
"288 30 LINE",
"69 30 LINE",
"69 0 LINE",
"288 0 LINE"
);
},
{
closed = 1;
nodes = (
"403 399 LINE",
"368 400 LINE",
"149 17 LINE",
"178 7 LINE"
);
},
{
closed = 1;
nodes = (
"193 684 LINE",
"354 405 LINE",
"569 21 LINE",
"605 21 LINE",
"399 392 LINE",
"386 407 LINE",
"228 685 LINE"
);
}
);
};
guideLines = (
{
position = "{-393, 430}";
}
);
layerId = "A4F58C8D-8D17-43C2-93E4-A012F059F067";
paths = (
{
closed = 1;
nodes = (
"432 700 LINE",
"432 670 LINE",
"678 670 LINE",
"678 700 LINE"
);
},
{
closed = 1;
nodes = (
"82 700 LINE",
"82 670 LINE",
"328 670 LINE",
"328 700 LINE"
);
},
{
closed = 1;
nodes = (
"399 420 LINE",
"357 420 LINE",
"379 380 LINE"
);
},
{
closed = 1;
nodes = (
"396 388 LINE",
"210 682 LINE",
"175 681 LINE",
"367 378 LINE"
);
},
{
closed = 1;
nodes = (
"287 0 LINE",
"287 30 LINE",
"40 30 LINE",
"40 0 LINE"
);
},
{
closed = 1;
nodes = (
"720 0 LINE",
"720 30 LINE",
"474 30 LINE",
"474 0 LINE"
);
},
{
closed = 1;
nodes = (
"626 21 LINE",
"392 400 LINE",
"357 399 LINE",
"590 21 LINE"
);
},
{
closed = 1;
nodes = (
"374 407 LINE",
"369 400 LINE",
"135 21 LINE",
"171 21 LINE",
"404 399 LINE",
"585 681 LINE",
"550 682 LINE"
);
}
);
width = 760;
},
{
associatedMasterId = "A4F58C8D-8D17-43C2-93E4-A012F059F067";
background = {
paths = (
{
closed = 1;
nodes = (
"70 670 LINE",
"295 670 LINE",
"295 700 LINE",
"70 700 LINE"
);
},
{
closed = 1;
nodes = (
"377 670 LINE",
"602 670 LINE",
"602 700 LINE",
"377 700 LINE"
);
},
{
closed = 1;
nodes = (
"360 420 LINE",
"318 420 LINE",
"338 380 LINE"
);
},
{
closed = 1;
nodes = (
"522 681 LINE",
"487 682 LINE",
"327 398 LINE",
"356 388 LINE"
);
},
{
closed = 1;
nodes = (
"642 30 LINE",
"416 30 LINE",
"416 0 LINE",
"642 0 LINE"
);
},
{
closed = 1;
nodes = (
"245 30 LINE",
"26 30 LINE",
"26 0 LINE",
"245 0 LINE"
);
},
{
closed = 1;
nodes = (
"360 399 LINE",
"325 400 LINE",
"106 17 LINE",
"135 7 LINE"
);
},
{
closed = 1;
nodes = (
"150 684 LINE",
"311 405 LINE",
"526 21 LINE",
"562 21 LINE",
"356 392 LINE",
"343 407 LINE",
"185 685 LINE"
);
}
);
};
guideLines = (
{
position = "{-436, 430}";
},
{
angle = -48.6678;
position = "{251, 471}";
},
{
angle = 50.3744;
position = "{103, 91}";
},
{
angle = 230.2641;
position = "{217, 271}";
},
{
angle = 119.3961;
position = "{273, 540}";
},
{
angle = 240.3885;
position = "{410, 546}";
}
);
layerId = "BDE47550-9413-4311-811D-1071A1DAE179";
name = "Jun 17 20, 18:46";
paths = (
{
closed = 1;
nodes = (
"377 700 LINE",
"377 670 LINE",
"602 670 LINE",
"602 700 LINE"
);
},
{
closed = 1;
nodes = (
"72 700 LINE",
"72 670 LINE",
"297 670 LINE",
"297 700 LINE"
);
},
{
closed = 1;
nodes = (
"356 420 LINE",
"314 420 LINE",
"336 380 LINE"
);
},
{
closed = 1;
nodes = (
"347 398 LINE",
"187 682 LINE",
"152 681 LINE",
"318 388 LINE"
);
},
{
closed = 1;
nodes = (
"258 0 LINE",
"258 30 LINE",
"32 30 LINE",
"32 0 LINE"
);
},
{
closed = 1;
nodes = (
"642 0 LINE",
"642 30 LINE",
"416 30 LINE",
"416 0 LINE"
);
},
{
closed = 1;
nodes = (
"563 21 LINE",
"349 400 LINE",
"314 399 LINE",
"526 21 LINE"
);
},
{
closed = 1;
nodes = (
"331 407 LINE",
"318 392 LINE",
"112 21 LINE",
"148 21 LINE",
"363 405 LINE",
"522 681 LINE",
"487 682 LINE"
);
}
);
width = 686;
}
);
leftKerningGroup = O;
unicode = "0058,0078";
},
{
glyphname = Y;
lastChange = "2020-06-18 00:39:50 +0000";
layers = (
{
guideLines = (
{
angle = 118.4019;
position = "{135, 554}";
},
{
angle = 60.3289;
position = "{671, 624}";
},
{
angle = 90;
position = "{480, 89}";
}
);
layerId = "66D417ED-19C2-41B2-B946-B4104EEC6A8E";
paths = (
{
closed = 1;
nodes = (
"340 700 LINE",
"340 523 LINE",
"724 523 LINE",
"724 700 LINE"
);
},
{
closed = 1;
nodes = (
"40 700 LINE",
"40 523 LINE",
"273 523 LINE",
"273 700 LINE"
);
},
{
closed = 1;
nodes = (
"318 327 LINE",
"276 327 LINE",
"298 287 LINE"
);
},
{
closed = 1;
nodes = (
"164 177 LINE",
"164 0 LINE",
"480 0 LINE",
"480 177 LINE"
);
},
{
closed = 1;
nodes = (
"310 166 LINE",
"310 304 LINE",
"280 304 LINE",
"280 166 LINE"
);
},
{
closed = 1;
nodes = (
"473 624 LINE",
"299 314 LINE",
"169 555 LINE",
"134 554 LINE",
"280 285 LINE",
"479 285 LINE",
"671 624 LINE"
);
}
);
width = 764;
},
{
guideLines = (
{
angle = 60.3289;
position = "{759, 624}";
},
{
angle = 90;
position = "{548, 89}";
},
{
angle = 60.3284;
position = "{483, 456}";
},
{
angle = 61.631;
position = "{504, 485}";
},
{
angle = -61.631;
position = "{240, 485}";
}
);
layerId = "A4F58C8D-8D17-43C2-93E4-A012F059F067";
paths = (
{
closed = 1;
nodes = (
"458 700 LINE",
"458 670 LINE",
"704 670 LINE",
"704 700 LINE"
);
},
{
closed = 1;
nodes = (
"40 700 LINE",
"40 670 LINE",
"286 670 LINE",
"286 700 LINE"
);
},
{
closed = 1;
nodes = (
"391 317 LINE",
"349 317 LINE",
"371 277 LINE"
);
},
{
closed = 1;
nodes = (
"223 30 LINE",
"223 0 LINE",
"521 0 LINE",
"521 30 LINE"
);
},
{
closed = 1;
nodes = (
"387 26 LINE",
"387 304 LINE",
"357 304 LINE",
"357 26 LINE"
);
},
{
closed = 1;
nodes = (
"577 686 LINE",
"372 304 LINE",
"167 686 LINE",
"132 685 LINE",
"359 265 LINE",
"385 265 LINE",
"612 685 LINE"
);
}
);
width = 744;
}
);
leftKerningGroup = Y;
rightKerningGroup = Y;
unicode = "0059,0079";
},
{
glyphname = Z;
lastChange = "2020-06-17 23:22:56 +0000";
layers = (
{
guideLines = (
{
angle = 90;
position = "{106, 632}";
}
);
layerId = "66D417ED-19C2-41B2-B946-B4104EEC6A8E";
paths = (
{
closed = 1;
nodes = (
"715 6 LINE",
"715 304 LINE",
"537 304 LINE",
"625 250 OFFCURVE",
"715 165 OFFCURVE",
"715 57 CURVE",
"379 57 LINE",
"379 6 LINE"
);
},
{
closed = 1;
nodes = (
"715 0 LINE",
"715 177 LINE",
"135 177 LINE",
"70 125 LINE",
"70 0 LINE"
);
},
{
closed = 1;
nodes = (
"86 698 LINE",
"86 400 LINE",
"264 400 LINE",
"176 454 OFFCURVE",
"86 539 OFFCURVE",
"86 647 CURVE",
"307 647 LINE",
"307 698 LINE"
);
},
{
closed = 1;
nodes = (
"86 700 LINE",
"86 527 LINE",
"660 527 LINE",
"706 564 LINE",
"706 700 LINE"
);
},
{
closed = 1;
nodes = (
"706 564 LINE",
"639 565 LINE",
"70 125 LINE",
"138 125 LINE"
);
}
);
width = 785;
},
{
guideLines = (
{
angle = 90;
position = "{106, 632}";
}
);
layerId = "A4F58C8D-8D17-43C2-93E4-A012F059F067";
paths = (
{
closed = 1;
nodes = (
"715 6 LINE",
"715 304 LINE",
"685 304 LINE",
"685 207 OFFCURVE",
"685 135 OFFCURVE",
"685 27 CURVE",
"379 27 LINE",
"379 6 LINE"
);
},
{
closed = 1;
nodes = (
"715 0 LINE",
"715 30 LINE",
"115 30 LINE",
"70 15 LINE",
"70 0 LINE"
);
},
{
closed = 1;
nodes = (
"86 698 LINE",
"86 400 LINE",
"116 400 LINE",
"116 500 OFFCURVE",
"116 569 OFFCURVE",
"116 677 CURVE",
"307 677 LINE",
"307 698 LINE"
);
},
{
closed = 1;
nodes = (
"86 700 LINE",
"86 670 LINE",
"660 670 LINE",
"706 684 LINE",
"706 700 LINE"
);
},
{
closed = 1;
nodes = (
"706 684 LINE",
"659 685 LINE",
"70 15 LINE",
"118 15 LINE"
);
}
);
width = 785;
}
);
unicode = "005A,007A";
},
{
glyphname = A.ss01;
lastChange = "2020-06-18 04:30:35 +0000";
layers = (
{
background = {
components = (
{
name = A;
}
);
};
layerId = "A4F58C8D-8D17-43C2-93E4-A012F059F067";
paths = (
{
closed = 1;
nodes = (
"280 30 LINE",
"40 30 LINE",
"40 0 LINE",
"280 0 LINE"
);
},
{
closed = 1;
nodes = (
"726 0 LINE",
"726 30 LINE",
"486 30 LINE",
"486 0 LINE"
);
},
{
closed = 1;
nodes = (
"150 430 LINE",
"150 400 LINE",
"616 400 LINE",
"616 430 LINE"
);
},
{
closed = 1;
nodes = (
"233 700 OFFCURVE",
"140 619 OFFCURVE",
"140 463 CURVE SMOOTH",
"140 13 LINE",
"170 13 LINE",
"170 463 LINE SMOOTH",
"170 602 OFFCURVE",
"249 670 OFFCURVE",
"388 670 CURVE SMOOTH",
"517 670 OFFCURVE",
"596 602 OFFCURVE",
"596 463 CURVE SMOOTH",
"596 13 LINE",
"626 13 LINE",
"626 463 LINE SMOOTH",
"626 619 OFFCURVE",
"533 700 OFFCURVE",
"388 700 CURVE SMOOTH"
);
}
);
width = 766;
},
{
background = {
paths = (
{
closed = 1;
nodes = (
"704 177 LINE",
"324 177 LINE",
"324 0 LINE",
"704 0 LINE"
);
},
{
closed = 1;
nodes = (
"257 177 LINE",
"40 177 LINE",
"40 0 LINE",
"257 0 LINE"
);
},
{
closed = 1;
nodes = (
"129 147 LINE",
"129 410 LINE",
"129 492 OFFCURVE",
"181 528 OFFCURVE",
"283 528 CURVE",
"377 528 LINE",
"466 138 LINE",
"614 138 LINE",
"486 700 LINE",
"352 700 LINE",
"196 700 OFFCURVE",
"99 617 OFFCURVE",
"99 478 CURVE",
"99 148 LINE"
);
},
{
closed = 1;
nodes = (
"530 430 LINE",
"109 430 LINE",
"109 400 LINE",
"530 400 LINE"
);
}
);
};
layerId = "66D417ED-19C2-41B2-B946-B4104EEC6A8E";
paths = (
{
closed = 1;
nodes = (
"256 177 LINE",
"40 177 LINE",
"40 0 LINE",
"256 0 LINE"
);
},
{
closed = 1;
nodes = (
"704 0 LINE",
"704 177 LINE",
"323 177 LINE",
"323 0 LINE"
);
},
{
closed = 1;
nodes = (
"109 430 LINE",
"109 400 LINE",
"530 400 LINE",
"530 430 LINE"
);
},
{
closed = 1;
nodes = (
"200 700 OFFCURVE",
"97 617 OFFCURVE",
"98 478 CURVE SMOOTH",
"100 77 LINE",
"130 77 LINE",
"130 410 LINE SMOOTH",
"130 492 OFFCURVE",
"206 528 OFFCURVE",
"308 528 CURVE SMOOTH",
"398 528 OFFCURVE",
"459 492 OFFCURVE",
"459 410 CURVE SMOOTH",
"459 77 LINE",
"619 77 LINE",
"619 361 LINE SMOOTH",
"619 581 OFFCURVE",
"536 700 OFFCURVE",
"356 700 CURVE SMOOTH"
);
}
);
width = 766;
}
);
leftKerningGroup = A;
rightKerningGroup = Asub;
},
{
glyphname = E.ss01;
lastChange = "2020-06-18 04:30:35 +0000";
layers = (
{
background = {
components = (
{
name = E;
transform = "{1, 0, 0, 1, 130, 0}";
}
);
};
layerId = "A4F58C8D-8D17-43C2-93E4-A012F059F067";
paths = (
{
closed = 1;
nodes = (
"204 12 LINE",
"234 12 LINE",
"234 684 LINE",
"204 684 LINE"
);
},
{
closed = 1;
nodes = (
"369 673 LINE",
"616 673 LINE",
"616 565 OFFCURVE",
"616 462 OFFCURVE",
"616 396 CURVE",
"646 396 LINE",
"646 694 LINE",
"369 694 LINE"
);
},
{
closed = 1;
nodes = (
"70 670 LINE",
"646 670 LINE",
"646 700 LINE",
"70 700 LINE"
);
},
{
closed = 1;
nodes = (
"440 430 LINE",
"209 430 LINE",
"209 400 LINE",
"440 400 LINE"
);
},
{
closed = 1;
nodes = (
"646 6 LINE",
"646 304 LINE",
"616 304 LINE",
"616 238 OFFCURVE",
"616 135 OFFCURVE",
"616 27 CURVE",
"369 27 LINE",
"369 6 LINE"
);
},
{
closed = 1;
nodes = (
"646 0 LINE",
"646 30 LINE",
"70 30 LINE",
"70 0 LINE"
);
}
);
width = 716;
},
{
background = {
components = (
{
name = E;
transform = "{1, 0, 0, 1, 130, 0}";
}
);
};
layerId = "66D417ED-19C2-41B2-B946-B4104EEC6A8E";
paths = (
{
closed = 1;
nodes = (
"204 112 LINE",
"234 112 LINE",
"234 554 LINE",
"204 554 LINE"
);
},
{
closed = 1;
nodes = (
"369 647 LINE",
"646 647 LINE",
"646 539 OFFCURVE",
"556 454 OFFCURVE",
"468 400 CURVE",
"646 400 LINE",
"646 698 LINE",
"369 698 LINE"
);
},
{
closed = 1;
nodes = (
"70 527 LINE",
"646 527 LINE",
"646 700 LINE",
"70 700 LINE"
);
},
{
closed = 1;
nodes = (
"390 430 LINE",
"209 430 LINE",
"209 400 LINE",
"390 400 LINE"
);
},
{
closed = 1;
nodes = (
"646 6 LINE",
"646 304 LINE",
"468 304 LINE",
"556 250 OFFCURVE",
"646 165 OFFCURVE",
"646 57 CURVE",
"369 57 LINE",
"369 6 LINE"
);
},
{
closed = 1;
nodes = (
"646 0 LINE",
"646 177 LINE",
"70 177 LINE",
"70 0 LINE"
);
}
);
width = 716;
}
);
},
{
glyphname = F.ss01;
lastChange = "2020-06-18 04:30:35 +0000";
layers = (
{
layerId = "A4F58C8D-8D17-43C2-93E4-A012F059F067";
paths = (
{
closed = 1;
nodes = (
"204 12 LINE",
"234 12 LINE",
"234 684 LINE",
"204 684 LINE"
);
},
{
closed = 1;
nodes = (
"368 0 LINE",
"368 30 LINE",
"70 30 LINE",
"70 0 LINE"
);
},
{
closed = 1;
nodes = (
"369 673 LINE",
"616 673 LINE",
"616 565 OFFCURVE",
"616 462 OFFCURVE",
"616 396 CURVE",
"646 396 LINE",
"646 694 LINE",
"369 694 LINE"
);
},
{
closed = 1;
nodes = (
"70 670 LINE",
"646 670 LINE",
"646 700 LINE",
"70 700 LINE"
);
},
{
closed = 1;
nodes = (
"440 430 LINE",
"209 430 LINE",
"209 400 LINE",
"440 400 LINE"
);
}
);
width = 716;
},
{
layerId = "66D417ED-19C2-41B2-B946-B4104EEC6A8E";
paths = (
{
closed = 1;
nodes = (
"204 112 LINE",
"234 112 LINE",
"234 554 LINE",
"204 554 LINE"
);
},
{
closed = 1;
nodes = (
"376 0 LINE",
"376 177 LINE",
"70 177 LINE",
"70 0 LINE"
);
},
{
closed = 1;
nodes = (
"369 647 LINE",
"646 647 LINE",
"646 539 OFFCURVE",
"556 454 OFFCURVE",
"468 400 CURVE",
"646 400 LINE",
"646 698 LINE",
"369 698 LINE"
);
},
{
closed = 1;
nodes = (
"70 527 LINE",
"646 527 LINE",
"646 700 LINE",
"70 700 LINE"
);
},
{
closed = 1;
nodes = (
"390 430 LINE",
"209 430 LINE",
"209 400 LINE",
"390 400 LINE"
);
}
);
width = 716;
}
);
},
{
glyphname = H.ss01;
lastChange = "2020-06-18 04:30:35 +0000";
layers = (
{
layerId = "A4F58C8D-8D17-43C2-93E4-A012F059F067";
paths = (
{
closed = 1;
nodes = (
"720 400 LINE",
"720 430 LINE",
"222 430 LINE",
"222 400 LINE"
);
},
{
closed = 1;
nodes = (
"731 688 LINE",
"701 688 LINE",
"701 6 LINE",
"731 6 LINE"
);
},
{
closed = 1;
nodes = (
"567 30 LINE",
"567 0 LINE",
"865 0 LINE",
"865 30 LINE"
);
},
{
closed = 1;
nodes = (
"567 700 LINE",
"567 670 LINE",
"865 670 LINE",
"865 700 LINE"
);
},
{
closed = 1;
nodes = (
"234 688 LINE",
"204 688 LINE",
"204 6 LINE",
"234 6 LINE"
);
},
{
closed = 1;
nodes = (
"70 30 LINE",
"70 0 LINE",
"368 0 LINE",
"368 30 LINE"
);
},
{
closed = 1;
nodes = (
"70 700 LINE",
"70 670 LINE",
"368 670 LINE",
"368 700 LINE"
);
}
);
width = 935;
},
{
layerId = "66D417ED-19C2-41B2-B946-B4104EEC6A8E";
paths = (
{
closed = 1;
nodes = (
"711 400 LINE",
"711 430 LINE",
"283 430 LINE",
"283 400 LINE"
);
},
{
closed = 1;
nodes = (
"722 588 LINE",
"692 588 LINE",
"692 146 LINE",
"722 146 LINE"
);
},
{
closed = 1;
nodes = (
"569 177 LINE",
"569 0 LINE",
"849 0 LINE",
"849 177 LINE"
);
},
{
closed = 1;
nodes = (
"569 700 LINE",
"569 527 LINE",
"849 527 LINE",
"849 700 LINE"
);
},
{
closed = 1;
nodes = (
"355 588 LINE",
"195 588 LINE",
"195 146 LINE",
"355 146 LINE"
);
},
{
closed = 1;
nodes = (
"70 177 LINE",
"70 0 LINE",
"502 0 LINE",
"502 177 LINE"
);
},
{
closed = 1;
nodes = (
"70 700 LINE",
"70 527 LINE",
"502 527 LINE",
"502 700 LINE"
);
}
);
width = 919;
}
);
},
{
glyphname = K.ss01;
lastChange = "2020-06-18 04:30:35 +0000";
layers = (
{
layerId = "A4F58C8D-8D17-43C2-93E4-A012F059F067";
paths = (
{
closed = 1;
nodes = (
"234 1 LINE",
"234 688 LINE",
"204 688 LINE",
"204 1 LINE"
);
},
{
closed = 1;
nodes = (
"70 0 LINE",
"344 0 LINE",
"344 30 LINE",
"70 30 LINE"
);
},
{
closed = 1;
nodes = (
"70 670 LINE",
"344 670 LINE",
"344 700 LINE",
"70 700 LINE"
);
},
{
closed = 1;
nodes = (
"462 0 LINE",
"708 0 LINE",
"708 30 LINE",
"462 30 LINE"
);
},
{
closed = 1;
nodes = (
"615 22 LINE",
"292 402 LINE",
"610 683 LINE",
"587 700 LINE",
"260 410 LINE",
"248 410 LINE",
"586 13 LINE"
);
},
{
closed = 1;
nodes = (
"443 700 LINE",
"443 670 LINE",
"695 670 LINE",
"695 700 LINE"
);
},
{
closed = 1;
nodes = (
"284 417 LINE",
"222 417 LINE",
"222 387 LINE",
"264 387 LINE"
);
},
{
closed = 1;
nodes = (
"222 415 LINE",
"222 385 LINE",
"284 385 LINE",
"264 415 LINE"
);
}
);
width = 778;
},
{
layerId = "66D417ED-19C2-41B2-B946-B4104EEC6A8E";
paths = (
{
closed = 1;
nodes = (
"242 146 LINE",
"242 588 LINE",
"212 588 LINE",
"212 146 LINE"
);
},
{
closed = 1;
nodes = (
"70 0 LINE",
"350 0 LINE",
"350 177 LINE",
"70 177 LINE"
);
},
{
closed = 1;
nodes = (
"70 527 LINE",
"283 527 LINE",
"283 700 LINE",
"70 700 LINE"
);
},
{
closed = 1;
nodes = (
"417 0 LINE",
"695 0 LINE",
"695 177 LINE",
"417 177 LINE"
);
},
{
closed = 1;
nodes = (
"639 122 LINE",
"381 334 LINE",
"694 611 LINE",
"681 700 LINE",
"595 700 LINE",
"256 400 LINE",
"638 86 LINE"
);
},
{
closed = 1;
nodes = (
"350 700 LINE",
"350 527 LINE",
"697 527 LINE",
"697 700 LINE"
);
},
{
closed = 1;
nodes = (
"292 417 LINE",
"230 417 LINE",
"230 387 LINE",
"272 387 LINE"
);
},
{
closed = 1;
nodes = (
"230 415 LINE",
"230 385 LINE",
"292 385 LINE",
"272 415 LINE"
);
}
);
width = 767;
},
{
associatedMasterId = "66D417ED-19C2-41B2-B946-B4104EEC6A8E";
layerId = "A18D6E86-0416-4EB1-B5A7-30E3B4C3561C";
name = "Jun 17 20, 19:29";
paths = (
{
closed = 1;
nodes = (
"242 146 LINE",
"242 588 LINE",
"212 588 LINE",
"212 146 LINE"
);
},
{
closed = 1;
nodes = (
"70 0 LINE",
"278 0 LINE",
"278 173 LINE",
"70 173 LINE"
);
},
{
closed = 1;
nodes = (
"309 386 LINE",
"252 386 LINE",
"497 86 LINE",
"583 86 LINE",
"599 175 LINE",
"393 428 LINE",
"631 664 LINE",
"589 664 LINE"
);
},
{
closed = 1;
nodes = (
"345 173 LINE",
"345 0 LINE",
"689 0 LINE",
"689 173 LINE"
);
},
{
closed = 1;
nodes = (
"354 417 LINE",
"222 417 LINE",
"222 387 LINE",
"334 387 LINE"
);
},
{
closed = 1;
nodes = (
"222 415 LINE",
"222 385 LINE",
"354 385 LINE",
"334 415 LINE"
);
},
{
closed = 1;
nodes = (
"70 523 LINE",
"316 523 LINE",
"316 700 LINE",
"70 700 LINE"
);
},
{
closed = 1;
nodes = (
"383 523 LINE",
"687 523 LINE",
"687 700 LINE",
"383 700 LINE"
);
}
);
width = 759;
}
);
rightKerningGroup = K;
},
{
glyphname = M.ss01;
lastChange = "2020-06-18 04:30:35 +0000";
layers = (
{
layerId = "A4F58C8D-8D17-43C2-93E4-A012F059F067";
paths = (
{
closed = 1;
nodes = (
"198 10 LINE",
"266 670 LINE",
"240 700 LINE",
"168 10 LINE"
);
},
{
closed = 1;
nodes = (
"70 0 LINE",
"310 0 LINE",
"310 30 LINE",
"70 30 LINE"
);
},
{
closed = 1;
nodes = (
"457 9 LINE",
"497 9 LINE",
"503 39 LINE",
"453 39 LINE"
);
},
{
closed = 1;
nodes = (
"137 670 LINE",
"254 670 LINE",
"244 700 LINE",
"137 700 LINE"
);
},
{
closed = 1;
nodes = (
"475 0 LINE",
"508 0 LINE",
"730 698 LINE",
"698 700 LINE",
"483 27 LINE"
);
},
{
closed = 1;
nodes = (
"263 700 LINE",
"231 700 LINE",
"453 0 LINE",
"486 0 LINE"
);
},
{
closed = 1;
nodes = (
"690 670 LINE",
"824 670 LINE",
"824 700 LINE",
"698 700 LINE"
);
},
{
closed = 1;
nodes = (
"651 0 LINE",
"891 0 LINE",
"891 30 LINE",
"651 30 LINE"
);
},
{
closed = 1;
nodes = (
"721 700 LINE",
"695 670 LINE",
"763 10 LINE",
"793 10 LINE"
);
}
);
width = 961;
},
{
layerId = "66D417ED-19C2-41B2-B946-B4104EEC6A8E";
paths = (
{
closed = 1;
nodes = (
"316 146 LINE",
"365 538 LINE",
"201 538 LINE",
"152 146 LINE"
);
},
{
closed = 1;
nodes = (
"70 0 LINE",
"412 0 LINE",
"412 177 LINE",
"70 177 LINE"
);
},
{
closed = 1;
nodes = (
"513 140 LINE",
"553 112 LINE",
"539 260 LINE",
"489 260 LINE"
);
},
{
closed = 1;
nodes = (
"133 527 LINE",
"391 527 LINE",
"351 700 LINE",
"133 700 LINE"
);
},
{
closed = 1;
nodes = (
"553 0 LINE",
"594 0 LINE",
"776 588 LINE",
"602 588 LINE",
"505 226 LINE"
);
},
{
closed = 1;
nodes = (
"362 700 LINE",
"338 700 LINE",
"539 0 LINE",
"564 0 LINE"
);
},
{
closed = 1;
nodes = (
"586 527 LINE",
"845 527 LINE",
"845 700 LINE",
"634 700 LINE"
);
},
{
closed = 1;
nodes = (
"695 0 LINE",
"949 0 LINE",
"948 177 LINE",
"695 177 LINE"
);
},
{
closed = 1;
nodes = (
"767 700 LINE",
"743 700 LINE",
"815 0 LINE",
"840 0 LINE"
);
}
);
width = 1019;
}
);
leftKerningGroup = M;
rightKerningGroup = M;
},
{
glyphname = O.ss01;
lastChange = "2020-06-18 04:30:35 +0000";
layers = (
{
layerId = "A4F58C8D-8D17-43C2-93E4-A012F059F067";
paths = (
{
closed = 1;
nodes = (
"698 506 OFFCURVE",
"619 700 OFFCURVE",
"379 700 CURVE SMOOTH",
"139 700 OFFCURVE",
"60 506 OFFCURVE",
"60 366 CURVE SMOOTH",
"60 334 LINE SMOOTH",
"60 194 OFFCURVE",
"139 0 OFFCURVE",
"379 0 CURVE SMOOTH",
"619 0 OFFCURVE",
"698 194 OFFCURVE",
"698 334 CURVE SMOOTH",
"698 366 LINE SMOOTH"
);
},
{
closed = 1;
nodes = (
"152 30 OFFCURVE",
"90 224 OFFCURVE",
"90 349 CURVE SMOOTH",
"90 484 OFFCURVE",
"152 670 OFFCURVE",
"379 670 CURVE SMOOTH",
"606 670 OFFCURVE",
"668 484 OFFCURVE",
"668 349 CURVE SMOOTH",
"668 224 OFFCURVE",
"606 30 OFFCURVE",
"379 30 CURVE SMOOTH"
);
}
);
width = 758;
},
{
layerId = "66D417ED-19C2-41B2-B946-B4104EEC6A8E";
paths = (
{
closed = 1;
nodes = (
"698 506 OFFCURVE",
"619 700 OFFCURVE",
"379 700 CURVE SMOOTH",
"139 700 OFFCURVE",
"60 506 OFFCURVE",
"60 366 CURVE SMOOTH",
"60 334 LINE SMOOTH",
"60 194 OFFCURVE",
"139 0 OFFCURVE",
"379 0 CURVE SMOOTH",
"619 0 OFFCURVE",
"698 194 OFFCURVE",
"698 334 CURVE SMOOTH",
"698 366 LINE SMOOTH"
);
},
{
closed = 1;
nodes = (
"335 159 OFFCURVE",
"90 245 OFFCURVE",
"90 389 CURVE SMOOTH",
"90 484 OFFCURVE",
"166 544 OFFCURVE",
"278 544 CURVE SMOOTH",
"430 544 OFFCURVE",
"667 457 OFFCURVE",
"667 309 CURVE SMOOTH",
"667 217 OFFCURVE",
"594 159 OFFCURVE",
"485 159 CURVE SMOOTH"
);
}
);
width = 758;
}
);
leftKerningGroup = O;
rightKerningGroup = O;
},
{
glyphname = U.ss01;
lastChange = "2020-06-18 04:30:35 +0000";
layers = (
{
layerId = "A4F58C8D-8D17-43C2-93E4-A012F059F067";
paths = (
{
closed = 1;
nodes = (
"202 129 OFFCURVE",
"283 0 OFFCURVE",
"482 0 CURVE",
"679 0 OFFCURVE",
"756 129 OFFCURVE",
"755 329 CURVE SMOOTH",
"754 683 LINE",
"724 683 LINE",
"724 309 LINE SMOOTH",
"724 151 OFFCURVE",
"653 30 OFFCURVE",
"482 30 CURVE SMOOTH",
"309 30 OFFCURVE",
"232 151 OFFCURVE",
"232 309 CURVE SMOOTH",
"232 683 LINE",
"202 683 LINE",
"202 329 LINE SMOOTH"
);
},
{
closed = 1;
nodes = (
"70 670 LINE",
"366 670 LINE",
"366 700 LINE",
"70 700 LINE"
);
},
{
closed = 1;
nodes = (
"590 670 LINE",
"888 670 LINE",
"888 700 LINE",
"590 700 LINE"
);
}
);
width = 958;
},
{
layerId = "66D417ED-19C2-41B2-B946-B4104EEC6A8E";
paths = (
{
closed = 1;
nodes = (
"195 119 OFFCURVE",
"278 0 OFFCURVE",
"488 0 CURVE",
"665 0 OFFCURVE",
"749 119 OFFCURVE",
"748 339 CURVE SMOOTH",
"747 623 LINE",
"717 623 LINE",
"717 389 LINE SMOOTH",
"717 261 OFFCURVE",
"676 177 OFFCURVE",
"536 177 CURVE SMOOTH",
"396 177 OFFCURVE",
"355 261 OFFCURVE",
"355 389 CURVE SMOOTH",
"355 623 LINE",
"195 623 LINE",
"195 339 LINE SMOOTH"
);
},
{
closed = 1;
nodes = (
"70 527 LINE",
"531 527 LINE",
"531 700 LINE",
"70 700 LINE"
);
},
{
closed = 1;
nodes = (
"598 527 LINE",
"804 527 LINE",
"804 700 LINE",
"598 700 LINE"
);
}
);
width = 874;
}
);
leftKerningGroup = W;
rightKerningGroup = W;
},
{
glyphname = V.ss01;
lastChange = "2020-06-18 04:30:35 +0000";
layers = (
{
layerId = "A4F58C8D-8D17-43C2-93E4-A012F059F067";
paths = (
{
closed = 1;
nodes = (
"586 700 LINE",
"586 670 LINE",
"836 670 LINE",
"836 700 LINE"
);
},
{
closed = 1;
nodes = (
"40 700 LINE",
"40 670 LINE",
"290 670 LINE",
"290 700 LINE"
);
},
{
closed = 1;
nodes = (
"403 0 LINE",
"473 0 LINE",
"745 694 LINE",
"710 693 LINE",
"438 10 LINE",
"166 693 LINE",
"131 694 LINE"
);
},
{
closed = 1;
nodes = (
"458 41 LINE",
"416 41 LINE",
"438 1 LINE"
);
}
);
width = 876;
},
{
layerId = "66D417ED-19C2-41B2-B946-B4104EEC6A8E";
paths = (
{
closed = 1;
nodes = (
"570 700 LINE",
"570 523 LINE",
"784 523 LINE",
"784 700 LINE"
);
},
{
closed = 1;
nodes = (
"40 700 LINE",
"40 523 LINE",
"436 523 LINE",
"436 700 LINE"
);
},
{
closed = 1;
nodes = (
"408 2 LINE",
"478 2 LINE",
"725 554 LINE",
"695 555 LINE",
"520 165 LINE",
"310 564 LINE",
"112 564 LINE"
);
},
{
closed = 1;
nodes = (
"543 183 LINE",
"501 183 LINE",
"521 143 LINE"
);
}
);
width = 824;
}
);
leftKerningGroup = V;
rightKerningGroup = V;
},
{
glyphname = W.ss01;
lastChange = "2020-06-18 04:30:35 +0000";
layers = (
{
layerId = "A4F58C8D-8D17-43C2-93E4-A012F059F067";
paths = (
{
closed = 1;
nodes = (
"442 700 LINE",
"442 670 LINE",
"751 670 LINE",
"751 700 LINE"
);
},
{
closed = 1;
nodes = (
"40 700 LINE",
"40 670 LINE",
"280 670 LINE",
"280 700 LINE"
);
},
{
closed = 1;
nodes = (
"331 2 LINE",
"393 2 LINE",
"591 687 LINE",
"556 684 LINE",
"362 11 LINE",
"166 685 LINE",
"136 684 LINE"
);
},
{
closed = 1;
nodes = (
"913 700 LINE",
"913 670 LINE",
"1153 670 LINE",
"1153 700 LINE"
);
},
{
closed = 1;
nodes = (
"831 11 LINE",
"637 684 LINE",
"574 696 LINE",
"602 687 LINE",
"800 2 LINE",
"862 2 LINE",
"1057 684 LINE",
"1027 685 LINE"
);
},
{
closed = 1;
nodes = (
"851 43 LINE",
"809 43 LINE",
"831 3 LINE"
);
},
{
closed = 1;
nodes = (
"382 43 LINE",
"340 43 LINE",
"362 3 LINE"
);
}
);
width = 1193;
},
{
layerId = "66D417ED-19C2-41B2-B946-B4104EEC6A8E";
paths = (
{
closed = 1;
nodes = (
"454 700 LINE",
"454 523 LINE",
"743 523 LINE",
"743 700 LINE"
);
},
{
closed = 1;
nodes = (
"40 700 LINE",
"40 523 LINE",
"387 523 LINE",
"387 700 LINE"
);
},
{
closed = 1;
nodes = (
"333 2 LINE",
"393 2 LINE",
"579 554 LINE",
"549 555 LINE",
"446 225 LINE",
"266 632 LINE",
"65 632 LINE"
);
},
{
closed = 1;
nodes = (
"810 700 LINE",
"810 523 LINE",
"1003 523 LINE",
"1003 700 LINE"
);
},
{
closed = 1;
nodes = (
"792 226 LINE",
"642 590 LINE",
"570 590 LINE",
"503 396 LINE",
"678 2 LINE",
"738 2 LINE",
"924 554 LINE",
"894 555 LINE"
);
},
{
closed = 1;
nodes = (
"813 250 LINE",
"771 250 LINE",
"791 210 LINE"
);
},
{
closed = 1;
nodes = (
"468 248 LINE",
"426 248 LINE",
"446 208 LINE"
);
}
);
width = 1043;
}
);
leftKerningGroup = W;
rightKerningGroup = W;
},
{
glyphname = X.ss01;
lastChange = "2020-06-18 04:30:35 +0000";
layers = (
{
layerId = "A4F58C8D-8D17-43C2-93E4-A012F059F067";
paths = (
{
closed = 1;
nodes = (
"82 670 LINE",
"328 670 LINE",
"328 700 LINE",
"82 700 LINE"
);
},
{
closed = 1;
nodes = (
"432 670 LINE",
"678 670 LINE",
"678 700 LINE",
"432 700 LINE"
);
},
{
closed = 1;
nodes = (
"403 420 LINE",
"361 420 LINE",
"381 380 LINE"
);
},
{
closed = 1;
nodes = (
"585 681 LINE",
"550 682 LINE",
"364 388 LINE",
"393 378 LINE"
);
},
{
closed = 1;
nodes = (
"720 30 LINE",
"473 30 LINE",
"473 0 LINE",
"720 0 LINE"
);
},
{
closed = 1;
nodes = (
"286 30 LINE",
"40 30 LINE",
"40 0 LINE",
"286 0 LINE"
);
},
{
closed = 1;
nodes = (
"403 399 LINE",
"368 400 LINE",
"134 21 LINE",
"170 21 LINE"
);
},
{
closed = 1;
nodes = (
"175 681 LINE",
"356 399 LINE",
"589 21 LINE",
"625 21 LINE",
"391 400 LINE",
"386 407 LINE",
"210 682 LINE"
);
}
);
width = 760;
},
{
layerId = "66D417ED-19C2-41B2-B946-B4104EEC6A8E";
paths = (
{
closed = 1;
nodes = (
"40 527 LINE",
"389 527 LINE",
"389 700 LINE",
"40 700 LINE"
);
},
{
closed = 1;
nodes = (
"456 527 LINE",
"640 527 LINE",
"640 700 LINE",
"456 700 LINE"
);
},
{
closed = 1;
nodes = (
"442 430 LINE",
"400 430 LINE",
"420 390 LINE"
);
},
{
closed = 1;
nodes = (
"584 554 LINE",
"549 555 LINE",
"409 398 LINE",
"438 388 LINE"
);
},
{
closed = 1;
nodes = (
"701 177 LINE",
"360 177 LINE",
"360 0 LINE",
"701 0 LINE"
);
},
{
closed = 1;
nodes = (
"293 177 LINE",
"40 177 LINE",
"40 0 LINE",
"293 0 LINE"
);
},
{
closed = 1;
nodes = (
"354 322 LINE",
"319 323 LINE",
"179 166 LINE",
"208 156 LINE"
);
},
{
closed = 1;
nodes = (
"47 624 LINE",
"243 390 LINE",
"503 76 LINE",
"640 149 LINE",
"438 392 LINE",
"422 404 LINE",
"232 640 LINE"
);
}
);
width = 741;
}
);
leftKerningGroup = X;
rightKerningGroup = X;
},
{
glyphname = Y.ss01;
lastChange = "2020-06-18 04:30:35 +0000";
layers = (
{
layerId = "A4F58C8D-8D17-43C2-93E4-A012F059F067";
paths = (
{
closed = 1;
nodes = (
"458 700 LINE",
"458 670 LINE",
"704 670 LINE",
"704 700 LINE"
);
},
{
closed = 1;
nodes = (
"40 700 LINE",
"40 670 LINE",
"286 670 LINE",
"286 700 LINE"
);
},
{
closed = 1;
nodes = (
"391 317 LINE",
"349 317 LINE",
"371 277 LINE"
);
},
{
closed = 1;
nodes = (
"223 30 LINE",
"223 0 LINE",
"521 0 LINE",
"521 30 LINE"
);
},
{
closed = 1;
nodes = (
"387 26 LINE",
"387 304 LINE",
"357 304 LINE",
"357 26 LINE"
);
},
{
closed = 1;
nodes = (
"577 686 LINE",
"372 304 LINE",
"167 686 LINE",
"132 685 LINE",
"359 265 LINE",
"385 265 LINE",
"612 685 LINE"
);
}
);
width = 744;
},
{
layerId = "66D417ED-19C2-41B2-B946-B4104EEC6A8E";
paths = (
{
closed = 1;
nodes = (
"491 700 LINE",
"491 523 LINE",
"724 523 LINE",
"724 700 LINE"
);
},
{
closed = 1;
nodes = (
"40 700 LINE",
"40 523 LINE",
"424 523 LINE",
"424 700 LINE"
);
},
{
closed = 1;
nodes = (
"488 327 LINE",
"446 327 LINE",
"468 287 LINE"
);
},
{
closed = 1;
nodes = (
"164 177 LINE",
"164 0 LINE",
"554 0 LINE",
"554 177 LINE"
);
},
{
closed = 1;
nodes = (
"454 166 LINE",
"454 304 LINE",
"280 304 LINE",
"280 166 LINE"
);
},
{
closed = 1;
nodes = (
"595 555 LINE",
"465 314 LINE",
"291 624 LINE",
"93 624 LINE",
"285 285 LINE",
"484 285 LINE",
"630 554 LINE"
);
}
);
width = 764;
}
);
leftKerningGroup = Y;
rightKerningGroup = Y;
},
{
glyphname = A.ss02;
lastChange = "2020-06-18 04:30:35 +0000";
layers = (
{
background = {
paths = (
{
closed = 1;
nodes = (
"750 178 LINE",
"417 178 LINE",
"417 0 LINE",
"750 0 LINE"
);
},
{
closed = 1;
nodes = (
"321 178 LINE",
"39 178 LINE",
"39 0 LINE",
"321 0 LINE"
);
},
{
closed = 1;
nodes = (
"602 7 LINE",
"637 6 LINE",
"494 700 LINE",
"457 700 LINE"
);
},
{
closed = 1;
nodes = (
"545 430 LINE",
"222 430 LINE",
"222 400 LINE",
"545 400 LINE"
);
},
{
closed = 1;
nodes = (
"275 700 LINE",
"133 6 LINE",
"168 7 LINE",
"313 700 LINE"
);
},
{
closed = 1;
nodes = (
"611 700 LINE",
"163 700 LINE",
"163 527 LINE",
"611 527 LINE"
);
}
);
};
layerId = "A4F58C8D-8D17-43C2-93E4-A012F059F067";
paths = (
{
closed = 1;
nodes = (
"769 30 LINE",
"535 30 LINE",
"535 0 LINE",
"769 0 LINE"
);
},
{
closed = 1;
nodes = (
"274 30 LINE",
"40 30 LINE",
"40 0 LINE",
"274 0 LINE"
);
},
{
closed = 1;
nodes = (
"644 7 LINE",
"675 6 LINE",
"573 700 LINE",
"540 700 LINE"
);
},
{
closed = 1;
nodes = (
"584 430 LINE",
"223 430 LINE",
"223 400 LINE",
"584 400 LINE"
);
},
{
closed = 1;
nodes = (
"236 700 LINE",
"134 6 LINE",
"164 7 LINE",
"269 700 LINE"
);
},
{
closed = 1;
nodes = (
"680 700 LINE",
"129 700 LINE",
"129 670 LINE",
"680 670 LINE"
);
}
);
width = 809;
},
{
background = {
paths = (
{
closed = 1;
nodes = (
"769 30 LINE",
"535 30 LINE",
"535 0 LINE",
"769 0 LINE"
);
},
{
closed = 1;
nodes = (
"274 30 LINE",
"40 30 LINE",
"40 0 LINE",
"274 0 LINE"
);
},
{
closed = 1;
nodes = (
"644 7 LINE",
"675 6 LINE",
"573 700 LINE",
"540 700 LINE"
);
},
{
closed = 1;
nodes = (
"584 430 LINE",
"223 430 LINE",
"223 400 LINE",
"584 400 LINE"
);
},
{
closed = 1;
nodes = (
"236 700 LINE",
"134 6 LINE",
"164 7 LINE",
"269 700 LINE"
);
},
{
closed = 1;
nodes = (
"680 700 LINE",
"129 700 LINE",
"129 670 LINE",
"680 670 LINE"
);
}
);
};
layerId = "66D417ED-19C2-41B2-B946-B4104EEC6A8E";
paths = (
{
closed = 1;
nodes = (
"766 178 LINE",
"428 178 LINE",
"428 0 LINE",
"766 0 LINE"
);
},
{
closed = 1;
nodes = (
"312 178 LINE",
"40 178 LINE",
"40 0 LINE",
"312 0 LINE"
);
},
{
closed = 1;
nodes = (
"622 7 LINE",
"653 6 LINE",
"550 700 LINE",
"517 700 LINE"
);
},
{
closed = 1;
nodes = (
"581 430 LINE",
"203 430 LINE",
"203 400 LINE",
"581 400 LINE"
);
},
{
closed = 1;
nodes = (
"236 700 LINE",
"134 6 LINE",
"164 7 LINE",
"269 700 LINE"
);
},
{
closed = 1;
nodes = (
"667 700 LINE",
"124 700 LINE",
"124 527 LINE",
"667 527 LINE"
);
}
);
width = 806;
}
);
leftKerningGroup = A;
rightKerningGroup = Asub;
},
{
glyphname = zero;
lastChange = "2020-06-18 00:47:57 +0000";
layers = (
{
layerId = "66D417ED-19C2-41B2-B946-B4104EEC6A8E";
paths = (
{
closed = 1;
nodes = (
"558 526 OFFCURVE",
"479 700 OFFCURVE",
"309 700 CURVE SMOOTH",
"139 700 OFFCURVE",
"60 526 OFFCURVE",
"60 366 CURVE SMOOTH",
"60 334 LINE SMOOTH",
"60 174 OFFCURVE",
"139 0 OFFCURVE",
"309 0 CURVE SMOOTH",
"479 0 OFFCURVE",
"558 174 OFFCURVE",
"558 334 CURVE SMOOTH",
"558 366 LINE SMOOTH"
);
},
{
closed = 1;
nodes = (
"152 177 OFFCURVE",
"85 244 OFFCURVE",
"85 349 CURVE SMOOTH",
"85 454 OFFCURVE",
"152 527 OFFCURVE",
"309 527 CURVE SMOOTH",
"466 527 OFFCURVE",
"533 454 OFFCURVE",
"533 349 CURVE SMOOTH",
"533 244 OFFCURVE",
"466 177 OFFCURVE",
"309 177 CURVE SMOOTH"
);
}
);
width = 618;
},
{
layerId = "A4F58C8D-8D17-43C2-93E4-A012F059F067";
paths = (
{
closed = 1;
nodes = (
"558 526 OFFCURVE",
"479 700 OFFCURVE",
"309 700 CURVE SMOOTH",
"139 700 OFFCURVE",
"60 526 OFFCURVE",
"60 366 CURVE SMOOTH",
"60 334 LINE SMOOTH",
"60 174 OFFCURVE",
"139 0 OFFCURVE",
"309 0 CURVE SMOOTH",
"479 0 OFFCURVE",
"558 174 OFFCURVE",
"558 334 CURVE SMOOTH",
"558 366 LINE SMOOTH"
);
},
{
closed = 1;
nodes = (
"152 30 OFFCURVE",
"90 224 OFFCURVE",
"90 349 CURVE SMOOTH",
"90 494 OFFCURVE",
"152 670 OFFCURVE",
"309 670 CURVE SMOOTH",
"466 670 OFFCURVE",
"528 494 OFFCURVE",
"528 349 CURVE SMOOTH",
"528 224 OFFCURVE",
"466 30 OFFCURVE",
"309 30 CURVE SMOOTH"
);
}
);
width = 618;
}
);
leftKerningGroup = O;
rightKerningGroup = O;
unicode = 0030;
},
{
glyphname = one;
lastChange = "2020-06-17 23:08:13 +0000";
layers = (
{
layerId = "66D417ED-19C2-41B2-B946-B4104EEC6A8E";
paths = (
{
closed = 1;
nodes = (
"301 146 LINE",
"301 588 LINE",
"271 588 LINE",
"271 146 LINE"
);
},
{
closed = 1;
nodes = (
"70 0 LINE",
"454 0 LINE",
"454 177 LINE",
"70 177 LINE"
);
},
{
closed = 1;
nodes = (
"70 523 LINE",
"301 523 LINE",
"301 700 LINE",
"70 700 LINE"
);
}
);
width = 514;
},
{
layerId = "A4F58C8D-8D17-43C2-93E4-A012F059F067";
paths = (
{
closed = 1;
nodes = (
"234 16 LINE",
"234 688 LINE",
"204 688 LINE",
"204 16 LINE"
);
},
{
closed = 1;
nodes = (
"70 0 LINE",
"368 0 LINE",
"368 30 LINE",
"70 30 LINE"
);
},
{
closed = 1;
nodes = (
"70 670 LINE",
"234 670 LINE",
"234 700 LINE",
"70 700 LINE"
);
}
);
width = 428;
}
);
unicode = 0031;
},
{
glyphname = two;
lastChange = "2020-06-18 00:48:08 +0000";
layers = (
{
layerId = "66D417ED-19C2-41B2-B946-B4104EEC6A8E";
paths = (
{
closed = 1;
nodes = (
"139 395 LINE",
"139 472 OFFCURVE",
"202 542 OFFCURVE",
"359 542 CURVE SMOOTH",
"470 542 OFFCURVE",
"544 495 OFFCURVE",
"544 418 CURVE SMOOTH",
"544 288 OFFCURVE",
"277 237 OFFCURVE",
"70 237 CURVE",
"70 33 LINE",
"125 56 OFFCURVE",
"176 135 OFFCURVE",
"222 153 CURVE SMOOTH",
"469 254 OFFCURVE",
"585 295 OFFCURVE",
"585 467 CURVE SMOOTH",
"585 568 OFFCURVE",
"501 700 OFFCURVE",
"329 700 CURVE SMOOTH",
"126 700 OFFCURVE",
"59 537 OFFCURVE",
"77 395 CURVE"
);
},
{
closed = 1;
nodes = (
"70 0 LINE",
"597 0 LINE",
"597 177 LINE",
"70 177 LINE"
);
}
);
width = 667;
},
{
associatedMasterId = "66D417ED-19C2-41B2-B946-B4104EEC6A8E";
backgroundImage = {
crop = "{{0, 0}, {117, 660}}";
imagePath = "/Users/valerymarier/Downloads/Screen Shot 2020-02-27 at 9.41.37 PM.png";
locked = "1";
transform = "{0, -11.011, 11.011, 0, -1426, 1025}";
};
layerId = "676CE52E-EA9E-4474-A6FF-19C7ECC7DFC3";
name = "Feb 28 20, 21:56";
paths = (
{
closed = 1;
nodes = (
"102 585 LINE",
"68 549 OFFCURVE",
"38 504 OFFCURVE",
"14 451 CURVE",
"48 400 LINE",
"69 426 OFFCURVE",
"94 448 OFFCURVE",
"123 465 CURVE"
);
},
{
closed = 1;
nodes = (
"604 -1 LINE",
"604 172 LINE",
"50 172 LINE",
"50 -1 LINE"
);
},
{
closed = 1;
nodes = (
"123 465 LINE",
"201 512 OFFCURVE",
"301 526 OFFCURVE",
"367 526 CURVE SMOOTH",
"479 526 OFFCURVE",
"558 495 OFFCURVE",
"558 423 CURVE SMOOTH",
"558 282 OFFCURVE",
"42 177 OFFCURVE",
"39 177 CURVE",
"39 0 LINE",
"282 0 OFFCURVE",
"604 262 OFFCURVE",
"604 442 CURVE SMOOTH",
"604 548 OFFCURVE",
"530 700 OFFCURVE",
"347 700 CURVE SMOOTH",
"259 700 OFFCURVE",
"172 660 OFFCURVE",
"102 585 CURVE"
);
}
);
width = 600;
},
{
associatedMasterId = "66D417ED-19C2-41B2-B946-B4104EEC6A8E";
layerId = "5CDB7426-9A7E-40B6-8A62-3C21609A824C";
name = "Jun 15 20, 20:31";
paths = (
{
closed = 1;
nodes = (
"575 -1 LINE",
"575 172 LINE",
"51 172 LINE",
"51 -1 LINE"
);
},
{
closed = 1;
nodes = (
"64 465 LINE",
"142 502 OFFCURVE",
"232 526 OFFCURVE",
"318 526 CURVE SMOOTH",
"430 526 OFFCURVE",
"499 495 OFFCURVE",
"499 423 CURVE SMOOTH",
"499 282 OFFCURVE",
"43 177 OFFCURVE",
"40 177 CURVE",
"40 0 LINE",
"283 0 OFFCURVE",
"545 262 OFFCURVE",
"545 442 CURVE SMOOTH",
"545 548 OFFCURVE",
"481 700 OFFCURVE",
"298 700 CURVE SMOOTH",
"190 700 OFFCURVE",
"113 650 OFFCURVE",
"43 585 CURVE"
);
}
);
width = 615;
},
{
associatedMasterId = "66D417ED-19C2-41B2-B946-B4104EEC6A8E";
layerId = "F28F2F7A-C44B-428B-A15A-ACCC3CE3FCBE";
name = "Jun 15 20, 22:43";
paths = (
{
closed = 1;
nodes = (
"587 0 LINE",
"587 31 LINE",
"53 31 LINE",
"53 0 LINE"
);
},
{
closed = 1;
nodes = (
"119 395 LINE",
"119 472 OFFCURVE",
"182 542 OFFCURVE",
"339 542 CURVE SMOOTH",
"450 542 OFFCURVE",
"524 495 OFFCURVE",
"524 418 CURVE SMOOTH",
"524 278 OFFCURVE",
"257 237 OFFCURVE",
"50 237 CURVE",
"50 33 LINE",
"105 56 OFFCURVE",
"156 107 OFFCURVE",
"202 125 CURVE SMOOTH",
"449 226 OFFCURVE",
"565 305 OFFCURVE",
"565 467 CURVE SMOOTH",
"565 568 OFFCURVE",
"481 700 OFFCURVE",
"309 700 CURVE SMOOTH",
"106 700 OFFCURVE",
"39 537 OFFCURVE",
"57 395 CURVE"
);
},
{
closed = 1;
nodes = (
"430 0 LINE",
"589 0 LINE",
"589 177 LINE",
"430 177 LINE"
);
},
{
closed = 1;
nodes = (
"50 0 LINE",
"209 0 LINE",
"209 177 LINE",
"50 177 LINE"
);
}
);
width = 615;
},
{
layerId = "A4F58C8D-8D17-43C2-93E4-A012F059F067";
paths = (
{
closed = 1;
nodes = (
"107 395 LINE",
"87 543 OFFCURVE",
"161 670 OFFCURVE",
"329 670 CURVE SMOOTH",
"432 670 OFFCURVE",
"555 609 OFFCURVE",
"555 467 CURVE SMOOTH",
"555 287 OFFCURVE",
"329 125 OFFCURVE",
"70 38 CURVE",
"70 13 LINE",
"125 36 OFFCURVE",
"65 8 OFFCURVE",
"111 23 CURVE SMOOTH",
"367 105 OFFCURVE",
"585 285 OFFCURVE",
"585 467 CURVE SMOOTH",
"585 588 OFFCURVE",
"501 700 OFFCURVE",
"329 700 CURVE SMOOTH",
"126 700 OFFCURVE",
"59 537 OFFCURVE",
"77 395 CURVE"
);
},
{
closed = 1;
nodes = (
"70 0 LINE",
"597 0 LINE",
"597 30 LINE",
"70 30 LINE"
);
}
);
width = 667;
},
{
associatedMasterId = "A4F58C8D-8D17-43C2-93E4-A012F059F067";
backgroundImage = {
crop = "{{0, 0}, {117, 660}}";
imagePath = "/Users/valerymarier/Downloads/Screen Shot 2020-02-27 at 9.41.37 PM.png";
locked = "1";
transform = "{0, -11.011, 11.011, 0, -1426, 1025}";
};
layerId = "BE450E44-A701-450F-A66C-C805F13EFFB5";
name = "Feb 28 20, 21:56";
paths = (
{
closed = 1;
nodes = (
"102 585 LINE",
"68 549 OFFCURVE",
"38 504 OFFCURVE",
"14 451 CURVE",
"48 400 LINE",
"69 426 OFFCURVE",
"94 448 OFFCURVE",
"123 465 CURVE"
);
},
{
closed = 1;
nodes = (
"604 -1 LINE",
"604 172 LINE",
"50 172 LINE",
"50 -1 LINE"
);
},
{
closed = 1;
nodes = (
"123 465 LINE",
"201 512 OFFCURVE",
"301 526 OFFCURVE",
"367 526 CURVE SMOOTH",
"479 526 OFFCURVE",
"558 495 OFFCURVE",
"558 423 CURVE SMOOTH",
"558 282 OFFCURVE",
"42 177 OFFCURVE",
"39 177 CURVE",
"39 0 LINE",
"282 0 OFFCURVE",
"604 262 OFFCURVE",
"604 442 CURVE SMOOTH",
"604 548 OFFCURVE",
"530 700 OFFCURVE",
"347 700 CURVE SMOOTH",
"259 700 OFFCURVE",
"172 660 OFFCURVE",
"102 585 CURVE"
);
}
);
width = 600;
},
{
associatedMasterId = "A4F58C8D-8D17-43C2-93E4-A012F059F067";
layerId = "363DA554-C133-41E5-ABC2-9743ED9C8AC6";
name = "Jun 15 20, 20:31";
paths = (
{
closed = 1;
nodes = (
"575 -1 LINE",
"575 172 LINE",
"51 172 LINE",
"51 -1 LINE"
);
},
{
closed = 1;
nodes = (
"64 465 LINE",
"142 502 OFFCURVE",
"232 526 OFFCURVE",
"318 526 CURVE SMOOTH",
"430 526 OFFCURVE",
"499 495 OFFCURVE",
"499 423 CURVE SMOOTH",
"499 282 OFFCURVE",
"43 177 OFFCURVE",
"40 177 CURVE",
"40 0 LINE",
"283 0 OFFCURVE",
"545 262 OFFCURVE",
"545 442 CURVE SMOOTH",
"545 548 OFFCURVE",
"481 700 OFFCURVE",
"298 700 CURVE SMOOTH",
"190 700 OFFCURVE",
"113 650 OFFCURVE",
"43 585 CURVE"
);
}
);
width = 615;
},
{
associatedMasterId = "A4F58C8D-8D17-43C2-93E4-A012F059F067";
layerId = "5E06C885-FA72-4B84-A492-4A6AE295E819";
name = "Jun 15 20, 22:43";
paths = (
{
closed = 1;
nodes = (
"587 0 LINE",
"587 31 LINE",
"53 31 LINE",
"53 0 LINE"
);
},
{
closed = 1;
nodes = (
"119 395 LINE",
"119 472 OFFCURVE",
"182 542 OFFCURVE",
"339 542 CURVE SMOOTH",
"450 542 OFFCURVE",
"524 495 OFFCURVE",
"524 418 CURVE SMOOTH",
"524 278 OFFCURVE",
"257 237 OFFCURVE",
"50 237 CURVE",
"50 33 LINE",
"105 56 OFFCURVE",
"156 107 OFFCURVE",
"202 125 CURVE SMOOTH",
"449 226 OFFCURVE",
"565 305 OFFCURVE",
"565 467 CURVE SMOOTH",
"565 568 OFFCURVE",
"481 700 OFFCURVE",
"309 700 CURVE SMOOTH",
"106 700 OFFCURVE",
"39 537 OFFCURVE",
"57 395 CURVE"
);
},
{
closed = 1;
nodes = (
"430 0 LINE",
"589 0 LINE",
"589 177 LINE",
"430 177 LINE"
);
},
{
closed = 1;
nodes = (
"50 0 LINE",
"209 0 LINE",
"209 177 LINE",
"50 177 LINE"
);
}
);
width = 615;
}
);
leftKerningGroup = O;
rightKerningGroup = O;
unicode = 0032;
},
{
glyphname = three;
lastChange = "2020-06-18 00:48:12 +0000";
layers = (
{
guideLines = (
{
position = "{-154, 400}";
}
);
layerId = "66D417ED-19C2-41B2-B946-B4104EEC6A8E";
paths = (
{
closed = 1;
nodes = (
"273 430 LINE",
"273 400 LINE",
"461 400 LINE SMOOTH",
"532 400 OFFCURVE",
"557 342 OFFCURVE",
"557 297 CURVE SMOOTH",
"557 215 OFFCURVE",
"495 179 OFFCURVE",
"352 179 CURVE SMOOTH",
"206 179 OFFCURVE",
"99 228 OFFCURVE",
"110 318 CURVE",
"78 318 LINE",
"10 144 OFFCURVE",
"143 2 OFFCURVE",
"327 2 CURVE SMOOTH",
"502 2 OFFCURVE",
"587 111 OFFCURVE",
"587 271 CURVE SMOOTH",
"587 336 OFFCURVE",
"561 430 OFFCURVE",
"461 430 CURVE SMOOTH"
);
},
{
closed = 1;
nodes = (
"526 400 OFFCURVE",
"567 419 OFFCURVE",
"567 500 CURVE SMOOTH",
"567 580 OFFCURVE",
"495 700 OFFCURVE",
"327 700 CURVE SMOOTH",
"160 700 OFFCURVE",
"38 578 OFFCURVE",
"94 414 CURVE",
"126 414 LINE",
"125 499 OFFCURVE",
"255 527 OFFCURVE",
"360 527 CURVE SMOOTH",
"460 527 OFFCURVE",
"537 514 OFFCURVE",
"537 469 CURVE SMOOTH",
"537 440 OFFCURVE",
"520 430 OFFCURVE",
"461 430 CURVE SMOOTH",
"273 430 LINE",
"273 400 LINE",
"461 400 LINE SMOOTH"
);
}
);
width = 647;
},
{
associatedMasterId = "66D417ED-19C2-41B2-B946-B4104EEC6A8E";
guideLines = (
{
position = "{-144, 400}";
}
);
layerId = "1421454E-3F75-4FD6-AAAC-5E57D852680D";
name = "Jun 15 20, 20:45";
paths = (
{
closed = 1;
nodes = (
"279 430 LINE",
"279 400 LINE",
"467 400 LINE SMOOTH",
"538 400 OFFCURVE",
"563 342 OFFCURVE",
"563 295 CURVE SMOOTH",
"563 224 OFFCURVE",
"491 179 OFFCURVE",
"333 179 CURVE SMOOTH",
"222 179 OFFCURVE",
"91 203 OFFCURVE",
"72 258 CURVE",
"40 258 LINE",
"40 84 OFFCURVE",
"159 2 OFFCURVE",
"314 2 CURVE SMOOTH",
"478 2 OFFCURVE",
"593 108 OFFCURVE",
"593 298 CURVE SMOOTH",
"593 336 OFFCURVE",
"567 430 OFFCURVE",
"467 430 CURVE SMOOTH"
);
},
{
closed = 1;
nodes = (
"536 400 OFFCURVE",
"577 429 OFFCURVE",
"577 471 CURVE SMOOTH",
"577 564 OFFCURVE",
"519 700 OFFCURVE",
"318 700 CURVE SMOOTH",
"183 700 OFFCURVE",
"64 618 OFFCURVE",
"64 454 CURVE",
"96 454 LINE",
"124 524 OFFCURVE",
"245 527 OFFCURVE",
"337 527 CURVE SMOOTH",
"525 527 OFFCURVE",
"547 493 OFFCURVE",
"547 469 CURVE SMOOTH",
"547 450 OFFCURVE",
"530 430 OFFCURVE",
"471 430 CURVE SMOOTH",
"283 430 LINE",
"283 400 LINE",
"471 400 LINE SMOOTH"
);
}
);
width = 633;
},
{
guideLines = (
{
position = "{-154, 400}";
}
);
layerId = "A4F58C8D-8D17-43C2-93E4-A012F059F067";
paths = (
{
closed = 1;
nodes = (
"273 430 LINE",
"273 400 LINE",
"411 400 LINE SMOOTH",
"502 400 OFFCURVE",
"557 362 OFFCURVE",
"557 251 CURVE SMOOTH",
"557 146 OFFCURVE",
"507 30 OFFCURVE",
"327 30 CURVE SMOOTH",
"154 30 OFFCURVE",
"42 172 OFFCURVE",
"108 318 CURVE",
"78 318 LINE",
"10 144 OFFCURVE",
"143 2 OFFCURVE",
"327 2 CURVE SMOOTH",
"502 2 OFFCURVE",
"587 91 OFFCURVE",
"587 251 CURVE SMOOTH",
"587 356 OFFCURVE",
"531 430 OFFCURVE",
"411 430 CURVE SMOOTH"
);
},
{
closed = 1;
nodes = (
"496 400 OFFCURVE",
"567 459 OFFCURVE",
"567 540 CURVE SMOOTH",
"567 630 OFFCURVE",
"495 700 OFFCURVE",
"327 700 CURVE SMOOTH",
"160 700 OFFCURVE",
"38 578 OFFCURVE",
"94 414 CURVE",
"124 414 LINE",
"60 575 OFFCURVE",
"189 670 OFFCURVE",
"327 670 CURVE SMOOTH",
"487 670 OFFCURVE",
"537 606 OFFCURVE",
"537 540 CURVE SMOOTH",
"537 480 OFFCURVE",
"490 430 OFFCURVE",
"411 430 CURVE SMOOTH",
"273 430 LINE",
"273 400 LINE",
"411 400 LINE SMOOTH"
);
}
);
width = 647;
},
{
associatedMasterId = "A4F58C8D-8D17-43C2-93E4-A012F059F067";
guideLines = (
{
position = "{-144, 400}";
}
);
layerId = "7F59A8F1-B435-49B4-9C5B-1CC5D54E70A1";
name = "Jun 15 20, 20:45";
paths = (
{
closed = 1;
nodes = (
"279 430 LINE",
"279 400 LINE",
"467 400 LINE SMOOTH",
"538 400 OFFCURVE",
"563 342 OFFCURVE",
"563 295 CURVE SMOOTH",
"563 224 OFFCURVE",
"491 179 OFFCURVE",
"333 179 CURVE SMOOTH",
"222 179 OFFCURVE",
"91 203 OFFCURVE",
"72 258 CURVE",
"40 258 LINE",
"40 84 OFFCURVE",
"159 2 OFFCURVE",
"314 2 CURVE SMOOTH",
"478 2 OFFCURVE",
"593 108 OFFCURVE",
"593 298 CURVE SMOOTH",
"593 336 OFFCURVE",
"567 430 OFFCURVE",
"467 430 CURVE SMOOTH"
);
},
{
closed = 1;
nodes = (
"536 400 OFFCURVE",
"577 429 OFFCURVE",
"577 471 CURVE SMOOTH",
"577 564 OFFCURVE",
"519 700 OFFCURVE",
"318 700 CURVE SMOOTH",
"183 700 OFFCURVE",
"64 618 OFFCURVE",
"64 454 CURVE",
"96 454 LINE",
"124 524 OFFCURVE",
"245 527 OFFCURVE",
"337 527 CURVE SMOOTH",
"525 527 OFFCURVE",
"547 493 OFFCURVE",
"547 469 CURVE SMOOTH",
"547 450 OFFCURVE",
"530 430 OFFCURVE",
"471 430 CURVE SMOOTH",
"283 430 LINE",
"283 400 LINE",
"471 400 LINE SMOOTH"
);
}
);
width = 633;
}
);
leftKerningGroup = O;
rightKerningGroup = O;
unicode = 0033;
},
{
glyphname = four;
lastChange = "2020-06-18 00:48:57 +0000";
layers = (
{
guideLines = (
{
angle = 48.9767;
position = "{90, 500}";
},
{
position = "{-418, 328}";
},
{
position = "{-181, 399}";
}
);
layerId = "66D417ED-19C2-41B2-B946-B4104EEC6A8E";
paths = (
{
closed = 1;
nodes = (
"246 177 LINE",
"246 0 LINE",
"627 0 LINE",
"627 177 LINE"
);
},
{
closed = 1;
nodes = (
"499 166 LINE",
"499 700 LINE",
"469 700 LINE",
"469 166 LINE"
);
},
{
closed = 1;
nodes = (
"627 429 LINE",
"168 429 LINE",
"168 399 LINE",
"627 399 LINE"
);
},
{
closed = 1;
nodes = (
"150 700 LINE",
"70 399 LINE",
"245 399 LINE",
"325 700 LINE"
);
}
);
width = 687;
},
{
associatedMasterId = "66D417ED-19C2-41B2-B946-B4104EEC6A8E";
backgroundImage = {
crop = "{{0, 0}, {117, 660}}";
imagePath = "/Users/valerymarier/Downloads/Screen Shot 2020-02-27 at 9.41.37 PM.png";
locked = "1";
transform = "{0, -11.011, 11.011, 0, -2638, 1025}";
};
guideLines = (
{
angle = 48.9767;
position = "{101, 500}";
}
);
layerId = "11CEF131-E7CD-4E32-9BCF-59B8EB15B0F8";
name = "Feb 28 20, 22:24";
paths = (
{
closed = 1;
nodes = (
"207 177 LINE",
"207 0 LINE",
"627 0 LINE",
"627 177 LINE"
);
},
{
closed = 1;
nodes = (
"205 400 LINE",
"379 600 LINE",
"216 700 LINE",
"42 500 LINE"
);
},
{
closed = 1;
nodes = (
"436 166 LINE",
"436 700 LINE",
"406 700 LINE",
"406 166 LINE"
);
},
{
closed = 1;
nodes = (
"627 430 LINE",
"159 430 LINE",
"159 400 LINE",
"627 400 LINE"
);
},
{
closed = 1;
nodes = (
"41 501 LINE",
"41 400 LINE",
"216 400 LINE",
"216 501 LINE"
);
},
{
closed = 1;
nodes = (
"216 700 LINE",
"216 527 LINE",
"426 527 LINE",
"426 700 LINE"
);
}
);
width = 600;
},
{
associatedMasterId = "66D417ED-19C2-41B2-B946-B4104EEC6A8E";
guideLines = (
{
angle = 48.9767;
position = "{80, 500}";
},
{
position = "{-428, 328}";
}
);
layerId = "15107073-6564-4579-830E-CF83A3C774CB";
name = "Feb 29 20, 12:55";
paths = (
{
closed = 1;
nodes = (
"256 177 LINE",
"256 0 LINE",
"557 0 LINE",
"557 177 LINE"
);
},
{
closed = 1;
nodes = (
"203 331 LINE",
"420 551 LINE",
"305 700 LINE",
"40 431 LINE"
);
},
{
closed = 1;
nodes = (
"449 166 LINE",
"449 700 LINE",
"419 700 LINE",
"419 166 LINE"
);
},
{
closed = 1;
nodes = (
"557 358 LINE",
"158 358 LINE",
"158 328 LINE",
"557 328 LINE"
);
},
{
closed = 1;
nodes = (
"40 431 LINE",
"40 328 LINE",
"215 328 LINE",
"215 501 LINE"
);
},
{
closed = 1;
nodes = (
"305 700 LINE",
"215 527 LINE",
"436 527 LINE",
"436 700 LINE"
);
}
);
width = 597;
},
{
guideLines = (
{
angle = 48.9767;
position = "{50, 500}";
},
{
position = "{-458, 328}";
},
{
position = "{-221, 399}";
}
);
layerId = "A4F58C8D-8D17-43C2-93E4-A012F059F067";
paths = (
{
closed = 1;
nodes = (
"295 30 LINE",
"295 0 LINE",
"593 0 LINE",
"593 30 LINE"
);
},
{
closed = 1;
nodes = (
"459 19 LINE",
"459 700 LINE",
"429 700 LINE",
"429 19 LINE"
);
},
{
closed = 1;
nodes = (
"587 429 LINE",
"88 429 LINE",
"88 399 LINE",
"587 399 LINE"
);
},
{
closed = 1;
nodes = (
"150 700 LINE",
"70 399 LINE",
"101 399 LINE",
"181 700 LINE"
);
}
);
width = 653;
},
{
associatedMasterId = "A4F58C8D-8D17-43C2-93E4-A012F059F067";
backgroundImage = {
crop = "{{0, 0}, {117, 660}}";
imagePath = "/Users/valerymarier/Downloads/Screen Shot 2020-02-27 at 9.41.37 PM.png";
locked = "1";
transform = "{0, -11.011, 11.011, 0, -2638, 1025}";
};
guideLines = (
{
angle = 48.9767;
position = "{101, 500}";
}
);
layerId = "EC1EC95E-CC25-42B5-9832-047C97DD60A4";
name = "Feb 28 20, 22:24";
paths = (
{
closed = 1;
nodes = (
"207 177 LINE",
"207 0 LINE",
"627 0 LINE",
"627 177 LINE"
);
},
{
closed = 1;
nodes = (
"205 400 LINE",
"379 600 LINE",
"216 700 LINE",
"42 500 LINE"
);
},
{
closed = 1;
nodes = (
"436 166 LINE",
"436 700 LINE",
"406 700 LINE",
"406 166 LINE"
);
},
{
closed = 1;
nodes = (
"627 430 LINE",
"159 430 LINE",
"159 400 LINE",
"627 400 LINE"
);
},
{
closed = 1;
nodes = (
"41 501 LINE",
"41 400 LINE",
"216 400 LINE",
"216 501 LINE"
);
},
{
closed = 1;
nodes = (
"216 700 LINE",
"216 527 LINE",
"426 527 LINE",
"426 700 LINE"
);
}
);
width = 600;
},
{
associatedMasterId = "A4F58C8D-8D17-43C2-93E4-A012F059F067";
guideLines = (
{
angle = 48.9767;
position = "{80, 500}";
},
{
position = "{-428, 328}";
}
);
layerId = "54E1D21A-8367-4B8F-9BD9-A3D3E085F146";
name = "Feb 29 20, 12:55";
paths = (
{
closed = 1;
nodes = (
"256 177 LINE",
"256 0 LINE",
"557 0 LINE",
"557 177 LINE"
);
},
{
closed = 1;
nodes = (
"203 331 LINE",
"420 551 LINE",
"305 700 LINE",
"40 431 LINE"
);
},
{
closed = 1;
nodes = (
"449 166 LINE",
"449 700 LINE",
"419 700 LINE",
"419 166 LINE"
);
},
{
closed = 1;
nodes = (
"557 358 LINE",
"158 358 LINE",
"158 328 LINE",
"557 328 LINE"
);
},
{
closed = 1;
nodes = (
"40 431 LINE",
"40 328 LINE",
"215 328 LINE",
"215 501 LINE"
);
},
{
closed = 1;
nodes = (
"305 700 LINE",
"215 527 LINE",
"436 527 LINE",
"436 700 LINE"
);
}
);
width = 597;
}
);
leftKerningGroup = four;
unicode = 0034;
},
{
glyphname = five;
lastChange = "2020-06-17 21:45:28 +0000";
layers = (
{
layerId = "66D417ED-19C2-41B2-B946-B4104EEC6A8E";
paths = (
{
closed = 1;
nodes = (
"117 527 LINE",
"580 527 LINE",
"580 700 LINE",
"117 700 LINE"
);
},
{
closed = 1;
nodes = (
"70 232 LINE",
"88 108 OFFCURVE",
"193 0 OFFCURVE",
"342 0 CURVE SMOOTH",
"519 0 OFFCURVE",
"604 117 OFFCURVE",
"604 247 CURVE SMOOTH",
"604 377 OFFCURVE",
"519 472 OFFCURVE",
"342 472 CURVE SMOOTH",
"268 472 OFFCURVE",
"172 439 OFFCURVE",
"131 375 CURVE",
"131 700 LINE",
"101 700 LINE",
"101 283 LINE",
"132 293 OFFCURVE",
"237 318 OFFCURVE",
"372 318 CURVE SMOOTH",
"472 318 OFFCURVE",
"575 303 OFFCURVE",
"575 247 CURVE SMOOTH",
"575 198 OFFCURVE",
"472 172 OFFCURVE",
"372 172 CURVE SMOOTH",
"223 172 OFFCURVE",
"157 198 OFFCURVE",
"132 232 CURVE"
);
}
);
width = 674;
},
{
associatedMasterId = "66D417ED-19C2-41B2-B946-B4104EEC6A8E";
layerId = "8D93DF34-62D2-46C2-93EF-1476A7270EB0";
name = "Feb 29 20, 09:18";
paths = (
{
closed = 1;
nodes = (
"100 527 LINE",
"551 524 LINE",
"551 697 LINE",
"100 700 LINE"
);
},
{
closed = 1;
nodes = (
"251 480 OFFCURVE",
"148 426 OFFCURVE",
"114 369 CURVE",
"114 700 LINE",
"84 700 LINE",
"84 273 LINE",
"87 274 OFFCURVE",
"194 307 OFFCURVE",
"309 307 CURVE SMOOTH",
"476 307 OFFCURVE",
"553 283 OFFCURVE",
"553 251 CURVE SMOOTH",
"553 186 OFFCURVE",
"406 177 OFFCURVE",
"309 177 CURVE SMOOTH",
"187 177 OFFCURVE",
"125 187 OFFCURVE",
"45 225 CURVE",
"67 123 OFFCURVE",
"155 0 OFFCURVE",
"309 0 CURVE SMOOTH",
"460 0 OFFCURVE",
"583 103 OFFCURVE",
"583 244 CURVE SMOOTH",
"583 387 OFFCURVE",
"481 480 OFFCURVE",
"329 480 CURVE SMOOTH"
);
}
);
width = 600;
},
{
associatedMasterId = "66D417ED-19C2-41B2-B946-B4104EEC6A8E";
layerId = "80CC6656-4202-464C-99BE-91BC58063442";
name = "Feb 29 20, 12:57";
paths = (
{
closed = 1;
nodes = (
"100 527 LINE",
"548 524 LINE",
"548 697 LINE",
"100 700 LINE"
);
},
{
closed = 1;
nodes = (
"47 226 LINE",
"71 108 OFFCURVE",
"159 0 OFFCURVE",
"309 0 CURVE SMOOTH",
"460 0 OFFCURVE",
"583 95 OFFCURVE",
"583 236 CURVE SMOOTH",
"583 365 OFFCURVE",
"469 450 OFFCURVE",
"329 450 CURVE SMOOTH",
"251 450 OFFCURVE",
"148 426 OFFCURVE",
"114 369 CURVE",
"114 700 LINE",
"84 700 LINE",
"84 273 LINE",
"87 274 OFFCURVE",
"194 327 OFFCURVE",
"309 327 CURVE SMOOTH",
"469 327 OFFCURVE",
"553 297 OFFCURVE",
"553 248 CURVE SMOOTH",
"553 190 OFFCURVE",
"406 177 OFFCURVE",
"309 177 CURVE SMOOTH",
"197 177 OFFCURVE",
"135 184 OFFCURVE",
"79 226 CURVE"
);
}
);
width = 600;
},
{
layerId = "A4F58C8D-8D17-43C2-93E4-A012F059F067";
paths = (
{
closed = 1;
nodes = (
"117 670 LINE",
"560 670 LINE",
"560 700 LINE",
"117 700 LINE"
);
},
{
closed = 1;
nodes = (
"70 232 LINE",
"88 108 OFFCURVE",
"193 0 OFFCURVE",
"342 0 CURVE SMOOTH",
"519 0 OFFCURVE",
"604 117 OFFCURVE",
"604 247 CURVE SMOOTH",
"604 377 OFFCURVE",
"509 472 OFFCURVE",
"372 472 CURVE SMOOTH",
"288 472 OFFCURVE",
"208 447 OFFCURVE",
"131 375 CURVE",
"131 700 LINE",
"101 700 LINE",
"101 302 LINE",
"207 402 OFFCURVE",
"254 442 OFFCURVE",
"372 442 CURVE SMOOTH",
"493 442 OFFCURVE",
"574 360 OFFCURVE",
"574 247 CURVE SMOOTH",
"574 136 OFFCURVE",
"499 30 OFFCURVE",
"342 30 CURVE SMOOTH",
"190 30 OFFCURVE",
"118 134 OFFCURVE",
"100 232 CURVE"
);
}
);
width = 674;
},
{
associatedMasterId = "A4F58C8D-8D17-43C2-93E4-A012F059F067";
layerId = "D83CF05E-87A5-4B82-92F0-7CF9FA0AE86B";
name = "Feb 29 20, 09:18";
paths = (
{
closed = 1;
nodes = (
"100 527 LINE",
"551 524 LINE",
"551 697 LINE",
"100 700 LINE"
);
},
{
closed = 1;
nodes = (
"251 480 OFFCURVE",
"148 426 OFFCURVE",
"114 369 CURVE",
"114 700 LINE",
"84 700 LINE",
"84 273 LINE",
"87 274 OFFCURVE",
"194 307 OFFCURVE",
"309 307 CURVE SMOOTH",
"476 307 OFFCURVE",
"553 283 OFFCURVE",
"553 251 CURVE SMOOTH",
"553 186 OFFCURVE",
"406 177 OFFCURVE",
"309 177 CURVE SMOOTH",
"187 177 OFFCURVE",
"125 187 OFFCURVE",
"45 225 CURVE",
"67 123 OFFCURVE",
"155 0 OFFCURVE",
"309 0 CURVE SMOOTH",
"460 0 OFFCURVE",
"583 103 OFFCURVE",
"583 244 CURVE SMOOTH",
"583 387 OFFCURVE",
"481 480 OFFCURVE",
"329 480 CURVE SMOOTH"
);
}
);
width = 600;
},
{
associatedMasterId = "A4F58C8D-8D17-43C2-93E4-A012F059F067";
layerId = "0F9617DD-C639-4DE0-BDDB-C8E04E2EDD29";
name = "Feb 29 20, 12:57";
paths = (
{
closed = 1;
nodes = (
"100 527 LINE",
"548 524 LINE",
"548 697 LINE",
"100 700 LINE"
);
},
{
closed = 1;
nodes = (
"47 226 LINE",
"71 108 OFFCURVE",
"159 0 OFFCURVE",
"309 0 CURVE SMOOTH",
"460 0 OFFCURVE",
"583 95 OFFCURVE",
"583 236 CURVE SMOOTH",
"583 365 OFFCURVE",
"469 450 OFFCURVE",
"329 450 CURVE SMOOTH",
"251 450 OFFCURVE",
"148 426 OFFCURVE",
"114 369 CURVE",
"114 700 LINE",
"84 700 LINE",
"84 273 LINE",
"87 274 OFFCURVE",
"194 327 OFFCURVE",
"309 327 CURVE SMOOTH",
"469 327 OFFCURVE",
"553 297 OFFCURVE",
"553 248 CURVE SMOOTH",
"553 190 OFFCURVE",
"406 177 OFFCURVE",
"309 177 CURVE SMOOTH",
"197 177 OFFCURVE",
"135 184 OFFCURVE",
"79 226 CURVE"
);
}
);
width = 600;
}
);
unicode = 0035;
},
